<svg width="56" height="57" viewBox="0 0 56 57" fill="none" xmlns="http://www.w3.org/2000/svg">
<g clip-path="url(#clip0_1637_1178)">
<path d="M27.9082 56.5371C43.3128 56.5371 55.8008 44.0492 55.8008 28.6445C55.8008 13.2399 43.3128 0.751953 27.9082 0.751953C12.5036 0.751953 0.015625 13.2399 0.015625 28.6445C0.015625 44.0492 12.5036 56.5371 27.9082 56.5371Z" fill="#3C5A9A"/>
<path d="M36.9786 9.31445H30.7997C27.1329 9.31445 23.0544 10.8566 23.0544 16.1718C23.0723 18.0238 23.0544 19.7974 23.0544 21.7936H18.8125V28.5437H23.1857V47.9764H31.2217V28.4155H36.5257L37.0056 21.7746H31.0832C31.0832 21.7746 31.0965 18.8205 31.0832 17.9626C31.0832 15.8621 33.2688 15.9824 33.4003 15.9824C34.4403 15.9824 36.4625 15.9855 36.9816 15.9824V9.31445H36.9786Z" fill="white"/>
</g>
<defs>
<clipPath id="clip0_1637_1178">
<rect width="55.7851" height="55.7851" fill="white" transform="translate(0.015625 0.751953)"/>
</clipPath>
</defs>
</svg>
