<svg width="57" height="57" viewBox="0 0 57 57" fill="none" xmlns="http://www.w3.org/2000/svg">
<g clip-path="url(#clip0_1637_1164)">
<path d="M19.3426 28.8555C19.3426 23.7208 23.504 19.5572 28.6387 19.5572C33.7733 19.5572 37.9369 23.7208 37.9369 28.8555C37.9369 33.9901 33.7733 38.1537 28.6387 38.1537C23.504 38.1537 19.3426 33.9901 19.3426 28.8555ZM14.3162 28.8555C14.3162 36.7658 20.7283 43.178 28.6387 43.178C36.549 43.178 42.9612 36.7658 42.9612 28.8555C42.9612 20.9451 36.549 14.533 28.6387 14.533C20.7283 14.533 14.3162 20.9451 14.3162 28.8555ZM40.181 13.9651C40.1808 14.6271 40.3768 15.2743 40.7444 15.8248C41.112 16.3754 41.6345 16.8046 42.246 17.0582C42.8575 17.3118 43.5305 17.3783 44.1798 17.2495C44.8292 17.1206 45.4257 16.802 45.894 16.3341C46.3623 15.8662 46.6813 15.2699 46.8107 14.6207C46.9401 13.9715 46.8741 13.2985 46.621 12.6868C46.3679 12.0751 45.9391 11.5521 45.3888 11.1841C44.8385 10.8161 44.1915 10.6196 43.5295 10.6193H43.5282C42.6408 10.6197 41.7899 10.9723 41.1623 11.5996C40.5347 12.227 40.1818 13.0777 40.181 13.9651ZM17.3701 51.5593C14.6506 51.4355 13.1726 50.9825 12.1903 50.5998C10.8881 50.0929 9.95889 49.489 8.98199 48.5135C8.00508 47.5379 7.40037 46.6096 6.89562 45.3074C6.51271 44.3256 6.05974 42.847 5.93612 40.1276C5.8009 37.1875 5.7739 36.3043 5.7739 28.8557C5.7739 21.407 5.80313 20.5263 5.93612 17.5837C6.05996 14.8643 6.51628 13.3887 6.89562 12.404C7.4026 11.1017 8.00642 10.1726 8.98199 9.19566C9.95756 8.21875 10.8858 7.61404 12.1903 7.1093C13.1721 6.72639 14.6506 6.27341 17.3701 6.14979C20.3102 6.01457 21.1933 5.98757 28.6387 5.98757C36.084 5.98757 36.968 6.0168 39.9106 6.14979C42.63 6.27363 44.1056 6.72996 45.0904 7.1093C46.3926 7.61404 47.3218 8.22009 48.2987 9.19566C49.2756 10.1712 49.8781 11.1017 50.385 12.404C50.7679 13.3858 51.2209 14.8643 51.3445 17.5837C51.4798 20.5263 51.5068 21.407 51.5068 28.8557C51.5068 36.3043 51.4798 37.1851 51.3445 40.1276C51.2207 42.847 50.7655 44.3251 50.385 45.3074C49.8781 46.6096 49.2742 47.5388 48.2987 48.5135C47.3231 49.4881 46.3926 50.0929 45.0904 50.5998C44.1085 50.9827 42.63 51.4357 39.9106 51.5593C36.9705 51.6946 36.0873 51.7216 28.6387 51.7216C21.19 51.7216 20.3093 51.6946 17.3701 51.5593ZM17.1391 1.13181C14.1698 1.26703 12.1408 1.73786 10.3688 2.42736C8.5337 3.1394 6.98019 4.09467 5.4278 5.6446C3.87542 7.19454 2.92261 8.75049 2.21056 10.5856C1.52106 12.3587 1.05023 14.3866 0.915011 17.3559C0.777557 20.3299 0.746094 21.2807 0.746094 28.8555C0.746094 36.4302 0.777557 37.381 0.915011 40.355C1.05023 43.3246 1.52106 45.3522 2.21056 47.1253C2.92261 48.9593 3.87564 50.517 5.4278 52.0663C6.97997 53.6156 8.5337 54.5695 10.3688 55.2836C12.1441 55.9731 14.1698 56.4439 17.1391 56.5791C20.1147 56.7143 21.0639 56.748 28.6387 56.748C36.2134 56.748 37.1642 56.7166 40.1382 56.5791C43.1078 56.4439 45.1354 55.9731 46.9085 55.2836C48.7425 54.5695 50.2971 53.6162 51.8495 52.0663C53.4019 50.5164 54.3527 48.9593 55.0667 47.1253C55.7563 45.3522 56.2293 43.3243 56.3623 40.355C56.4975 37.3788 56.529 36.4302 56.529 28.8555C56.529 21.2807 56.4975 20.3299 56.3623 17.3559C56.2271 14.3864 55.7563 12.3576 55.0667 10.5856C54.3527 8.75161 53.3994 7.19699 51.8495 5.6446C50.2996 4.09221 48.7425 3.1394 46.9107 2.42736C45.1354 1.73786 43.1075 1.2648 40.1404 1.13181C37.1664 0.996585 36.2156 0.962891 28.6409 0.962891C21.0662 0.962891 20.1147 0.994353 17.1391 1.13181Z" fill="url(#paint0_radial_1637_1164)"/>
<path d="M19.3426 28.8555C19.3426 23.7208 23.504 19.5572 28.6387 19.5572C33.7733 19.5572 37.9369 23.7208 37.9369 28.8555C37.9369 33.9901 33.7733 38.1537 28.6387 38.1537C23.504 38.1537 19.3426 33.9901 19.3426 28.8555ZM14.3162 28.8555C14.3162 36.7658 20.7283 43.1779 28.6387 43.1779C36.549 43.1779 42.9612 36.7658 42.9612 28.8555C42.9612 20.9451 36.549 14.533 28.6387 14.533C20.7283 14.533 14.3162 20.9451 14.3162 28.8555ZM40.181 13.9651C40.1808 14.6271 40.3768 15.2743 40.7444 15.8248C41.112 16.3754 41.6345 16.8046 42.246 17.0582C42.8575 17.3118 43.5305 17.3783 44.1798 17.2495C44.8292 17.1206 45.4257 16.802 45.894 16.3341C46.3623 15.8662 46.6813 15.2699 46.8107 14.6207C46.9401 13.9715 46.8741 13.2985 46.621 12.6868C46.3679 12.0751 45.9391 11.5521 45.3888 11.1841C44.8385 10.8161 44.1915 10.6196 43.5295 10.6193H43.5282C42.6408 10.6197 41.7899 10.9723 41.1623 11.5996C40.5347 12.227 40.1818 13.0777 40.181 13.9651ZM17.3701 51.5593C14.6506 51.4355 13.1726 50.9825 12.1903 50.5998C10.8881 50.0928 9.9589 49.489 8.98199 48.5135C8.00508 47.5379 7.40037 46.6096 6.89562 45.3074C6.51271 44.3256 6.05974 42.847 5.93612 40.1276C5.8009 37.1875 5.7739 36.3043 5.7739 28.8557C5.7739 21.407 5.80313 20.5263 5.93612 17.5837C6.05996 14.8643 6.51628 13.3887 6.89562 12.404C7.4026 11.1017 8.00642 10.1726 8.98199 9.19566C9.95756 8.21875 10.8858 7.61404 12.1903 7.1093C13.1721 6.72639 14.6506 6.27341 17.3701 6.14979C20.3102 6.01457 21.1933 5.98757 28.6387 5.98757C36.084 5.98757 36.968 6.0168 39.9106 6.14979C42.63 6.27363 44.1056 6.72996 45.0904 7.1093C46.3926 7.61404 47.3218 8.22009 48.2987 9.19566C49.2756 10.1712 49.8781 11.1017 50.385 12.404C50.7679 13.3858 51.2209 14.8643 51.3445 17.5837C51.4798 20.5263 51.5068 21.407 51.5068 28.8557C51.5068 36.3043 51.4798 37.1851 51.3445 40.1276C51.2207 42.847 50.7655 44.3251 50.385 45.3074C49.8781 46.6096 49.2742 47.5388 48.2987 48.5135C47.3231 49.4881 46.3926 50.0928 45.0904 50.5998C44.1085 50.9827 42.63 51.4357 39.9106 51.5593C36.9705 51.6946 36.0873 51.7216 28.6387 51.7216C21.19 51.7216 20.3093 51.6946 17.3701 51.5593ZM17.1391 1.13181C14.1698 1.26703 12.1408 1.73786 10.3688 2.42736C8.5337 3.1394 6.98019 4.09467 5.4278 5.6446C3.87542 7.19454 2.92261 8.75049 2.21056 10.5856C1.52106 12.3587 1.05023 14.3866 0.915011 17.3559C0.777557 20.3299 0.746094 21.2807 0.746094 28.8555C0.746094 36.4302 0.777557 37.381 0.915011 40.355C1.05023 43.3246 1.52106 45.3522 2.21056 47.1253C2.92261 48.9593 3.87564 50.517 5.4278 52.0663C6.97997 53.6156 8.5337 54.5695 10.3688 55.2835C12.1441 55.9731 14.1698 56.4439 17.1391 56.5791C20.1147 56.7143 21.0639 56.748 28.6387 56.748C36.2134 56.748 37.1642 56.7165 40.1382 56.5791C43.1078 56.4439 45.1354 55.9731 46.9085 55.2835C48.7425 54.5695 50.2971 53.6162 51.8495 52.0663C53.4019 50.5164 54.3527 48.9593 55.0667 47.1253C55.7563 45.3522 56.2293 43.3243 56.3623 40.355C56.4975 37.3787 56.529 36.4302 56.529 28.8555C56.529 21.2807 56.4975 20.3299 56.3623 17.3559C56.2271 14.3864 55.7563 12.3576 55.0667 10.5856C54.3527 8.75161 53.3994 7.19699 51.8495 5.6446C50.2996 4.09221 48.7425 3.1394 46.9107 2.42736C45.1354 1.73786 43.1075 1.2648 40.1404 1.13181C37.1664 0.996585 36.2156 0.962891 28.6409 0.962891C21.0662 0.962891 20.1147 0.994353 17.1391 1.13181Z" fill="url(#paint1_radial_1637_1164)"/>
</g>
<defs>
<radialGradient id="paint0_radial_1637_1164" cx="0" cy="0" r="1" gradientUnits="userSpaceOnUse" gradientTransform="translate(8.15748 57.0115) scale(72.8228 72.8228)">
<stop offset="0.09" stop-color="#FA8F21"/>
<stop offset="0.78" stop-color="#D82D7E"/>
</radialGradient>
<radialGradient id="paint1_radial_1637_1164" cx="0" cy="0" r="1" gradientUnits="userSpaceOnUse" gradientTransform="translate(34.5773 59.5107) scale(57.3944 57.3944)">
<stop offset="0.64" stop-color="#8C3AAA" stop-opacity="0"/>
<stop offset="1" stop-color="#8C3AAA"/>
</radialGradient>
<clipPath id="clip0_1637_1164">
<rect width="55.7851" height="55.7851" fill="white" transform="translate(0.746094 0.962891)"/>
</clipPath>
</defs>
</svg>
