<svg id="SvgjsSvg1001" width="288" height="288" xmlns="http://www.w3.org/2000/svg" version="1.1" xmlns:xlink="http://www.w3.org/1999/xlink" xmlns:svgjs="http://svgjs.com/svgjs"><defs id="SvgjsDefs1002"></defs><g id="SvgjsG1008"><svg xmlns="http://www.w3.org/2000/svg" fill="none" viewBox="0 0 164 157" width="288" height="288"><path fill="#000000" d="M0 39.2129H163.985V151.854C163.985 154.616 161.746 156.854 158.985 156.854H5C2.23858 156.854 0 154.616 0 151.854V39.2129zM163.984 32.084L-.000442505 32.084-.000440137 4.99999C-.000439896 2.23857 2.23813-.00000651091 4.99956-.0000062695L158.984.00000719228C161.746.00000743369 163.984 2.23858 163.984 5.00001L163.984 32.084z" class="colorfff svgShape"></path><rect width="17.824" height="17.824" x="85.555" y="114.076" fill="#ffffff" class="color030612 svgShape"></rect><rect width="17.824" height="17.824" x="60.602" y="114.076" fill="#ffffff" class="color030612 svgShape"></rect><rect width="17.824" height="17.824" x="35.648" y="114.076" fill="#ffffff" class="color030612 svgShape"></rect><rect width="17.824" height="17.824" x="109.93" y="114.076" fill="#ffffff" class="color030612 svgShape"></rect><rect width="17.824" height="17.824" x="85.555" y="89.121" fill="#ffffff" class="color030612 svgShape"></rect><rect width="17.824" height="17.824" x="60.602" y="89.121" fill="#ffffff" class="color030612 svgShape"></rect><rect width="17.824" height="17.824" x="35.648" y="89.121" fill="#ffffff" class="color030612 svgShape"></rect><rect width="17.824" height="17.824" x="109.93" y="89.121" fill="#ffffff" class="color030612 svgShape"></rect><rect width="17.824" height="17.824" x="85.555" y="64.166" fill="#ffffff" class="color030612 svgShape"></rect><rect width="17.824" height="17.824" x="60.602" y="64.166" fill="#ffffff" class="color030612 svgShape"></rect><rect width="17.824" height="17.824" x="35.648" y="64.166" fill="#ffffff" class="color030612 svgShape"></rect><rect width="17.824" height="17.824" x="109.93" y="64.166" fill="#ffffff" class="color030612 svgShape"></rect></svg></g></svg>