<svg width="201" height="38" viewBox="0 0 201 38" fill="none" xmlns="http://www.w3.org/2000/svg">
<path d="M138.589 19.9089C135.791 19.9089 132.998 19.8916 130.2 19.9218C129.625 19.9218 129.461 19.7708 129.465 19.1968C129.487 14.7646 129.487 10.3325 129.465 5.90029C129.465 5.32631 129.672 5.22705 130.187 5.22705C135.808 5.24 141.425 5.23568 147.046 5.24C147.293 5.24 147.544 5.25294 147.781 5.2961C148.235 5.3781 148.4 5.7104 148.417 6.12902C148.434 6.54332 148.335 6.91878 147.881 7.03099C147.57 7.10867 147.232 7.12593 146.908 7.12593C142 7.13025 137.092 7.13888 132.189 7.1173C131.579 7.1173 131.316 7.21656 131.363 7.90275C131.428 8.91261 131.415 9.92678 131.363 10.9366C131.337 11.5365 131.558 11.653 132.111 11.6487C136.963 11.6271 141.814 11.6358 146.666 11.6358C146.995 11.6358 147.323 11.6444 147.647 11.6876C148.166 11.7523 148.408 12.076 148.413 12.5852C148.413 13.1074 148.14 13.4052 147.634 13.4786C147.366 13.5174 147.09 13.5045 146.813 13.5045C141.935 13.5045 137.054 13.5131 132.176 13.4915C131.553 13.4915 131.316 13.6253 131.359 14.2899C131.419 15.2695 131.419 16.2621 131.359 17.2418C131.32 17.8891 131.553 18.0014 132.141 17.997C136.993 17.9755 141.845 17.9798 146.696 17.9841C147.025 17.9841 147.353 17.997 147.678 18.0445C148.197 18.1222 148.43 18.4718 148.413 18.9724C148.395 19.4255 148.197 19.7708 147.704 19.8355C147.405 19.8743 147.107 19.9002 146.804 19.9045H138.589V19.9089Z" fill="#060000"/>
<path d="M74.5158 18.1523H88.1192C88.4781 18.1523 88.8326 18.1436 89.1699 18.2817C89.5504 18.4414 89.6801 18.7564 89.6672 19.1405C89.6542 19.5289 89.4985 19.8483 89.0921 19.9346C88.7721 20.0037 88.4435 20.0296 88.1149 20.0296C82.3077 20.0296 76.5005 20.0382 70.6934 20.0296C70.3734 20.0296 69.9496 20.2022 69.7896 19.7016C69.6253 19.1923 70.101 19.1103 70.3431 18.9248C75.1947 15.2694 80.0549 11.6313 84.9151 7.98892C85.1572 7.80766 85.3907 7.6264 85.6502 7.42788C85.408 7.09558 85.0794 7.238 84.8113 7.238C80.6732 7.22505 76.5394 7.22936 72.4014 7.22936C72.0987 7.22936 71.8003 7.21642 71.4976 7.19915C70.9788 7.16463 70.7928 6.81075 70.7669 6.36623C70.7409 5.88288 70.9312 5.49879 71.4544 5.39953C71.6922 5.35206 71.943 5.35637 72.1895 5.35637C78.0529 5.35637 83.9162 5.35637 89.7753 5.36069C90.0693 5.36069 90.4541 5.18375 90.6271 5.62826C90.8217 6.11593 90.4023 6.24108 90.1428 6.4396C85.1269 10.1985 80.1111 13.9488 75.0952 17.7034C74.9655 17.7984 74.8401 17.9019 74.5158 18.1609V18.1523Z" fill="#060000"/>
<path d="M63.8782 17.0302V7.03084C63.8782 6.72875 63.8868 6.43097 63.9171 6.12887C63.9603 5.64552 64.2543 5.36069 64.7257 5.36932C65.2099 5.37795 65.6596 5.529 65.7375 6.12456C65.7634 6.34034 65.7764 6.56044 65.7764 6.78054C65.7764 10.9926 65.7764 15.2047 65.7634 19.4211C65.7634 19.7447 65.958 20.1504 65.5213 20.3791C65.0932 20.6035 64.8597 20.2453 64.5916 20.0468C59.6536 16.3613 54.7242 12.6714 49.7905 8.98151C49.6608 8.88225 49.5354 8.76573 49.3927 8.68805C49.2111 8.58879 49.0727 8.3169 48.8349 8.44206C48.6057 8.5629 48.7052 8.83047 48.7052 9.0333C48.6965 12.2873 48.6922 15.5456 48.7008 18.7996C48.7008 19.4426 48.5668 19.9735 47.7928 19.9864C47.1096 19.9993 46.8199 19.598 46.8199 18.9377C46.8242 17.4617 46.8199 15.9815 46.8199 14.5055C46.8199 11.6313 46.8156 8.76142 46.8285 5.8872C46.8285 5.56784 46.6556 5.16649 47.1182 4.95502C47.5377 4.76082 47.7236 5.1147 47.9614 5.29164C52.96 9.02899 57.9542 12.775 62.9485 16.5166C63.1993 16.7065 63.4155 16.9741 63.8782 17.0302Z" fill="#050000"/>
<path d="M184.891 13.7289C182.642 13.7289 180.394 13.7677 178.15 13.7073C177.38 13.6857 177.25 13.9447 177.272 14.6265C177.32 16.0464 177.281 17.4706 177.289 18.8947C177.289 19.568 177.155 20.1117 176.325 20.116C175.534 20.116 175.387 19.5895 175.387 18.9595V6.65124C175.387 5.978 175.642 5.51191 176.368 5.50759C177.147 5.50328 177.289 6.05568 177.285 6.69008C177.285 8.19624 177.307 9.69808 177.272 11.2042C177.259 11.7523 177.441 11.8818 177.968 11.8775C182.547 11.8602 187.122 11.8516 191.701 11.8818C192.346 11.8818 192.484 11.666 192.467 11.0791C192.432 9.62903 192.449 8.17898 192.458 6.72892C192.462 5.83558 192.743 5.47738 193.414 5.49896C194.244 5.52054 194.361 6.09021 194.361 6.7505V18.8947C194.361 19.5377 194.261 20.1333 193.405 20.1247C192.575 20.116 192.449 19.5593 192.454 18.8904C192.458 17.4145 192.428 15.9342 192.467 14.4582C192.48 13.8713 192.281 13.7159 191.714 13.7246C189.44 13.7505 187.165 13.7375 184.891 13.7375V13.7289Z" fill="#100404"/>
<path d="M162.173 18.3509C165.009 18.3811 167.236 17.6518 169.056 15.8522C169.402 15.5112 169.779 15.2523 170.297 15.4638C171.007 15.7529 171.089 16.383 170.475 17.0476C169.156 18.4804 167.517 19.3781 165.64 19.8269C161.935 20.7073 158.424 20.3102 155.392 17.859C151.674 14.851 151.76 10.1685 155.496 7.18637C159.665 3.85901 166.812 4.23447 170.358 7.96319C170.808 8.43359 171.201 8.92126 170.583 9.49524C170.016 10.0217 169.51 9.74986 169.017 9.27083C165.818 6.15062 159.933 5.93483 156.491 8.78747C153.914 10.9237 153.905 14.2166 156.486 16.3485C158.229 17.7856 160.257 18.4027 162.173 18.3553V18.3509Z" fill="black"/>
<path d="M42.4361 10.7166C42.4361 11.8387 42.3972 12.9607 42.4448 14.0785C42.5529 16.5341 41.4459 18.351 39.232 19.1968C34.7956 20.8843 30.3073 20.9835 25.9703 18.7912C24.3315 17.9626 23.5142 16.4909 23.5013 14.6395C23.4796 11.9336 23.4969 9.22771 23.4883 6.5218C23.4883 5.90898 23.6439 5.41268 24.3574 5.36952C25.019 5.33068 25.3563 5.73635 25.3606 6.56927C25.3692 9.05508 25.4168 11.5452 25.3476 14.031C25.2957 15.8522 26.1389 16.9829 27.7431 17.6389C30.0911 18.6013 32.5514 18.5797 35.0204 18.3812C36.2225 18.2862 37.3987 18.0359 38.4926 17.4922C39.8331 16.8232 40.5898 15.8177 40.5682 14.2597C40.5379 11.6617 40.5509 9.06803 40.5682 6.47001C40.5725 5.53783 41.1908 5.12785 41.9475 5.49899C42.3583 5.70183 42.4318 6.05571 42.4275 6.45706V10.7209H42.4361V10.7166Z" fill="black"/>
<path d="M116.018 0.00508087H199.735C200.271 0.00508087 200.807 0.0223434 200.963 1.01494C201.127 2.0507 200.734 2.75415 199.925 2.76278C197.694 2.78435 119.922 2.80162 117.695 2.74983C117.068 2.73257 116.87 2.93972 116.874 3.90642C116.908 9.09814 116.891 14.2899 116.896 19.4859C116.896 20.0512 116.904 20.6252 116.601 21.0525C116.065 21.7991 115.226 21.4409 115.053 20.3792C114.984 19.9606 114.993 19.5075 114.993 19.0716C114.993 14.0395 114.967 9.00319 115.006 3.97116C115.015 2.93972 114.803 2.72825 114.132 2.74983C111.957 2.81456 109.782 2.78004 107.607 2.77141C107.132 2.77141 106.652 2.72825 106.479 1.8867C106.267 0.833684 106.613 0.0913937 107.43 0.039606C108.472 -0.0294443 109.523 0.0137122 110.565 0.00939652H116.018V0.00508087Z" fill="#586DE1"/>
<path d="M55.8828 37.9741C54.5813 37.9007 53.4268 37.5296 52.6398 36.3945C52.3847 36.0277 52.2074 35.6566 52.6571 35.3329C53.0939 35.0222 53.4009 35.2638 53.6906 35.6177C54.6073 36.7355 56.138 37.0635 57.18 36.3902C58.2308 35.7083 58.2308 34.2928 57.18 33.6153C56.6655 33.2786 56.0947 33.1319 55.485 33.0585C54.6202 32.955 53.8722 32.5795 53.2884 31.9278C52.5231 31.069 52.4798 30.098 52.9771 29.114C53.509 28.0653 54.4905 27.6079 55.5975 27.5949C56.7087 27.5777 57.7638 27.8755 58.5508 28.7645C58.8707 29.1227 59.0696 29.5499 58.7021 29.9297C58.2784 30.3699 57.9151 30.0203 57.6081 29.6794C56.8385 28.8249 55.9304 28.648 54.8667 29.0752C53.8376 29.4852 53.6473 30.5209 54.4689 31.2719C55.1218 31.8674 55.9909 31.8243 56.7606 32.0703C57.9281 32.4457 58.9442 32.9722 59.1864 34.3187C59.4199 35.6177 58.8967 36.852 57.8373 37.4864C57.2406 37.8446 56.5747 37.9956 55.8742 37.9741H55.8828Z" fill="#586DE1"/>
<path d="M96.69 12.7018V18.8473C96.69 19.4687 96.5127 19.9434 95.8122 19.9866C95.289 20.0168 94.8955 19.8183 94.8393 19.2314C94.8177 18.9854 94.8047 18.7437 94.8047 18.4977V6.45706C94.8047 5.82267 95.0641 5.36089 95.7473 5.37815C96.4046 5.39542 96.69 5.83561 96.69 6.47864V12.7061V12.7018Z" fill="#030000"/>
<path d="M117.826 34.1935C117.795 32.6701 116.814 31.7206 115.292 31.7552C113.951 31.7854 113.065 32.7952 113.095 34.2539C113.125 35.7817 114.042 36.6923 115.525 36.675C116.918 36.6577 117.852 35.6479 117.826 34.1935ZM115.408 37.9395C113.316 37.9265 111.755 36.2995 111.729 34.0986C111.707 32.1565 113.454 30.4648 115.482 30.4734C117.471 30.4821 119.144 32.1652 119.17 34.1806C119.196 36.2564 117.501 37.9524 115.408 37.9395Z" fill="#586DE1"/>
<path d="M124.328 34.1547C124.328 33.2786 124.315 32.4025 124.337 31.5308C124.341 31.2287 124.268 30.9179 124.661 30.6935C125.072 30.4562 125.284 30.6935 125.517 30.8964C125.716 31.069 125.807 31.0431 126.058 30.9223C128.345 29.8045 130.896 30.8575 131.087 33.8914C131.151 34.897 131.121 35.9111 131.112 36.9253C131.108 37.3785 131.026 37.8704 130.434 37.8575C129.889 37.8445 129.724 37.3914 129.716 36.9253C129.694 35.8594 129.72 34.7934 129.694 33.7274C129.664 32.519 128.851 31.7509 127.671 31.7724C126.386 31.794 125.651 32.519 125.643 33.7922C125.634 34.7761 125.643 35.7601 125.643 36.7441C125.643 37.2706 125.682 37.8704 124.912 37.8402C124.207 37.8143 124.35 37.2317 124.341 36.7872C124.328 35.9111 124.341 35.0394 124.341 34.1633H124.337L124.328 34.1547Z" fill="#586DE1"/>
<path d="M65.4315 34.228C65.4532 35.7342 66.4261 36.6966 67.9006 36.675C69.2756 36.6577 70.2615 35.6004 70.2442 34.1676C70.2269 32.7736 69.1848 31.7422 67.8011 31.7508C66.4174 31.7595 65.4142 32.8082 65.4359 34.228H65.4315ZM64.143 34.3316C64.0608 32.2385 65.6175 30.5727 67.7362 30.5036C69.3232 30.4518 71.4592 31.6084 71.4938 34.1762C71.5198 36.1657 70.002 37.8532 68.013 37.9438C66.3439 38.0215 64.0608 36.744 64.1387 34.3359H64.143V34.3316Z" fill="#586DE1"/>
<path d="M90.4705 34.2713C90.4705 35.1991 90.4619 36.127 90.4705 37.0592C90.4705 37.3829 90.4057 37.6332 90.0857 37.7928C89.7744 37.9482 89.5236 37.8144 89.3463 37.6289C89.1128 37.3872 88.9701 37.4174 88.6718 37.5555C86.1854 38.7164 83.7726 37.2232 83.6862 34.4784C83.6559 33.4686 83.6862 32.4587 83.6645 31.4489C83.6516 30.9267 83.9067 30.672 84.391 30.672C84.8493 30.672 85.0612 30.9482 85.0612 31.4186C85.0612 32.5364 85.0353 33.6585 85.0915 34.7762C85.1477 35.9328 85.7271 36.5154 86.8427 36.6578C87.8415 36.783 88.8923 36.2263 89.0955 35.3286C89.2339 34.7287 89.1604 34.0814 89.1733 33.4556C89.1863 32.7479 89.1993 32.0358 89.182 31.328C89.1733 30.8447 89.4068 30.59 89.8609 30.6116C90.2587 30.6289 90.4749 30.8706 90.4662 31.3194C90.4403 32.3034 90.4576 33.2873 90.4576 34.2713H90.4705Z" fill="#586DE1"/>
<path d="M139.117 37.961C138.058 37.9913 137.241 37.6244 136.518 37.0159C136.19 36.7397 136.03 36.4031 136.341 36.0363C136.653 35.6651 136.977 35.7558 137.31 36.0665C137.963 36.675 138.776 36.7742 139.606 36.6405C140.034 36.5714 140.553 36.4376 140.579 35.8378C140.605 35.2292 140.155 35.0955 139.679 34.9746C139.178 34.8495 138.685 34.6984 138.188 34.556C136.968 34.2064 136.333 33.5332 136.337 32.5967C136.346 31.6516 137.206 30.7194 138.335 30.5209C139.532 30.3094 140.605 30.6029 141.439 31.5264C141.664 31.7724 141.958 32.0184 141.578 32.4198C141.232 32.7866 140.955 32.765 140.6 32.4672C140.099 32.0443 139.597 31.6386 138.858 31.7422C138.335 31.8156 137.842 31.945 137.764 32.5104C137.677 33.1318 138.175 33.3174 138.693 33.4253C139.385 33.572 140.099 33.6454 140.739 33.9863C141.392 34.3316 141.924 34.7977 141.949 35.5788C141.98 36.4722 141.526 37.1842 140.743 37.5554C140.224 37.8014 139.658 38.0991 139.117 37.9567V37.961Z" fill="#586DE1"/>
<path d="M96.4166 34.0642C96.4166 33.7103 96.4037 33.3521 96.4166 32.9982C96.4426 32.4458 96.4599 31.9452 95.6513 32.0229C95.3572 32.0531 95.141 31.82 95.1367 31.5007C95.1367 31.1252 95.3572 30.8188 95.7118 30.8318C96.4123 30.8577 96.4383 30.4736 96.3907 29.96C96.3691 29.7183 96.3907 29.468 96.4123 29.2263C96.4426 28.7991 96.6372 28.4754 97.0955 28.4841C97.5106 28.4927 97.7009 28.7948 97.7138 29.2005C97.7138 29.3083 97.7398 29.4205 97.7225 29.5284C97.5884 30.452 97.8349 30.9742 98.9202 30.8231C99.3051 30.7713 99.6769 30.9958 99.6553 31.4964C99.6294 31.9625 99.2878 32.0488 98.9029 32.0531C98.6824 32.0531 98.4662 32.0704 98.2457 32.0531C97.8609 32.0315 97.6965 32.1912 97.7182 32.5796C97.7744 33.5549 97.6533 34.5346 97.8565 35.5142C97.9819 36.14 98.2673 36.3903 98.8511 36.4896C99.357 36.5759 100.135 36.5716 99.9234 37.3656C99.7332 38.0734 99.0283 37.9439 98.4662 37.7929C97.1431 37.439 96.4901 36.5931 96.4296 35.1992C96.4123 34.8194 96.4296 34.4353 96.4296 34.0512H96.4166V34.0642Z" fill="#586DE1"/>
<path d="M76.4053 32.1264V28.6006C76.4053 28.1172 76.5652 27.7978 77.0928 27.7763C77.7025 27.7504 77.7198 28.1776 77.7198 28.6092C77.7198 30.8231 77.7327 33.0414 77.7198 35.2553C77.7198 35.9803 77.8538 36.5586 78.7359 36.6492C79.0818 36.6838 79.2764 36.9556 79.2115 37.2923C79.138 37.6807 78.8527 37.8749 78.4376 37.8878C77.3479 37.918 76.4615 36.96 76.4139 35.6609C76.3923 35.0611 76.4139 34.4569 76.4139 33.857V32.1351L76.4053 32.1264Z" fill="#586DE1"/>
<path d="M106.409 33.8915C106.418 34.9834 106.457 36.0709 106.31 37.1584C106.258 37.5555 106.145 37.8921 105.7 37.8662C105.272 37.8403 105.013 37.5512 105.013 37.098C105.013 35.1603 105.013 33.2226 105.004 31.2892C105.004 30.8274 105.294 30.6073 105.648 30.5987C106.029 30.59 106.405 30.7756 106.405 31.2719C106.409 32.1437 106.405 33.0197 106.405 33.8915H106.409Z" fill="#586DE1"/>
<path d="M105.696 28.1086C106.189 28.1302 106.56 28.3719 106.543 28.8768C106.526 29.3472 106.219 29.6364 105.674 29.6191C105.19 29.6019 104.917 29.4465 104.909 28.9114C104.896 28.346 105.155 28.1086 105.696 28.113V28.1086Z" fill="#586DE1"/>
<path d="M26.0387 33.0707H48.2463C48.836 33.0707 49.4257 33.0841 49.5987 33.7847C49.7795 34.5166 49.3471 35.0165 48.4547 35.0209C45.9977 35.0343 30.3434 35.0477 27.8864 35.012C27.1944 35.0031 24.6942 34.9942 23.9551 35.012C21.557 35.0566 3.8821 35.0343 1.48403 35.0254C0.957241 35.0254 0.430453 34.9942 0.241753 34.4006C0.00587727 33.6553 0.39114 33.1287 1.2914 33.093C2.44326 33.0439 18.8759 33.0751 20.0278 33.0707H26.0387Z" fill="#586DE1"/>
<path d="M200.79 26.1752V34.2929C200.79 34.8237 200.777 35.3545 200.098 35.5142C199.389 35.6782 198.905 35.2898 198.9 34.4828C198.887 32.2688 198.874 30.0549 198.909 27.841C198.918 27.2152 198.926 24.9625 198.909 24.3022C198.866 22.1443 198.887 19.9822 198.896 17.8244C198.896 17.3497 198.926 16.8749 199.501 16.7066C200.223 16.4952 200.734 16.8404 200.768 17.6518C200.816 18.6875 200.786 19.7276 200.79 20.7677V26.1795V26.1752Z" fill="#586DE1"/>
<path d="M174.72 33.801H199.147C199.795 33.801 200.444 33.8139 200.634 34.4915C200.833 35.1992 200.358 35.6826 199.376 35.6869C196.673 35.6998 179.455 35.7128 176.753 35.6783C175.992 35.6696 173.242 35.661 172.429 35.6783C169.791 35.7214 150.35 35.6998 147.713 35.6912C147.133 35.6912 146.554 35.661 146.346 35.087C146.087 34.3663 146.511 33.8571 147.501 33.8225C148.768 33.7751 166.842 33.8053 168.109 33.801H174.72Z" fill="#586DE1"/>
<path d="M68.7987 36.2478C69.9928 36.2478 70.9607 35.2817 70.9607 34.09C70.9607 32.8982 69.9928 31.9321 68.7987 31.9321C67.6047 31.9321 66.6367 32.8982 66.6367 34.09C66.6367 35.2817 67.6047 36.2478 68.7987 36.2478Z" fill="#586DE1"/>
<path d="M116.363 36.2478C117.557 36.2478 118.525 35.2817 118.525 34.09C118.525 32.8982 117.557 31.9321 116.363 31.9321C115.169 31.9321 114.201 32.8982 114.201 34.09C114.201 35.2817 115.169 36.2478 116.363 36.2478Z" fill="#586DE1"/>
<path d="M19.8784 13.9016C19.8784 15.0366 19.8827 16.1716 19.8784 17.3066C19.8611 20.0341 18.6893 21.6913 16.0516 22.6796C13.1588 23.7671 10.1536 23.7455 7.13547 23.4348C5.42315 23.2579 3.79732 22.7788 2.36607 21.7949C1.05157 20.8929 0.338105 19.6586 0.242976 18.092C0.208384 17.5094 0.242976 16.9484 1.02995 16.8621C1.7953 16.7801 2.1196 17.1814 2.15852 17.8806C2.2277 19.253 3.06224 20.0945 4.2427 20.6944C5.34532 21.2511 6.54308 21.4885 7.76245 21.6007C10.0412 21.8164 12.307 21.7992 14.5339 21.195C17.085 20.5045 17.9715 19.3522 17.9628 16.7844C17.9585 14.4324 17.9585 6.35782 17.9628 4.00579C17.9628 3.11245 18.2741 2.68952 18.9271 2.73699C19.74 2.79741 19.9 3.34118 19.8913 4.02737C19.8697 5.41269 19.8827 12.5162 19.8827 13.8972L19.8784 13.9016Z" fill="#586DE1"/>
<path d="M10.111 2.47381C12.9259 2.47381 15.7409 2.47381 18.5601 2.47381C19.1136 2.47381 19.6671 2.48675 19.8314 3.1902C20 3.92386 19.5979 4.42448 18.759 4.43311C16.4543 4.44605 14.1496 4.46332 11.8492 4.42448C11.2006 4.41153 8.85701 4.40721 8.16517 4.42448C5.921 4.47195 3.67251 4.44605 1.42402 4.43742C0.931078 4.43742 0.438139 4.40721 0.260854 3.80734C0.0403291 3.06073 0.399223 2.52991 1.24673 2.49538C2.32341 2.44791 3.40874 2.47812 4.48975 2.47381C6.36637 2.47381 8.243 2.47381 10.1196 2.47381H10.111Z" fill="#586DE1"/>
<path d="M2.15416 7.95909C2.15416 9.50841 2.15416 11.062 2.15416 12.6114C2.15416 12.9178 2.14119 13.2199 1.43638 13.3105C0.701292 13.4054 0.199706 13.181 0.191058 12.7192C0.178086 11.4504 0.16079 10.1816 0.199706 8.91285C0.212678 8.55465 0.217002 7.26427 0.199706 6.88449C0.152142 5.64591 0.178086 4.41163 0.186734 3.17304C0.186734 2.90116 0.217002 2.62927 0.818041 2.53001C1.5661 2.40917 2.09795 2.60769 2.13254 3.07378C2.18011 3.66934 2.14984 4.2649 2.15416 4.86046C2.15416 5.89621 2.15416 6.92765 2.15416 7.96341V7.95909Z" fill="#586DE1"/>
<path d="M4.1005 11.5538C4.10915 12.2098 4.53291 12.6284 5.17286 12.6198C5.76958 12.6112 6.20198 12.1537 6.19333 11.5279C6.18468 10.9238 5.73066 10.4706 5.12962 10.4749C4.52858 10.4749 4.09186 10.9367 4.1005 11.5538ZM3.53838 11.6013C3.50379 10.6907 4.17834 9.96569 5.10368 9.93548C5.79552 9.9139 6.72086 10.4188 6.73816 11.5323C6.75113 12.3954 6.08955 13.1334 5.22475 13.1722C4.49831 13.2067 3.50379 12.65 3.53838 11.6013Z" fill="#586DE1"/>
<path d="M5.56568 12.4344C6.08629 12.4344 6.50832 12.0131 6.50832 11.4935C6.50832 10.9739 6.08629 10.5527 5.56568 10.5527C5.04508 10.5527 4.62305 10.9739 4.62305 11.4935C4.62305 12.0131 5.04508 12.4344 5.56568 12.4344Z" fill="#586DE1"/>
<path d="M14.6376 11.5538C14.6463 12.2098 15.07 12.6284 15.71 12.6198C16.3067 12.6112 16.7391 12.1537 16.7304 11.5279C16.7218 10.9238 16.2678 10.4706 15.6667 10.4749C15.0657 10.4749 14.629 10.9367 14.6376 11.5538ZM14.0755 11.6013C14.0409 10.6907 14.7154 9.96569 15.6408 9.93548C16.3326 9.9139 17.258 10.4188 17.2753 11.5323C17.2882 12.3954 16.6267 13.1334 15.7619 13.1722C15.0354 13.2067 14.0409 12.65 14.0755 11.6013Z" fill="#586DE1"/>
<path d="M16.1028 12.4947C16.6234 12.4947 17.0454 12.0734 17.0454 11.5538C17.0454 11.0343 16.6234 10.613 16.1028 10.613C15.5822 10.613 15.1602 11.0343 15.1602 11.5538C15.1602 12.0734 15.5822 12.4947 16.1028 12.4947Z" fill="#586DE1"/>
</svg>
