<svg width="1609" height="1636" viewBox="0 0 1609 1636" fill="none" xmlns="http://www.w3.org/2000/svg">
<g filter="url(#filter0_d_229_292)">
<path d="M1528.2 28C1543.72 28.0001 1556.3 40.5834 1556.3 56.1055V1529.89C1556.3 1545.42 1543.72 1558 1528.2 1558H81.1055C65.5832 1558 53 1545.42 53 1529.89V56.1055C53.0002 40.5834 65.5833 28.0001 81.1055 28H1528.2ZM91.4834 123.199C75.9612 123.199 63.3779 135.782 63.3779 151.305V1508.53C63.3779 1524.06 75.9612 1536.64 91.4834 1536.64H1517.82C1533.34 1536.64 1545.92 1524.06 1545.92 1508.53V151.305C1545.92 135.782 1533.34 123.199 1517.82 123.199H91.4834Z" fill="white" fill-opacity="0.85" shape-rendering="crispEdges"/>
</g>
<circle cx="1413.43" cy="75.4257" r="12.4257" fill="url(#paint0_linear_229_292)"/>
<circle cx="1456.92" cy="75.4257" r="12.4257" fill="url(#paint1_linear_229_292)"/>
<circle cx="1500.41" cy="75.4257" r="12.4257" fill="url(#paint2_linear_229_292)"/>
<defs>
<filter id="filter0_d_229_292" x="0.900002" y="0.900002" width="1607.5" height="1634.2" filterUnits="userSpaceOnUse" color-interpolation-filters="sRGB">
<feFlood flood-opacity="0" result="BackgroundImageFix"/>
<feColorMatrix in="SourceAlpha" type="matrix" values="0 0 0 0 0 0 0 0 0 0 0 0 0 0 0 0 0 0 127 0" result="hardAlpha"/>
<feOffset dy="25"/>
<feGaussianBlur stdDeviation="26.05"/>
<feComposite in2="hardAlpha" operator="out"/>
<feColorMatrix type="matrix" values="0 0 0 0 0 0 0 0 0 0 0 0 0 0 0 0 0 0 0.08 0"/>
<feBlend mode="normal" in2="BackgroundImageFix" result="effect1_dropShadow_229_292"/>
<feBlend mode="normal" in="SourceGraphic" in2="effect1_dropShadow_229_292" result="shape"/>
</filter>
<linearGradient id="paint0_linear_229_292" x1="1400.19" y1="62.9073" x2="1426.29" y2="66.5486" gradientUnits="userSpaceOnUse">
<stop stop-color="#0B1E54"/>
<stop offset="1" stop-color="#4FABFF"/>
</linearGradient>
<linearGradient id="paint1_linear_229_292" x1="1443.68" y1="62.9073" x2="1469.78" y2="66.5486" gradientUnits="userSpaceOnUse">
<stop stop-color="#0B1E54"/>
<stop offset="1" stop-color="#4FABFF"/>
</linearGradient>
<linearGradient id="paint2_linear_229_292" x1="1487.17" y1="62.9073" x2="1513.27" y2="66.5486" gradientUnits="userSpaceOnUse">
<stop stop-color="#0B1E54"/>
<stop offset="1" stop-color="#4FABFF"/>
</linearGradient>
</defs>
</svg>
