<?xml version="1.0" encoding="utf-8"?>
<svg width="182.45654px" height="40.175232px" viewBox="0 0 182.45654 40.175232" version="1.1" xmlns:xlink="http://www.w3.org/1999/xlink" xmlns="http://www.w3.org/2000/svg">
  <g id="Logo" fill-opacity="1" transform="translate(0 0.043506622)">
    <path d="M-7488.59 -15.9566L-7488.59 -15.9566L-7488.59 24.1305L-7671.04 24.1305L-7671.04 -15.9566L-7488.59 -15.9566Z" id="Logo" fill="none" stroke="none" />
    <g id="logo" transform="translate(0.043341376 -0.043506775)">
      <g id="Group-50">
        <g id="Group-5" transform="matrix(0 1 -1 0 39.88009 0)">
          <path d="M6.56362 7.08552L6.68918 7.02937C8.71803 6.13099 10.8041 5.64879 16.2529 5.63892L23.7529 5.63892C29.442 5.63892 31.5209 6.14148 33.6116 7.08552C35.7026 8.02956 37.3432 9.41476 38.4615 11.1797L38.528 11.2859C39.3513 12.6109 39.8784 13.9696 40.0807 16.6444C40.1369 15.9385 40.1696 15.1413 40.1745 14.2145L40.1752 13.1175C40.1752 8.66416 39.6033 6.98032 38.528 5.34306L38.4615 5.24249C37.3432 3.57253 35.7026 2.26199 33.6116 1.36854C31.5209 0.475412 29.442 0 23.7529 0L16.2529 0C10.8041 0.00925526 8.71803 0.46554 6.68918 1.31548L6.56362 1.36854C4.47292 2.26199 2.83194 3.57253 1.71371 5.24249C0.595478 6.91276 0 8.57346 0 13.1175L0 14.081C0.00279713 15.0614 0.0351195 15.8999 0.0938592 16.6379C0.301779 13.894 0.852503 12.539 1.71371 11.1797C2.83194 9.41476 4.47292 8.02956 6.56362 7.08552" id="Fill-1" fill="#0000FF" fill-rule="evenodd" stroke="none" />
          <path d="M33.6116 32.7943L33.4861 32.8504C31.4361 33.758 29.328 34.2409 23.753 34.2409L16.4223 34.2409L16.0854 34.2402C10.6503 34.2205 8.61273 33.7195 6.56368 32.7943C4.47267 31.8502 2.832 30.465 1.71377 28.7L1.64726 28.5939C0.823661 27.2689 0.296869 25.9087 0.094543 23.2333C0.0330061 24.007 6.21584e-05 24.8918 6.21584e-05 25.9343L6.21584e-05 26.8977C0.0118723 31.2499 0.582797 32.9161 1.64726 34.5367L1.71377 34.637C2.832 36.3073 4.47267 37.6178 6.56368 38.5112C8.61273 39.3865 10.6503 39.8607 16.0854 39.8792L16.4223 39.8801L23.753 39.8801C29.328 39.8801 31.4361 39.4232 33.4861 38.564L33.6116 38.5112C35.7023 37.6178 37.3433 36.3073 38.4615 34.637C39.5574 33.0003 40.1513 31.373 40.1746 27.0316L40.1752 25.9343C40.1752 24.8909 40.1426 24.0042 40.0808 23.2299C39.8731 25.9787 39.3233 27.3395 38.4615 28.7C37.3433 30.465 35.7023 31.8502 33.6116 32.7943" id="Fill-3" fill="#FF0000" fill-rule="evenodd" stroke="none" />
          <path d="M0.0939214 16.638C0.031763 17.4571 6.21584e-05 18.3983 6.21584e-05 19.5022L6.21584e-05 20.5206C0.0025485 21.5615 0.0354925 22.4506 0.094543 23.2333C0.207671 21.8163 0.42305 20.7881 0.735086 19.94C0.422429 19.09 0.20705 18.0593 0.0939214 16.638" id="Fill-6" fill="#00FF00" fill-rule="evenodd" stroke="none" />
          <path d="M40.1752 19.5023C40.1752 18.3997 40.1426 17.4628 40.0807 16.6443C39.9676 18.0622 39.7525 19.092 39.4405 19.9404C39.7522 20.7879 39.9676 21.8146 40.0807 23.23C40.137 22.4837 40.1696 21.6415 40.1746 20.662L40.1752 19.5023Z" id="Fill-8" fill="#00FF00" fill-rule="evenodd" stroke="none" />
          <path d="M1.71371 18.0595C2.83194 16.3896 4.47292 15.0787 6.56362 14.1856L6.68918 14.1325C8.71803 13.2823 10.8041 12.826 16.2529 12.8167L23.7529 12.8167C29.442 12.8167 31.5209 13.2925 33.6116 14.1856C35.7026 15.0787 37.3432 16.3896 38.4615 18.0595L38.528 18.1598C38.8907 18.7123 39.1949 19.2729 39.4405 19.9405C39.7525 19.0921 39.9676 18.0623 40.0807 16.6444C39.8784 13.9696 39.3513 12.611 38.528 11.2856L38.4615 11.1798C37.3432 9.41482 35.7026 8.02962 33.6116 7.08558C31.5209 6.14154 29.442 5.63898 23.7529 5.63898L16.2529 5.63898C10.8041 5.64886 8.71803 6.13106 6.68918 7.02943L6.56362 7.08558C4.47292 8.02962 2.83194 9.41482 1.71371 11.1798C0.852503 12.5391 0.301779 13.8941 0.0938592 16.6379C0.206988 18.0592 0.422367 19.0903 0.735023 19.9399C0.995467 19.2322 1.3218 18.6451 1.71371 18.0595" id="Fill-10" fill="#03FFFF" fill-rule="evenodd" stroke="none" />
          <path d="M38.4615 21.8202C37.3433 23.4905 35.7023 24.801 33.6116 25.6941L33.4861 25.7472C31.4361 26.6061 29.328 27.063 23.753 27.063L16.4223 27.063L16.0854 27.0624C10.6503 27.0439 8.61273 26.5694 6.56368 25.6941C4.47267 24.801 2.832 23.4905 1.71377 21.8202L1.64726 21.7199C1.28457 21.1677 0.980611 20.6071 0.735086 19.9398C0.42305 20.7879 0.207982 21.8162 0.094543 23.2332C0.296869 25.9086 0.823661 27.2688 1.64726 28.5941L1.71377 28.7C2.832 30.4649 4.47267 31.8501 6.56368 32.7942C8.61273 33.7194 10.6503 34.2207 16.0854 34.2402L16.4223 34.2408L23.753 34.2408C29.328 34.2408 31.4361 33.7583 33.4861 32.8503L33.6116 32.7942C35.7023 31.8501 37.3433 30.4649 38.4615 28.7C39.3234 27.3394 39.8731 25.9786 40.0808 23.2301C39.9676 21.8147 39.7522 20.7879 39.4405 19.9405C39.1801 20.6482 38.8534 21.2347 38.4615 21.8202" id="Fill-12" fill="#FFFF00" fill-rule="evenodd" stroke="none" />
          <path d="M38.4615 18.0595C37.3433 16.3896 35.7023 15.0787 33.6116 14.1856C31.5206 13.2925 29.4417 12.8167 23.753 12.8167L16.2526 12.8167C10.8041 12.826 8.71809 13.2823 6.68924 14.1325L6.56368 14.1856C4.47267 15.0787 2.832 16.3896 1.71377 18.0595C1.32186 18.6451 0.995529 19.2322 0.735086 19.9399C0.980611 20.6072 1.28457 21.1678 1.64726 21.72L1.71377 21.8203C2.832 23.4902 4.47267 24.8011 6.56368 25.6942C8.61273 26.5695 10.6503 27.0436 16.0854 27.0624L16.4223 27.0631L23.753 27.0631C29.328 27.0631 31.4361 26.6062 33.486 25.7473L33.6116 25.6942C35.7023 24.8011 37.3433 23.4902 38.4615 21.8203C38.8534 21.2347 39.1801 20.6482 39.4405 19.9405C39.195 19.2729 38.8907 18.7124 38.528 18.1598L38.4615 18.0595Z" id="Fill-14" fill="#FFFFFF" fill-rule="evenodd" stroke="none" />
        </g>
        <path d="M55.7693 22.2143L58.9636 22.2143L58.9636 15.3357L64.6941 15.3357L64.6941 12.132L58.9636 12.132L58.9636 8.45748L66.1034 8.45748L66.1034 5.25373L55.7693 5.25373L55.7693 22.2143Z" id="Fill-16" fill="#000000" fill-rule="evenodd" stroke="none" />
        <path d="M73.3372 9.46432C72.9535 9.49192 72.5816 9.55859 72.2217 9.66465C71.8615 9.7704 71.5288 9.9177 71.2233 10.1062C70.8242 10.3416 70.4874 10.6403 70.2135 11.0012C70.0833 11.1727 69.9665 11.3538 69.861 11.543L69.861 9.49378L67.0428 9.49378L67.0428 22.2142L70.2605 22.2142L70.2605 15.7124C70.2605 15.2259 70.327 14.788 70.4599 14.3994C70.5932 14.0105 70.7889 13.6731 71.0474 13.3863C71.3056 13.1001 71.6228 12.8703 71.9985 12.6975C72.3741 12.517 72.7949 12.4088 73.2609 12.3735C73.7265 12.3384 74.1359 12.3756 74.488 12.4854L74.488 9.49378C74.1043 9.44664 73.7206 9.43672 73.3372 9.46432" id="Fill-18" fill="#000000" fill-rule="evenodd" stroke="none" />
        <path d="M82.4499 18.3509C82.3636 18.5317 82.2013 18.7556 81.9626 19.0223C81.7236 19.2893 81.4026 19.5269 80.9998 19.735C80.5963 19.943 80.1013 20.0472 79.5141 20.0472C79.1459 20.0472 78.8289 19.9924 78.5627 19.882C78.2965 19.7725 78.0912 19.6131 77.9465 19.405C77.8012 19.1972 77.7292 18.9479 77.7292 18.657C77.7292 18.4452 77.774 18.2529 77.864 18.0802C77.9539 17.9075 78.0949 17.7487 78.2869 17.6033C78.4786 17.4578 78.7312 17.3226 79.0441 17.1967C79.3184 17.0947 79.6353 17.0007 79.9955 16.9139C80.3557 16.8277 80.8294 16.7315 81.4165 16.6258C81.7919 16.5579 82.2492 16.4785 82.7717 16.3898C82.7652 16.6137 82.7544 16.8627 82.7377 17.1437C82.7102 17.6033 82.6143 18.0058 82.4499 18.3509M85.4326 11.4488C84.9864 10.601 84.3288 10.0043 83.46 9.65885C82.5908 9.31308 81.5965 9.14035 80.4769 9.14035C78.9505 9.14035 77.7446 9.46999 76.86 10.1296C75.9754 10.7892 75.3725 11.6454 75.0516 12.6976L77.9406 13.6162C78.1441 13.035 78.5003 12.631 79.0092 12.403C79.5178 12.1754 80.0073 12.0616 80.4769 12.0616C81.3225 12.0616 81.9252 12.238 82.2854 12.5916C82.5676 12.8685 82.7377 13.2704 82.7986 13.7936C82.26 13.8745 81.7461 13.9511 81.2638 14.0224C80.4417 14.1446 79.7058 14.2721 79.0559 14.4051C78.406 14.5387 77.8463 14.6919 77.3767 14.8647C76.6958 15.1159 76.1535 15.4281 75.7504 15.8009C75.3469 16.174 75.0553 16.6038 74.8753 17.091C74.6951 17.5778 74.6054 18.1153 74.6054 18.7045C74.6054 19.4112 74.7677 20.0572 75.0927 20.642C75.4174 21.2269 75.8951 21.6942 76.5255 22.0434C77.1553 22.3926 77.9246 22.5678 78.833 22.5678C79.929 22.5678 80.8353 22.3771 81.5517 21.9963C82.1162 21.6961 82.6502 21.2455 83.1545 20.6498L83.1545 22.2143L85.9492 22.2143L85.9492 14.4408C85.9492 13.8596 85.9258 13.3334 85.8788 12.8623C85.8318 12.3912 85.683 11.9202 85.4326 11.4488" id="Fill-20" fill="#000000" fill-rule="evenodd" stroke="none" />
        <path d="M101.896 9.18755C101.051 9.18755 100.282 9.37423 99.5887 9.74698C98.9421 10.0952 98.4236 10.5768 98.0226 11.1812C97.7221 10.6327 97.313 10.1762 96.7822 9.82358C96.1443 9.39966 95.328 9.18755 94.334 9.18755C93.4649 9.18755 92.6798 9.38012 91.9792 9.76466C91.4428 10.0593 90.9917 10.4354 90.6231 10.891L90.6231 9.49362L87.8046 9.49362L87.8046 22.2144L91.0223 22.2144L91.0223 14.5112C91.0223 13.7812 91.2236 13.1864 91.6271 12.7268C92.0302 12.2676 92.5645 12.0378 93.2299 12.0378C93.9268 12.0378 94.4728 12.2716 94.8683 12.7386C95.2634 13.206 95.4613 13.8594 95.4613 14.6998L95.4613 22.2144L98.6555 22.2144L98.6555 14.5112C98.6555 14.0246 98.7471 13.5945 98.9313 13.2218C99.115 12.8487 99.3716 12.5581 99.7003 12.3501C100.029 12.142 100.417 12.0378 100.863 12.0378C101.56 12.0378 102.106 12.2716 102.501 12.7386C102.896 13.206 103.094 13.8594 103.094 14.6998L103.094 22.2144L106.288 22.2144L106.288 13.8516C106.288 12.462 105.919 11.3372 105.178 10.4773C104.439 9.61767 103.345 9.18755 101.896 9.18755" id="Fill-22" fill="#000000" fill-rule="evenodd" stroke="none" />
        <path d="M113.781 11.9201C114.712 11.9201 115.383 12.2048 115.795 12.7741C116.065 13.1481 116.244 13.6824 116.337 14.37L110.753 14.37C110.879 13.7826 111.085 13.2954 111.379 12.9152C111.892 12.2519 112.692 11.9201 113.781 11.9201M117.034 10.0827C116.102 9.45471 114.971 9.14025 113.64 9.14025C112.387 9.14025 111.279 9.42494 110.316 9.9943C109.353 10.5637 108.598 11.3625 108.05 12.3915C107.502 13.4201 107.228 14.6289 107.228 16.0191C107.228 17.2909 107.507 18.42 108.067 19.4052C108.627 20.3904 109.402 21.1642 110.392 21.7255C111.383 22.2868 112.528 22.5677 113.827 22.5677C115.049 22.5677 116.174 22.2455 117.204 21.602C118.233 20.9583 118.987 20.0549 119.464 18.8926L116.27 17.9741C116.035 18.4923 115.694 18.8892 115.248 19.1636C114.802 19.4387 114.266 19.5758 113.64 19.5758C112.645 19.5758 111.892 19.2523 111.379 18.6042C111.004 18.1304 110.768 17.5111 110.667 16.7491L116.411 16.7491L118.032 16.7491L119.57 16.7491C119.703 15.21 119.546 13.8713 119.1 12.7329C118.654 11.5942 117.965 10.711 117.034 10.0827" id="Fill-24" fill="#000000" fill-rule="evenodd" stroke="none" />
        <path d="M134.449 9.49372L132.147 17.079L129.81 9.49372L127.156 9.49372L124.819 17.079L122.517 9.49372L119.394 9.47015L123.269 22.2144L125.711 22.2144L128.483 13.9224L131.254 22.2144L133.697 22.2144L137.572 9.49372L134.449 9.49372Z" id="Fill-26" fill="#000000" fill-rule="evenodd" stroke="none" />
        <path d="M146.045 18.5336C145.54 19.2285 144.775 19.5758 143.749 19.5758C142.755 19.5758 142.002 19.2403 141.489 18.5689C140.976 17.8975 140.719 16.9926 140.719 15.8539C140.719 15.1158 140.827 14.4683 141.043 13.9107C141.258 13.3532 141.589 12.9175 142.035 12.6033C142.481 12.2892 143.052 12.132 143.749 12.132C144.759 12.132 145.521 12.4697 146.033 13.1451C146.546 13.8205 146.802 14.7232 146.802 15.8539C146.802 16.9455 146.55 17.8386 146.045 18.5336M147.114 10.0003C146.147 9.42717 145.025 9.14032 143.749 9.14032C142.497 9.14032 141.389 9.42314 140.426 9.98847C139.463 10.5538 138.708 11.3412 138.16 12.3503C137.611 13.3591 137.338 14.5272 137.338 15.8539C137.338 17.1657 137.606 18.3255 138.142 19.3346C138.678 20.3437 139.428 21.1348 140.391 21.7079C141.354 22.2809 142.473 22.5678 143.749 22.5678C145.018 22.5678 146.135 22.2831 147.102 21.7137C148.069 21.1444 148.824 20.3555 149.368 19.3464C149.913 18.3373 150.185 17.1731 150.185 15.8539C150.185 14.5428 149.915 13.3826 149.375 12.3735C148.834 11.3647 148.081 10.5733 147.114 10.0003" id="Fill-28" fill="#000000" fill-rule="evenodd" stroke="none" />
        <path d="M157.888 9.46432C157.505 9.49192 157.133 9.55859 156.773 9.66465C156.413 9.7704 156.08 9.9177 155.774 10.1062C155.375 10.3416 155.038 10.6403 154.764 11.0012C154.634 11.1727 154.518 11.3538 154.412 11.5433L154.412 9.49378L151.594 9.49378L151.594 22.2142L154.812 22.2142L154.812 15.7124C154.812 15.2259 154.878 14.788 155.011 14.3994C155.144 14.0105 155.34 13.6731 155.598 13.3863C155.857 13.1001 156.174 12.8703 156.549 12.6975C156.925 12.517 157.346 12.4088 157.812 12.3735C158.278 12.3384 158.687 12.3756 159.039 12.4854L159.039 9.49378C158.655 9.44664 158.272 9.43672 157.888 9.46432" id="Fill-30" fill="#000000" fill-rule="evenodd" stroke="none" />
        <path d="M171.581 9.49372L167.635 9.49372L163.337 15.6184L163.337 5.25358L160.096 5.25358L160.072 22.2144L163.337 22.2144L163.337 16.0898L167.729 22.2144L171.886 22.2144L167.001 15.8541L171.581 9.49372Z" id="Fill-32" fill="#000000" fill-rule="evenodd" stroke="none" />
        <path d="M181.515 16.6844C181.249 16.2174 180.824 15.8167 180.241 15.483C179.658 15.1494 178.885 14.8569 177.922 14.6054C176.935 14.3542 176.201 14.1502 175.72 13.993C175.238 13.836 174.921 13.6828 174.769 13.5337C174.616 13.3845 174.54 13.2003 174.54 12.9801C174.54 12.6111 174.718 12.3283 175.074 12.132C175.43 11.9357 175.902 11.8575 176.489 11.8966C177.092 11.9437 177.569 12.1047 177.922 12.3795C178.274 12.6545 178.477 13.0273 178.533 13.4986L181.797 12.9094C181.687 12.14 181.396 11.4724 180.922 10.907C180.449 10.3417 179.828 9.90601 179.061 9.59962C178.294 9.29354 177.413 9.14035 176.419 9.14035C175.393 9.14035 174.502 9.30347 173.747 9.62908C172.992 9.95532 172.406 10.4183 171.991 11.019C171.576 11.6197 171.369 12.3283 171.369 13.1451C171.369 13.7967 171.506 14.3521 171.78 14.8116C172.054 15.2709 172.5 15.6657 173.119 15.9953C173.737 16.3253 174.563 16.6236 175.596 16.8906C176.513 17.1341 177.188 17.3304 177.622 17.4792C178.057 17.6287 178.337 17.7797 178.462 17.9329C178.587 18.0861 178.65 18.2883 178.65 18.5395C178.65 18.9398 178.493 19.2521 178.18 19.476C177.867 19.6996 177.421 19.8116 176.842 19.8116C176.137 19.8116 175.556 19.6429 175.097 19.3051C174.64 18.9674 174.344 18.5001 174.211 17.9034L170.946 18.3981C171.158 19.7253 171.755 20.7518 172.737 21.4781C173.719 22.2047 175.009 22.5678 176.607 22.5678C178.266 22.5678 179.566 22.1951 180.505 21.4486C181.444 20.7028 181.914 19.6779 181.914 18.3745C181.914 17.7149 181.781 17.1517 181.515 16.6844" id="Fill-34" fill="#000000" fill-rule="evenodd" stroke="none" />
        <g id="Group-49" transform="translate(55.769 25.512564)">
          <path d="M3.96936 6.0528C3.86239 6.34554 3.69821 6.57781 3.47683 6.74868C3.25576 6.91955 2.9744 7.00515 2.63367 7.00515C2.28181 7.00515 1.99798 6.92421 1.78216 6.76233C1.56635 6.60045 1.40835 6.37407 1.3088 6.08288C1.20893 5.79168 1.15915 5.45521 1.15915 5.07316C1.15915 4.68769 1.20893 4.35029 1.3088 4.06096C1.40835 3.77162 1.56357 3.54617 1.77382 3.3843C1.98437 3.22242 2.25615 3.14148 2.59007 3.14148C2.94193 3.14148 3.23195 3.228 3.46075 3.40073C3.68893 3.57346 3.85775 3.80636 3.96658 4.0991C4.07542 4.39216 4.12983 4.71684 4.12983 5.07316C4.12983 5.43351 4.07634 5.76005 3.96936 6.0528M5.18015 3.47702C4.95506 3.00968 4.63845 2.64003 4.23063 2.369C3.8225 2.09827 3.34078 1.96275 2.78579 1.96275C2.2274 1.96275 1.75836 2.09827 1.37929 2.369C1.35919 2.38357 1.34188 2.40156 1.32209 2.41644L1.32209 0.16163L0 0.16163L0 8.02014L1.15915 8.02014L1.15915 7.5835C1.23335 7.6508 1.30972 7.71623 1.3929 7.77453C1.78124 8.04743 2.26172 8.18388 2.83495 8.18388C3.37541 8.18388 3.84693 8.04743 4.24949 7.77453C4.65205 7.50163 4.96403 7.13074 5.1854 6.66123C5.40647 6.19204 5.51747 5.66268 5.51747 5.07316C5.51747 4.47651 5.40493 3.94467 5.18015 3.47702" id="Fill-36" fill="#000000" fill-rule="evenodd" stroke="none" />
          <path d="M9.73957 2.1263L8.14292 6.3438L6.50205 2.1263L5.13637 2.1263L7.51186 7.97902L6.54565 10.6395L7.77529 10.6395L11.0508 2.1263L9.73957 2.1263Z" id="Fill-38" fill="#000000" fill-rule="evenodd" stroke="none" />
          <path d="M14.2594 7.97756L12.4682 2.08546L13.7492 2.09663L14.8944 5.87005L16.0564 2.09663L17.1583 2.09663L18.3147 5.87005L19.4658 2.09663L20.7471 2.09663L18.9556 7.97756L17.9347 7.97756L16.6049 3.93155L15.2803 7.97756L14.2594 7.97756Z" id="Fill-40" fill="#000000" fill-rule="evenodd" stroke="none" />
          <path d="M21.0727 7.97759L22.3809 7.97759L22.3809 2.09666L21.0727 2.09666L21.0727 7.97759ZM21.0727 1.20323L22.3809 1.20323L22.3809 0L21.0727 0L21.0727 1.20323Z" id="Fill-42" fill="#000000" fill-rule="evenodd" stroke="none" />
          <path d="M32.8572 2.09656L28.3344 2.09656L28.3344 3.24552L30.8215 3.24552L27.7179 7.79515L27.7179 6.82854L24.7534 6.82854L27.8477 2.2817L27.8477 2.09656L23.0216 2.09656L23.0216 3.24552L25.812 3.24552L22.7065 7.79763L22.7065 7.9775L27.716 7.9775L27.7179 7.9775L32.7273 7.9775L32.7273 6.82854L29.7628 6.82854L32.8572 2.2817L32.8572 2.09656Z" id="Fill-44" fill="#000000" fill-rule="evenodd" stroke="none" />
          <path d="M35.5014 3.08212C35.9754 3.08212 36.3229 3.22912 36.5437 3.52341C36.6998 3.73119 36.7987 4.03013 36.8461 4.41064L33.9731 4.41064C34.0334 4.07386 34.1407 3.79228 34.3067 3.58016C34.5676 3.24834 34.9659 3.08212 35.5014 3.08212L35.5014 3.08212ZM37.5371 5.40175L38.1777 5.40175C38.2281 4.69749 38.1505 4.08595 37.9443 3.56683C37.7378 3.0477 37.4224 2.64549 36.9966 2.3605C36.5718 2.07551 36.0548 1.93317 35.447 1.93317C34.8716 1.93317 34.3648 2.06372 33.927 2.32546C33.4886 2.58657 33.1466 2.95405 32.9005 3.4279C32.6544 3.90144 32.5316 4.45963 32.5316 5.10249C32.5316 5.6976 32.6575 6.22416 32.9088 6.68158C33.1605 7.13868 33.5105 7.49655 33.9598 7.75425C34.4081 8.01195 34.9294 8.14064 35.5227 8.14064C36.0876 8.14064 36.6043 7.99396 37.0727 7.69998C37.5417 7.40537 37.8883 6.99355 38.1125 6.46388L36.8204 6.0719C36.6936 6.34387 36.5137 6.55195 36.2802 6.69491C36.0468 6.83849 35.7688 6.91013 35.447 6.91013C34.9473 6.91013 34.5676 6.7467 34.3067 6.41984C34.1026 6.164 33.9811 5.82257 33.9369 5.40175L36.8801 5.40175L37.5371 5.40175Z" id="Fill-45" fill="#000000" fill-rule="evenodd" stroke="none" />
          <path d="M38.634 7.97759L39.975 7.97759L39.975 6.63264L38.634 6.63264L38.634 7.97759Z" id="Fill-46" fill="#000000" fill-rule="evenodd" stroke="none" />
          <path d="M44.1565 6.1204C44.1133 6.25499 44.0292 6.39857 43.9043 6.55083C43.7793 6.7031 43.6118 6.8321 43.4021 6.93723C43.1922 7.04267 42.939 7.09539 42.6418 7.09539C42.4359 7.09539 42.2625 7.06252 42.1233 6.99708C41.9842 6.93227 41.8784 6.8442 41.8058 6.73318C41.7334 6.62247 41.6973 6.4947 41.6973 6.34926C41.6973 6.22212 41.7254 6.11172 41.7814 6.01713C41.8376 5.92317 41.918 5.83913 42.0231 5.76656C42.128 5.694 42.2566 5.63074 42.4084 5.57585C42.5642 5.5253 42.7432 5.47878 42.9461 5.43754C43.1489 5.39567 43.391 5.35102 43.6733 5.30388C43.852 5.27411 44.061 5.24 44.2842 5.20464C44.2821 5.30512 44.2787 5.41583 44.2731 5.54639C44.2641 5.76191 44.2255 5.95387 44.1565 6.1204M45.5519 3.66216C45.53 3.44601 45.4669 3.23451 45.3618 3.02767C45.1698 2.6391 44.8763 2.35969 44.4796 2.18913C44.0833 2.01857 43.6244 1.93329 43.1035 1.93329C42.4118 1.93329 41.863 2.08369 41.4558 2.38512C41.0486 2.68655 40.7728 3.08566 40.6281 3.58308L41.8222 3.95893C41.9202 3.6575 42.0918 3.44508 42.3379 3.32165C42.5843 3.19854 42.8391 3.13652 43.1035 3.13652C43.5413 3.13652 43.8529 3.23296 44.0372 3.42523C44.1899 3.58432 44.2747 3.82124 44.2985 4.12701C44.0678 4.16112 43.83 4.19741 43.6111 4.22811C43.2401 4.28083 42.896 4.3382 42.5797 4.3996C42.2625 4.46162 41.987 4.53046 41.7514 4.60675C41.4406 4.71219 41.1871 4.8474 40.9914 5.01238C40.7963 5.17767 40.6516 5.37396 40.5573 5.60066C40.463 5.82735 40.416 6.08257 40.416 6.3657C40.416 6.68883 40.4911 6.98468 40.6414 7.25323C40.7916 7.5221 41.0133 7.7367 41.3064 7.89826C41.5996 8.05983 41.9579 8.14077 42.3815 8.14077C42.9099 8.14077 43.3502 8.04185 43.7036 7.84399C43.9751 7.69173 44.2199 7.47093 44.4388 7.18408L44.4388 7.97765L45.5847 7.97765L45.5847 4.36735C45.5847 4.11306 45.5736 3.87799 45.5519 3.66216" id="Fill-47" fill="#000000" fill-rule="evenodd" stroke="none" />
          <path d="M46.3671 7.97759L47.6756 7.97759L47.6756 2.09666L46.3671 2.09666L46.3671 7.97759ZM46.3671 1.20323L47.6756 1.20323L47.6756 0L46.3671 0L46.3671 1.20323Z" id="Fill-48" fill="#000000" fill-rule="evenodd" stroke="none" />
        </g>
      </g>
    </g>
  </g>
</svg>