<svg xmlns="http://www.w3.org/2000/svg" viewBox="0 0 512 512"><defs><style>.cls-1{fill:#06054b;}.cls-2{fill:#fefefe;}</style></defs><g id="Layer_2" data-name="Layer 2"><rect class="cls-1" width="512" height="512"/><path class="cls-2" d="M454.18,242.11a208.41,208.41,0,0,1-51-45.82c-11.28-14-22.55-27.94-35-40.92-30.48-31.77-67.31-49.24-106-50-34.35,0-60.8,7.78-85.21,22.77-21,12.91-37.62,30.65-52.87,49.61C104.28,202.4,84,226.28,56.62,243.2c-9.94,6.14-8.88,20.34,1.25,26.7A205,205,0,0,1,108.32,315c14,17.27,27.79,34.72,44.08,50,56,52.41,138.22,55.68,198.15,7.83,16.31-13,29.86-28.79,42.74-45.09,17.81-22.54,37.2-43.24,61.83-58.64C465.19,262.79,464.48,248.63,454.18,242.11ZM122.52,279.36c-9.16-6.72-17.18-14.77-26.12-21.73-1.09-.85-2.28-1.56-.45-2.95,25.26-19.05,42.85-45.21,63.5-68.53,13.58-15.32,28.55-28.86,47.37-37.6,49.25-22.87,100.8-7.76,132.2,23.79-8-.68-15.36-2.41-22.9-2a113.35,113.35,0,0,0-19.41,0c-32.76,1.68-63.59,9.23-89,31.29-31.68,27.46-33.24,75-3.94,105.06.82.84,1.6,1.72,2.91,3.14a109.76,109.76,0,0,1-22.55-1.33C160.61,305.05,141.21,293,122.52,279.36ZM296.84,256c-.12,22.56-18.52,40.51-41.49,40.47-21.72,0-40.14-18.66-40.11-40.53,0-22.13,18.4-40.43,40.61-40.47C278.38,215.45,297,233.83,296.84,256Zm119.36,1.21c-28.4,21.36-47.06,51.73-71.28,77-15.69,16.34-33.7,29.06-55.66,35.24-43.54,12.25-81.66,1.72-114.9-28.26a4.2,4.2,0,0,1-.65-1.09q.27-.25.51-.51l-.21-.05.22,0a4.63,4.63,0,0,1,.52.07l.53.07c1.29.16,2.59.32,3.9.51l2.47.35,2.47.34a69,69,0,0,0,11.85.74l3.53.11a58.59,58.59,0,0,0,14.13-.05h.87c32.58-1.56,63.36-8.83,88.86-30.47,31.22-26.49,34.57-70.87,8.37-102.33-.46-.57-.91-1.15-1.37-1.74l-4.46-5.06a10.46,10.46,0,0,1,4.91,0,49.17,49.17,0,0,1,11.43.69,1.68,1.68,0,0,1,1.82.23c16.06,1.22,30.58,7,44.34,15,17.41,10.13,32.42,23.39,47.55,36.51C417,255.45,417.68,256.11,416.2,257.23Z"/><path class="cls-2" d="M237.11,259.62A18.86,18.86,0,0,0,234.57,222c-.37,0-.73.06-1.09.11a14.15,14.15,0,0,1-16.46,20v0A18.87,18.87,0,0,0,237.11,259.62Z"/></g></svg>