<svg
    width="18"
    height="18"
    viewBox="0 0 18 18"
    fill="none"
    xmlns="http://www.w3.org/2000/svg"
>
    <g clip-path="url(#clip0_1476_1679)">
        <path
            d="M13.6831 10.8675V17.0878C13.6831 17.2702 13.535 17.4183 13.3527 17.4183H10.2425C10.0602 17.4183 9.91211 17.2701 9.91211 17.0878V10.8675C9.91211 10.6852 10.0602 10.5371 10.2425 10.5371H11.5061V11.7186L11.0706 11.2835C10.9567 11.1696 10.7724 11.1696 10.6585 11.2835C10.5446 11.3975 10.5446 11.5817 10.6585 11.6956L11.5916 12.6287C11.592 12.6291 11.5924 12.6294 11.5927 12.6298C11.5989 12.6361 11.606 12.6423 11.6129 12.6481C11.616 12.6508 11.6196 12.6532 11.623 12.6555C11.6273 12.659 11.6312 12.6621 11.6359 12.6652C11.6398 12.6679 11.6437 12.6703 11.648 12.6726C11.6522 12.6749 11.6562 12.6777 11.6604 12.6796C11.6643 12.6819 11.6685 12.6838 11.6728 12.6858C11.6775 12.6881 11.6817 12.6901 11.6861 12.6921C11.6903 12.6936 11.6946 12.6951 11.6989 12.6967C11.7036 12.6983 11.7082 12.7002 11.7129 12.7018C11.7171 12.703 11.7215 12.7037 11.7262 12.7049C11.7308 12.7061 11.7359 12.7076 11.7409 12.7084C11.7456 12.7095 11.7507 12.7103 11.7557 12.7107C11.7604 12.7115 11.7647 12.7123 11.769 12.7126C11.7787 12.7138 11.788 12.7142 11.7977 12.7142C11.8074 12.7142 11.8167 12.7138 11.8265 12.7126C11.8307 12.7123 11.835 12.7115 11.8397 12.7107C11.8448 12.7103 11.8498 12.7095 11.8545 12.7084C11.8595 12.7076 11.8646 12.7061 11.8693 12.7049C11.8739 12.7037 11.8782 12.703 11.8825 12.7018C11.8872 12.7003 11.8918 12.6983 11.8965 12.6967C11.9008 12.6952 11.9051 12.6936 11.9093 12.6921C11.9136 12.6901 11.9179 12.6882 11.9226 12.6858C11.9268 12.6839 11.9311 12.6819 11.935 12.6796C11.9392 12.6777 11.9432 12.6749 11.9474 12.6726C11.9516 12.6703 11.9556 12.6679 11.9595 12.6652C11.9642 12.6621 11.968 12.659 11.9723 12.6555C11.9758 12.6532 11.9793 12.6508 11.9824 12.6481C11.9894 12.6423 11.9965 12.6361 12.0026 12.6298C12.0031 12.6294 12.0035 12.6291 12.0038 12.6287L12.9368 11.6956C13.0508 11.5817 13.0508 11.3974 12.9368 11.2835C12.8229 11.1696 12.6386 11.1696 12.5248 11.2835L12.0893 11.7186V10.5371H13.3528C13.535 10.5371 13.6831 10.6852 13.6831 10.8675ZM12.7112 13.9777C12.7112 13.4739 12.3014 13.0641 11.7976 13.0641C11.2938 13.0641 10.884 13.4739 10.884 13.9777C10.884 14.4816 11.2938 14.8913 11.7976 14.8913C12.3014 14.8913 12.7112 14.4816 12.7112 13.9777Z"
            fill="#060A1F"
        />
        <path
            d="M8.08548 10.8675V17.0878C8.08548 17.2702 7.93734 17.4183 7.75504 17.4183H4.64489C4.46255 17.4183 4.31445 17.2701 4.31445 17.0878V10.8675C4.31445 10.6852 4.46259 10.5371 4.64489 10.5371H5.9084V11.7186L5.47298 11.2835C5.35905 11.1696 5.17478 11.1696 5.06089 11.2835C4.94693 11.3975 4.94693 11.5817 5.06089 11.6956L5.99392 12.6287C5.99431 12.6291 5.99469 12.6294 5.99508 12.6298C6.00128 12.6361 6.00831 12.6423 6.01528 12.6481C6.01838 12.6508 6.0219 12.6532 6.02538 12.6555C6.02968 12.659 6.03355 12.6621 6.03823 12.6652C6.04217 12.6679 6.04601 12.6703 6.05034 12.6726C6.05456 12.6749 6.0585 12.6777 6.06272 12.6796C6.06667 12.6819 6.07089 12.6838 6.07518 12.6858C6.07986 12.6881 6.08412 12.6901 6.08842 12.6921C6.09271 12.6936 6.09697 12.6951 6.10126 12.6967C6.10594 12.6983 6.11059 12.7002 6.11527 12.7018C6.11949 12.703 6.12382 12.7037 6.1285 12.7049C6.13318 12.7061 6.13822 12.7076 6.14328 12.7084C6.14797 12.7095 6.153 12.7103 6.15807 12.7107C6.16275 12.7115 6.16701 12.7123 6.1713 12.7126C6.18101 12.7138 6.19034 12.7142 6.20005 12.7142C6.20977 12.7142 6.21909 12.7138 6.22881 12.7126C6.23303 12.7123 6.23736 12.7115 6.24204 12.7107C6.24711 12.7103 6.25214 12.7095 6.25682 12.7084C6.26189 12.7076 6.26692 12.7061 6.2716 12.7049C6.27628 12.7037 6.28054 12.703 6.28484 12.7018C6.28952 12.7003 6.29416 12.6983 6.29884 12.6967C6.30314 12.6952 6.3074 12.6936 6.31169 12.6921C6.31598 12.6901 6.32024 12.6882 6.32492 12.6858C6.32922 12.6839 6.33347 12.6819 6.33734 12.6796C6.34157 12.6777 6.34551 12.6749 6.34973 12.6726C6.35403 12.6703 6.3579 12.6679 6.36184 12.6652C6.36652 12.6621 6.37039 12.659 6.37469 12.6555C6.37817 12.6532 6.38169 12.6508 6.38479 12.6481C6.39179 12.6423 6.39879 12.6361 6.40499 12.6298C6.40541 12.6294 6.40576 12.6291 6.40615 12.6287L7.33918 11.6956C7.45314 11.5817 7.45314 11.3974 7.33918 11.2835C7.22526 11.1696 7.04098 11.1696 6.92709 11.2835L6.49167 11.7186V10.5371H7.75518C7.93738 10.5371 8.08548 10.6852 8.08548 10.8675ZM7.11355 13.9777C7.11355 13.4739 6.70379 13.0641 6.19995 13.0641C5.69611 13.0641 5.28634 13.4739 5.28634 13.9777C5.28634 14.4816 5.69611 14.8913 6.19995 14.8913C6.70382 14.8913 7.11355 14.4816 7.11355 13.9777Z"
            fill="#060A1F"
        />
        <path
            d="M8.08551 0.914423V3.73299H7.06576C6.94367 3.37182 6.60197 3.11096 6.19998 3.11096C5.69614 3.11096 5.28638 3.52073 5.28638 4.02457C5.28638 4.42656 5.54724 4.76829 5.9084 4.89035V7.46515H4.64489C4.46255 7.46515 4.31445 7.31702 4.31445 7.13472V0.914423C4.31445 0.732082 4.46259 0.583984 4.64489 0.583984H7.75504C7.93741 0.583984 8.08551 0.732082 8.08551 0.914423Z"
            fill="#060A1F"
        />
        <path
            d="M13.6832 0.914423V7.13472C13.6832 7.31706 13.535 7.46515 13.3527 7.46515H12.0892V4.89035C12.4504 4.76826 12.7112 4.42656 12.7112 4.02457C12.7112 3.52073 12.3015 3.11096 11.7976 3.11096C11.2938 3.11096 10.884 3.52073 10.884 4.02457C10.884 4.42656 11.1449 4.76829 11.5061 4.89035V7.46515H10.2425C10.0602 7.46515 9.91211 7.31702 9.91211 7.13472V4.76752L10.4486 4.23063C10.5626 4.11671 10.5626 3.93243 10.4486 3.81854L9.91211 3.28162V0.914423C9.91211 0.732082 10.0602 0.583984 10.2425 0.583984H13.3527C13.5351 0.583984 13.6832 0.732082 13.6832 0.914423Z"
            fill="#060A1F"
        />
        <path
            d="M11.7992 3.69336C11.9815 3.69336 12.1296 3.84149 12.1296 4.0238C12.1296 4.2061 11.9815 4.35424 11.7992 4.35424C11.6169 4.35424 11.4688 4.2061 11.4688 4.0238C11.4688 3.84149 11.6169 3.69336 11.7992 3.69336Z"
            fill="#060A1F"
        />
        <path
            d="M14.2681 10.8661V17.0864C14.2681 17.5902 13.8583 18 13.3545 18H10.2443C9.74049 18 9.33073 17.5902 9.33073 17.0864V10.8661C9.33073 10.3622 9.74049 9.95246 10.2443 9.95246H11.5078V8.0475H10.2443C9.74049 8.0475 9.33073 7.63774 9.33073 7.1339V5.24759C9.32411 5.24798 9.31788 5.24837 9.3113 5.24837C9.23665 5.24837 9.16201 5.22 9.10524 5.16285C8.99128 5.04892 8.99128 4.86465 9.10524 4.75076L9.54024 4.31534H8.66978V7.1339C8.66978 7.63774 8.26001 8.0475 7.75617 8.0475H6.49267V9.95246H7.75617C8.26001 9.95246 8.66978 10.3622 8.66978 10.8661V17.0864C8.66978 17.5902 8.26001 18 7.75617 18H4.64603C4.14219 18 3.73242 17.5902 3.73242 17.0864V10.8661C3.73242 10.3622 4.14219 9.95246 4.64603 9.95246H5.90953V8.0475H4.64603C4.14219 8.0475 3.73242 7.63774 3.73242 7.1339V0.913606C3.73242 0.409766 4.14219 0 4.64603 0H7.75617C8.26001 0 8.66978 0.409766 8.66978 0.913606V3.73217H9.54024L9.10524 3.29675C8.99128 3.18282 8.99128 2.99855 9.10524 2.88466C9.16704 2.82247 9.24985 2.79484 9.33073 2.79991V0.913606C9.33073 0.409766 9.74049 0 10.2443 0H13.3545C13.8583 0 14.2681 0.409766 14.2681 0.913606V7.1339C14.2681 7.63774 13.8583 8.0475 13.3545 8.0475H12.091V9.95246H13.3545C13.8583 9.95246 14.2681 10.3622 14.2681 10.8661ZM13.6849 17.0864V10.8661C13.6849 10.6837 13.5368 10.5356 13.3545 10.5356H12.091V11.7171L12.5264 11.2821C12.6403 11.1681 12.8246 11.1681 12.9385 11.2821C13.0524 11.396 13.0524 11.5803 12.9385 11.6941L12.0055 12.6272L12.0043 12.6283C11.9981 12.6346 11.9911 12.6408 11.9841 12.6466C11.981 12.6493 11.9775 12.6517 11.974 12.654C11.9697 12.6575 11.9658 12.6606 11.9611 12.6637C11.9572 12.6664 11.9534 12.6688 11.949 12.6711C11.9448 12.6734 11.9409 12.6762 11.9366 12.6781C11.9327 12.6804 11.9285 12.6824 11.9242 12.6843C11.9195 12.6867 11.9153 12.6886 11.911 12.6906C11.9067 12.6921 11.9024 12.6937 11.8981 12.6952C11.8935 12.6968 11.8888 12.6987 11.8841 12.7003C11.8799 12.7015 11.8756 12.7023 11.8709 12.7034C11.8662 12.7046 11.8612 12.7061 11.8561 12.7069C11.8514 12.7081 11.8464 12.7088 11.8413 12.7092C11.8367 12.71 11.8324 12.7108 11.8281 12.7112C11.8184 12.7123 11.8091 12.7127 11.7994 12.7127C11.7896 12.7127 11.7803 12.7123 11.7706 12.7112C11.7664 12.7108 11.762 12.71 11.7574 12.7092C11.7523 12.7088 11.7473 12.7081 11.7426 12.7069C11.7375 12.7061 11.7325 12.7046 11.7278 12.7034C11.7231 12.7023 11.7189 12.7015 11.7146 12.7003C11.7099 12.6988 11.7052 12.6968 11.7006 12.6952C11.6963 12.6937 11.692 12.6922 11.6877 12.6906C11.6835 12.6886 11.6792 12.6867 11.6745 12.6843C11.6702 12.6824 11.6659 12.6805 11.6621 12.6781C11.6578 12.6762 11.6539 12.6734 11.6497 12.6711C11.6454 12.6688 11.6415 12.6664 11.6376 12.6637C11.6329 12.6606 11.629 12.6575 11.6247 12.654C11.6212 12.6517 11.6177 12.6493 11.6146 12.6466C11.6076 12.6408 11.6006 12.6346 11.5944 12.6283L11.5933 12.6272L10.6602 11.6941C10.5463 11.5802 10.5463 11.396 10.6602 11.2821C10.7741 11.1681 10.9584 11.1681 11.0723 11.2821L11.5077 11.7171V10.5356H10.2442C10.0619 10.5356 9.91379 10.6838 9.91379 10.8661V17.0864C9.91379 17.2687 10.0619 17.4168 10.2442 17.4168H13.3544C13.5368 17.4168 13.6849 17.2687 13.6849 17.0864ZM13.6849 7.1339V0.913606C13.6849 0.731265 13.5368 0.583168 13.3545 0.583168H10.2443C10.062 0.583168 9.91389 0.7313 9.91389 0.913606V3.2808L10.4504 3.81769C10.5644 3.93161 10.5644 4.11589 10.4504 4.22978L9.91389 4.76667V7.13386C9.91389 7.3162 10.062 7.4643 10.2443 7.4643H11.5078V4.88949C11.1467 4.76741 10.8858 4.4257 10.8858 4.02372C10.8858 3.51988 11.2956 3.11011 11.7994 3.11011C12.3033 3.11011 12.713 3.51988 12.713 4.02372C12.713 4.4257 12.4522 4.76744 12.091 4.88949V7.4643H13.3545C13.5368 7.46437 13.6849 7.31624 13.6849 7.1339ZM12.1299 4.02375C12.1299 3.84141 11.9817 3.69331 11.7994 3.69331C11.6171 3.69331 11.469 3.84145 11.469 4.02375C11.469 4.20606 11.6171 4.35419 11.7994 4.35419C11.9817 4.35419 12.1299 4.20609 12.1299 4.02375ZM8.08665 17.0864V10.8661C8.08665 10.6837 7.93852 10.5356 7.75621 10.5356H6.4927V11.7171L6.92813 11.2821C7.04205 11.1681 7.22633 11.1681 7.34021 11.2821C7.45417 11.396 7.45417 11.5803 7.34021 11.6941L6.40718 12.6272L6.40602 12.6283C6.39982 12.6346 6.39279 12.6408 6.38582 12.6466C6.38272 12.6493 6.3792 12.6517 6.37572 12.654C6.37142 12.6575 6.36755 12.6606 6.36287 12.6637C6.35893 12.6664 6.35509 12.6688 6.35076 12.6711C6.34654 12.6734 6.3426 12.6762 6.33838 12.6781C6.33443 12.6804 6.33021 12.6824 6.32592 12.6843C6.32124 12.6867 6.31698 12.6886 6.31268 12.6906C6.30839 12.6921 6.30413 12.6937 6.29984 12.6952C6.29516 12.6968 6.29051 12.6987 6.28583 12.7003C6.28161 12.7015 6.27728 12.7023 6.2726 12.7034C6.26792 12.7046 6.26288 12.7061 6.25782 12.7069C6.25314 12.7081 6.2481 12.7088 6.24303 12.7092C6.23835 12.71 6.2341 12.7108 6.2298 12.7112C6.22009 12.7123 6.21076 12.7127 6.20105 12.7127C6.19133 12.7127 6.18201 12.7123 6.17229 12.7112C6.16807 12.7108 6.16374 12.71 6.15906 12.7092C6.15399 12.7088 6.14896 12.7081 6.14428 12.7069C6.13921 12.7061 6.13418 12.7046 6.1295 12.7034C6.12482 12.7023 6.12056 12.7015 6.11627 12.7003C6.11158 12.6988 6.10694 12.6968 6.10226 12.6952C6.09796 12.6937 6.09371 12.6922 6.08941 12.6906C6.08512 12.6886 6.08086 12.6867 6.07618 12.6843C6.07189 12.6824 6.06763 12.6805 6.06372 12.6781C6.0595 12.6762 6.05556 12.6734 6.05133 12.6711C6.04704 12.6688 6.04317 12.6664 6.03923 12.6637C6.03454 12.6606 6.03067 12.6575 6.02638 12.654C6.0229 12.6517 6.01938 12.6493 6.01628 12.6466C6.00928 12.6408 6.00227 12.6346 5.99608 12.6283L5.99492 12.6272L5.06188 11.6941C4.94792 11.5802 4.94792 11.396 5.06188 11.2821C5.17581 11.1681 5.36008 11.1681 5.47397 11.2821L5.90939 11.7171V10.5356H4.64589C4.46355 10.5356 4.31545 10.6838 4.31545 10.8661V17.0864C4.31545 17.2687 4.46358 17.4168 4.64589 17.4168H7.75603C7.93855 17.4168 8.08665 17.2687 8.08665 17.0864ZM8.08665 7.1339V4.31534H7.0669C6.97553 4.58475 6.76211 4.7982 6.49267 4.88956V7.46437H7.75617C7.93855 7.46437 8.08665 7.31624 8.08665 7.1339ZM8.08665 3.73217V0.913606C8.08665 0.731265 7.93852 0.583168 7.75621 0.583168H4.64606C4.46372 0.583168 4.31562 0.7313 4.31562 0.913606V7.1339C4.31562 7.31624 4.46376 7.46434 4.64606 7.46434H5.90957V4.88953C5.54841 4.76744 5.28755 4.42574 5.28755 4.02375C5.28755 3.51991 5.69731 3.11015 6.20115 3.11015C6.60314 3.11015 6.94488 3.37101 7.06693 3.73217H8.08665ZM6.53159 4.02375C6.53159 3.84141 6.38346 3.69331 6.20115 3.69331C6.01885 3.69331 5.87072 3.84145 5.87072 4.02375C5.87072 4.20606 6.01885 4.35419 6.20115 4.35419C6.38346 4.35419 6.53159 4.20609 6.53159 4.02375Z"
            fill="#535757"
        />
        <path
            d="M11.8003 13.0625C12.3042 13.0625 12.7139 13.4723 12.7139 13.9761C12.7139 14.4799 12.3042 14.8897 11.8003 14.8897C11.2965 14.8897 10.8867 14.4799 10.8867 13.9761C10.8867 13.4722 11.2965 13.0625 11.8003 13.0625ZM12.1308 13.9761C12.1308 13.7938 11.9827 13.6457 11.8004 13.6457C11.6181 13.6457 11.4699 13.7938 11.4699 13.9761C11.4699 14.1584 11.6181 14.3065 11.8004 14.3065C11.9827 14.3065 12.1308 14.1584 12.1308 13.9761Z"
            fill="#535757"
        />
        <path
            d="M11.7992 13.6465C11.9815 13.6465 12.1296 13.7946 12.1296 13.9769C12.1296 14.1593 11.9815 14.3074 11.7992 14.3074C11.6169 14.3074 11.4688 14.1592 11.4688 13.9769C11.4688 13.7946 11.6169 13.6465 11.7992 13.6465Z"
            fill="#060A1F"
        />
        <path
            d="M6.20072 13.0625C6.70456 13.0625 7.11432 13.4723 7.11432 13.9761C7.11432 14.4799 6.70456 14.8897 6.20072 14.8897C5.69688 14.8897 5.28711 14.4799 5.28711 13.9761C5.28711 13.4722 5.69688 13.0625 6.20072 13.0625ZM6.53119 13.9761C6.53119 13.7938 6.38306 13.6457 6.20075 13.6457C6.01844 13.6457 5.87031 13.7938 5.87031 13.9761C5.87031 14.1584 6.01844 14.3065 6.20075 14.3065C6.38306 14.3065 6.53119 14.1584 6.53119 13.9761Z"
            fill="#535757"
        />
        <path
            d="M6.20153 3.69336C6.38387 3.69336 6.53197 3.84149 6.53197 4.0238C6.53197 4.2061 6.38384 4.35424 6.20153 4.35424C6.01923 4.35424 5.87109 4.2061 5.87109 4.0238C5.87109 3.84149 6.01923 3.69336 6.20153 3.69336Z"
            fill="#060A1F"
        />
        <path
            d="M6.20153 13.6465C6.38387 13.6465 6.53197 13.7946 6.53197 13.9769C6.53197 14.1593 6.38384 14.3074 6.20153 14.3074C6.01923 14.3074 5.87109 14.1592 5.87109 13.9769C5.87109 13.7946 6.01923 13.6465 6.20153 13.6465Z"
            fill="#060A1F"
        />
    </g>
    <defs>
        <clipPath id="clip0_1476_1679">
            <rect width="18" height="18" fill="white" />
        </clipPath>
    </defs>
</svg>