<svg
    width="16"
    height="17"
    viewBox="0 0 16 17"
    fill="none"
    xmlns="http://www.w3.org/2000/svg"
>
    <g clip-path="url(#clip0_1476_1669)">
        <path
            d="M13.415 13.7493L12.9434 14.25L13.4146 14.7511L13.8862 14.2504L13.415 13.7493Z"
            fill="#060A1F"
        />
        <path
            d="M12.2351 12.4991L11.7637 13L12.2351 13.5009L12.7065 13L12.2351 12.4991Z"
            fill="#060A1F"
        />
        <path
            d="M12.2075 9.14922L10.6451 10.8092L9.57306 9.6704C10.5162 8.58263 11.1085 7.68518 11.3623 6.95026C11.4703 6.63701 11.5211 6.34686 11.5151 6.0774C11.6691 6.12053 11.827 6.14854 11.9881 6.14854C12.0779 6.14854 12.1684 6.14128 12.2588 6.1271C14.0055 5.8473 14.2833 3.72577 14.2942 3.6355C14.4677 2.20189 15.3901 1.58625 15.7784 1.38807C15.9278 1.31233 16.0139 1.14908 15.9982 0.972692C15.9822 0.79561 15.8634 0.646889 15.7026 0.601926H15.7018C12.6396 -0.243365 11.0778 1.46624 10.4197 2.55986C10.0696 3.14122 9.94451 3.78816 10.0572 4.40114C9.76645 4.36804 9.4505 4.41456 9.10318 4.54993C8.41135 4.81942 7.56686 5.44879 6.5432 6.45086L2.85403 2.53112V1.34999C2.85403 1.22548 2.79267 1.11031 2.69225 1.04633L1.12992 0.050239C0.998733 -0.0331142 0.830765 -0.0109789 0.722693 0.103502L0.0976968 0.76756C-0.0105382 0.882387 -0.0312086 1.06085 0.0475669 1.20024L0.984898 2.86004C1.04512 2.96656 1.15368 3.03193 1.2707 3.03193H2.38268L6.05944 6.9385C5.97429 7.02666 5.89135 7.11042 5.80388 7.20339C3.97349 9.14818 -0.961053 15.1918 0.192586 16.4175C0.311074 16.5434 0.477415 16.6012 0.682491 16.6012C2.47415 16.6012 7.22249 12.2008 8.8649 10.4559C8.95236 10.363 9.03114 10.2748 9.11411 10.1844L10.1738 11.31L8.61148 12.97L11.6592 16.2083C12.1393 16.7188 12.778 16.9996 13.4572 16.9996C14.1363 16.9996 14.7749 16.7188 15.2552 16.2083C16.2464 15.1548 16.2464 13.441 15.2552 12.3875L12.2075 9.14922ZM2.18737 2.3236H1.4595L0.753129 1.07296L1.00996 0.799726L2.18737 1.5506V2.3236ZM10.9813 2.94166C11.5267 2.0355 12.4909 1.08333 14.1339 1.08333C14.3719 1.08333 14.6241 1.10339 14.8914 1.14628C14.3766 1.57273 13.7814 2.31911 13.6333 3.54381C13.6245 3.61264 13.4062 5.22678 12.1595 5.42634C11.8186 5.48199 11.4772 5.36769 11.2053 5.13461C11.1513 5.05776 11.0913 4.98281 11.0231 4.91032C10.9974 4.88306 10.9702 4.86165 10.944 4.83654C10.8744 4.7324 10.8122 4.62024 10.7667 4.49459C10.5958 4.01764 10.6741 3.45181 10.9813 2.94166ZM9.33267 5.21502C9.54865 5.13098 9.72866 5.09639 9.881 5.09639C10.1196 5.09639 10.2907 5.18102 10.4265 5.29263C10.5123 5.41469 10.6092 5.52467 10.715 5.62342C10.8537 5.85535 10.918 6.17995 10.7363 6.70635C10.6379 6.99165 10.4707 7.31666 10.2413 7.67695L8.4192 5.74115C8.75829 5.49732 9.06418 5.31968 9.33267 5.21502ZM8.39355 9.95508C5.29184 13.2505 1.27217 16.1938 0.673865 15.9309C0.401731 15.2686 3.17369 10.9996 6.27523 7.7042C6.86413 7.0785 7.39716 6.5688 7.87691 6.1666L9.84087 8.25316C9.46229 8.76293 8.98251 9.32931 8.39355 9.95508ZM14.7838 15.7075C14.4293 16.0841 13.9583 16.2913 13.4572 16.2913C12.956 16.2913 12.4848 16.0841 12.1305 15.7075L9.55418 12.97L12.2075 10.1508L14.7838 12.8884C15.5151 13.6655 15.5151 14.9303 14.7838 15.7075Z"
            fill="#060A1F"
        />
    </g>
    <defs>
        <clipPath id="clip0_1476_1669">
            <rect width="16" height="17" fill="white" />
        </clipPath>
    </defs>
</svg>