<svg
    width="17"
    height="17"
    viewBox="0 0 17 17"
    fill="none"
    xmlns="http://www.w3.org/2000/svg"
>
    <g clip-path="url(#clip0_1476_1744)">
        <path
            d="M11.1854 8.96094C10.5614 8.96094 9.97522 9.20359 9.53531 9.64409C9.09451 10.0846 8.85156 10.6705 8.85156 11.2942C8.85156 11.9174 9.09418 12.5035 9.53531 12.9446C9.97612 13.3852 10.562 13.6278 11.1854 13.6278C11.8086 13.6278 12.3948 13.3852 12.8356 12.9446C13.2764 12.5035 13.519 11.9174 13.519 11.2942C13.519 10.6707 13.2764 10.0846 12.8359 9.64439C12.3954 9.20359 11.8092 8.96094 11.1854 8.96094ZM12.5535 12.6623C12.1879 13.0276 11.7023 13.2288 11.1854 13.2288C10.6688 13.2288 10.1826 13.0276 9.81734 12.6623C9.45174 12.297 9.25056 11.8111 9.25056 11.2942C9.25056 10.7773 9.45171 10.2914 9.81734 9.92642C10.1826 9.56082 10.6688 9.35967 11.1854 9.35967C11.7023 9.35967 12.1879 9.56082 12.5535 9.92642C12.9188 10.2914 13.12 10.7773 13.12 11.2942C13.12 11.8111 12.9188 12.297 12.5535 12.6623Z"
            fill="#060A1F"
        />
        <path
            d="M16.5679 10.529L15.3243 10.3488C15.2464 10.3428 15.1793 10.2939 15.1491 10.2214L14.7462 9.2487C14.7161 9.17648 14.7286 9.09411 14.7796 9.03501L15.5234 8.03549C15.6419 7.8967 15.6341 7.69045 15.5049 7.56155L14.9163 6.97299C14.8486 6.90493 14.7591 6.87063 14.6695 6.87063C14.589 6.87063 14.5081 6.89839 14.4427 6.9545L13.4429 7.69855C13.405 7.73109 13.357 7.74809 13.3086 7.74809C13.2817 7.74809 13.2549 7.74271 13.2295 7.73228L12.2563 7.32876C12.1844 7.29921 12.1351 7.23115 12.1288 7.15385L11.9483 5.91023C11.9343 5.72814 11.7826 5.58789 11.6006 5.58789H10.7679C10.5856 5.58789 10.4339 5.72814 10.4199 5.91023L10.239 7.15385C10.2331 7.23115 10.1841 7.29921 10.1119 7.32903L9.13866 7.73225C9.113 7.74267 9.08613 7.74805 9.05931 7.74805C9.01096 7.74805 8.96318 7.73105 8.925 7.69851L7.92579 6.95476C7.86041 6.89865 7.77956 6.87059 7.69927 6.87059C7.60943 6.87059 7.51991 6.90522 7.45184 6.97326L6.86328 7.56152C6.73436 7.69074 6.72662 7.89667 6.84479 8.03546L7.58854 9.03497C7.63898 9.09404 7.65209 9.17642 7.62228 9.24867L7.21906 10.2216C7.1898 10.2938 7.12174 10.3428 7.04447 10.3488L5.80022 10.5293C5.6188 10.5437 5.47852 10.6953 5.47852 10.8776V11.7097C5.47852 11.8924 5.6188 12.044 5.80022 12.0582L7.04447 12.2385C7.12177 12.2448 7.18984 12.2941 7.21906 12.366L7.62228 13.3392C7.65239 13.4108 7.63898 13.4938 7.58854 13.5529L6.84479 14.5524C6.72662 14.6906 6.73436 14.8971 6.86328 15.026L7.45184 15.6146C7.51991 15.6826 7.60943 15.7169 7.69897 15.7169C7.77956 15.7169 7.86044 15.6892 7.92582 15.6331L8.92503 14.889C8.96322 14.8565 9.011 14.8398 9.05934 14.8398C9.0862 14.8398 9.11303 14.8448 9.1387 14.8556L10.1119 15.2589C10.1841 15.2887 10.2334 15.3562 10.2393 15.434L10.4199 16.6777C10.4339 16.8591 10.5855 16.9997 10.7679 16.9997H11.6005C11.7829 16.9997 11.9342 16.8591 11.9485 16.6777L12.1288 15.434C12.1351 15.3562 12.1843 15.2887 12.2562 15.2589L13.2295 14.8556C13.2552 14.8449 13.282 14.8398 13.3088 14.8398C13.3572 14.8398 13.4053 14.8565 13.4431 14.8891L14.4427 15.6331C14.508 15.6892 14.5889 15.717 14.6695 15.717C14.7591 15.717 14.8486 15.6827 14.9163 15.6147L15.5049 15.0261C15.6344 14.8972 15.6418 14.6906 15.5233 14.5525L14.7796 13.553C14.7295 13.4939 14.716 13.4109 14.7462 13.3393L15.1491 12.366C15.1792 12.2941 15.2464 12.2449 15.3243 12.2386L16.5679 12.0583C16.7496 12.044 16.8899 11.8924 16.8899 11.7103V10.8777C16.89 10.6953 16.7497 10.5437 16.5679 10.529ZM16.4909 11.6661L15.2766 11.8422C15.056 11.8658 14.8674 12.0064 14.7805 12.2135L14.3779 13.1852C14.2917 13.3917 14.3254 13.6251 14.4653 13.7988L15.1918 14.7751L14.6653 15.3015L13.6894 14.5751C13.582 14.4882 13.4474 14.4405 13.3089 14.4405C13.228 14.4405 13.1492 14.4566 13.077 14.487L12.1028 14.8905C11.8966 14.9765 11.7561 15.1654 11.7325 15.3862L11.5564 16.6006H10.8121L10.6357 15.3865C10.6124 15.1657 10.4721 14.9765 10.2647 14.8899L9.29266 14.4876C9.21835 14.4562 9.13986 14.4404 9.05931 14.4404C8.92141 14.4404 8.78711 14.4882 8.67936 14.5747L7.70283 15.3014L7.17666 14.775L7.90281 13.7988C8.04306 13.625 8.07679 13.3914 7.99086 13.1863L7.58854 12.2152C7.50377 12.0074 7.31455 11.866 7.09249 11.8421L5.87752 11.666V10.921L7.09192 10.745C7.31485 10.7217 7.50437 10.5796 7.58761 10.3743L7.99023 9.40253C8.07676 9.19601 8.04306 8.96232 7.90281 8.78894L7.17636 7.8124L7.70312 7.28593L8.67873 8.01235C8.78648 8.09947 8.92078 8.14696 9.05927 8.14696C9.13926 8.14696 9.21742 8.13142 9.29143 8.1007L10.2644 7.69748C10.4712 7.61212 10.6124 7.42263 10.6354 7.20116L10.812 5.98706H11.5564L11.7324 7.20176C11.7563 7.42319 11.8975 7.61245 12.1034 7.69719L13.0767 8.1007C13.1504 8.13112 13.2286 8.14696 13.3085 8.14696C13.4473 8.14696 13.5819 8.09921 13.6894 8.01235L14.6653 7.28593L15.1918 7.8124L14.4659 8.78774C14.3251 8.96086 14.291 9.19481 14.3776 9.40104L14.7805 10.3743C14.8664 10.5808 15.0557 10.7217 15.2768 10.745L16.4909 10.921L16.4909 11.6661Z"
            fill="#060A1F"
        />
        <path
            d="M5.66566 8.6467L6.27868 8.42284C6.41329 8.3739 6.487 8.22973 6.44878 8.09214L6.24737 7.12759C6.23124 7.06789 6.24943 7.0052 6.29422 6.96403L6.90277 6.40535C6.93289 6.37759 6.9723 6.36298 7.01201 6.36298C7.0314 6.36298 7.05082 6.36627 7.06899 6.37281L8.00525 6.65248C8.03719 6.6644 8.06999 6.67008 8.10223 6.66978C8.20549 6.66948 8.30371 6.61008 8.34966 6.5116L8.62452 5.91979C8.68571 5.78996 8.63554 5.63567 8.5111 5.56551L7.69483 5.02948C7.64171 4.99937 7.60976 4.94236 7.61275 4.88086L7.64798 4.05567C7.65067 3.99447 7.68739 3.94075 7.74231 3.91512L8.61018 3.44775C8.7406 3.38865 8.80299 3.23884 8.75401 3.10483L8.53049 2.49153C8.49018 2.38077 8.38512 2.31124 8.2723 2.31157C8.24813 2.31187 8.22366 2.31483 8.19949 2.32173L7.23487 2.52258C7.22052 2.52676 7.20592 2.52885 7.1916 2.52885C7.14685 2.52915 7.10325 2.51006 7.07161 2.47606L6.51353 1.86778C6.47173 1.82276 6.45888 1.75854 6.48066 1.70156L6.76003 0.765004C6.80987 0.631029 6.74901 0.481781 6.61885 0.421186L6.02704 0.145732C5.98942 0.1284 5.94971 0.120066 5.91063 0.120066C5.81484 0.120631 5.7229 0.171398 5.67309 0.259719L5.13676 1.07628C5.10781 1.12702 5.05409 1.15833 4.99588 1.15863H4.98874L4.16321 1.12283C4.10232 1.11985 4.0474 1.08316 4.02237 1.02794L3.55533 0.160574C3.50968 0.0597031 3.40967 -0.000560523 3.30491 3.93039e-06C3.27417 3.93039e-06 3.24286 0.00538284 3.21241 0.0164063L2.59938 0.240527C2.46477 0.289502 2.39076 0.433338 2.42958 0.570932L2.63072 1.53581C2.64713 1.59462 2.62893 1.65757 2.58387 1.69878L1.97533 2.25748C1.94461 2.28554 1.9058 2.30018 1.86579 2.30048C1.8467 2.30048 1.82731 2.2969 1.80848 2.28972L0.872552 2.01098C0.840644 1.99873 0.807806 1.99309 0.775566 1.99309C0.672603 1.99365 0.574687 2.05279 0.528468 2.15127L0.253579 2.74338C0.192685 2.8729 0.242523 3.0269 0.367001 3.09762L1.18327 3.63395C1.23669 3.6638 1.26833 3.72081 1.26531 3.78141L1.23012 4.6072C1.22773 4.6681 1.19041 4.72212 1.13549 4.74779L0.267624 5.21515C0.137501 5.27422 0.0751124 5.42377 0.124054 5.55778L0.34761 6.17107C0.388185 6.2818 0.493239 6.35193 0.606064 6.35163C0.629937 6.35133 0.654108 6.34774 0.67828 6.3409L1.64346 6.13976C1.65751 6.13587 1.67182 6.13378 1.68586 6.13378C1.73092 6.13378 1.77478 6.15231 1.80612 6.18631L2.36453 6.79516C2.4063 6.83991 2.41852 6.90439 2.39737 6.9617L2.118 7.89763C2.0682 8.03164 2.12936 8.18115 2.25918 8.24208L2.85069 8.5172C2.88858 8.53454 2.92829 8.54287 2.96737 8.54287C3.06319 8.54227 3.1551 8.49184 3.20464 8.40352L3.74097 7.58725C3.76959 7.53652 3.82275 7.50484 3.88032 7.50484H3.88929L4.71452 7.54037C4.77568 7.54276 4.8303 7.57945 4.8557 7.63496L5.32277 8.50286C5.36872 8.60313 5.4684 8.66343 5.57345 8.66313C5.6039 8.6628 5.63521 8.65772 5.66566 8.6467ZM5.2114 7.45381C5.12039 7.26906 4.93774 7.14996 4.73149 7.1419L3.90928 7.1067C3.89912 7.1061 3.88899 7.10551 3.87883 7.10551C3.68512 7.1067 3.50367 7.20937 3.40276 7.37472L2.92052 8.1092L2.52597 7.92566L2.77728 7.08492C2.84322 6.88945 2.79813 6.67606 2.65878 6.52561L2.1013 5.9177C1.99472 5.80069 1.84285 5.73415 1.68433 5.73501C1.64017 5.73501 1.59598 5.74039 1.55332 5.75115L0.68512 5.93201L0.53647 5.52371L1.31721 5.10349C1.50195 5.01129 1.62105 4.8283 1.62852 4.6239L1.66405 3.8005C1.67388 3.59398 1.57091 3.40176 1.39454 3.29492L0.660948 2.81321L0.844196 2.41865L1.68613 2.66993C1.74463 2.68966 1.80549 2.69919 1.86758 2.69919C2.00724 2.69859 2.14068 2.64669 2.24514 2.55117L2.85189 1.99425C3.00559 1.8546 3.06887 1.64568 3.01903 1.4451L2.83848 0.577805L3.24674 0.42859L3.66663 1.2093C3.75797 1.39347 3.94002 1.51254 4.14628 1.52117L4.97267 1.557L4.99744 1.5576C5.19264 1.5567 5.3744 1.45344 5.47527 1.28779L5.95758 0.553301L6.35213 0.736814L6.10111 1.57699C6.03428 1.77275 6.07907 1.98585 6.21932 2.13686L6.77769 2.7454C6.88421 2.86208 7.03585 2.92835 7.19313 2.92746C7.23792 2.92716 7.28208 2.92181 7.32565 2.91165L8.19294 2.7305L8.34156 3.13906L7.56049 3.55988C7.37817 3.65062 7.25937 3.83148 7.24921 4.0386L7.21368 4.86141C7.20382 5.06826 7.30682 5.26044 7.48349 5.36789L8.21678 5.84986L8.03354 6.24472L7.1919 5.99313C7.1334 5.97341 7.07254 5.96358 7.01015 5.96388C6.86957 5.96415 6.73526 6.01731 6.6329 6.1113L6.02375 6.67031C5.87244 6.80996 5.81006 7.01831 5.85873 7.21767L6.03989 8.08553L5.63129 8.23418L5.2114 7.45381Z"
            fill="#060A1F"
        />
        <path
            d="M6.17584 5.13956C6.39163 4.67515 6.41401 4.15465 6.23853 3.67414C6.06275 3.19336 5.7109 2.80953 5.24768 2.59434C4.98897 2.47348 4.71438 2.41288 4.43172 2.41408C4.21088 2.41498 3.99241 2.45436 3.7823 2.53109C3.30092 2.70657 2.91712 3.05845 2.70134 3.52253C2.48555 3.98605 2.46317 4.50621 2.63835 4.98792C2.81446 5.46903 3.16665 5.85283 3.62983 6.06802C3.88828 6.18828 4.16284 6.24914 4.44546 6.24798C4.66663 6.24678 4.88511 6.2074 5.09551 6.13097C5.5757 5.95552 5.95919 5.60334 6.17584 5.13956ZM4.95849 5.75614C4.79108 5.81733 4.61709 5.84808 4.44367 5.84868C4.2234 5.84987 4.00373 5.80209 3.79814 5.7063C3.43074 5.53527 3.1526 5.23143 3.01321 4.85092C2.87476 4.46982 2.89202 4.05797 3.06305 3.69084C3.23408 3.32315 3.53819 3.04441 3.9187 2.90595C4.08641 2.84446 4.26042 2.81371 4.43354 2.81311C4.65381 2.81219 4.87315 2.85996 5.07878 2.95579C5.44587 3.12678 5.72461 3.43063 5.8637 3.81113C6.00249 4.19197 5.98483 4.60353 5.81413 4.97122C5.64254 5.33861 5.33903 5.61708 4.95849 5.75614Z"
            fill="#060A1F"
        />
    </g>
    <defs>
        <clipPath id="clip0_1476_1744">
            <rect width="17" height="17" fill="white" />
        </clipPath>
    </defs>
</svg>