<svg
    width="19"
    height="19"
    viewBox="0 0 19 19"
    fill="none"
    xmlns="http://www.w3.org/2000/svg"
>
    <g clip-path="url(#clip0_1476_1700)">
        <path
            d="M9.79618 10.011C10.0286 9.77964 10.0294 9.40368 9.798 9.17133C9.56659 8.93897 9.19063 8.93818 8.95828 9.16951L9.79618 10.011ZM6.10353 8.14066L6.52312 7.72058L6.52249 7.71995L6.10353 8.14066ZM9.05549 5.37949C9.33131 5.55681 9.69872 5.47694 9.87598 5.2011C10.0533 4.92526 9.97343 4.5579 9.69762 4.38058L9.05549 5.37949ZM10.8743 12.9345L10.4547 13.3547C10.4639 13.3638 10.4733 13.3727 10.4831 13.3813L10.8743 12.9345ZM14.6056 9.26799C14.4273 8.99281 14.0596 8.91435 13.7844 9.09271C13.5093 9.27116 13.4308 9.63881 13.6092 9.91391L14.6056 9.26799ZM11.2344 13.2499L11.6533 12.8291L11.6398 12.8158L11.6256 12.8033L11.2344 13.2499ZM4.81257 10.6227C5.04458 10.3909 5.04481 10.015 4.81308 9.78297C4.58134 9.55093 4.2054 9.55069 3.97339 9.78249L4.81257 10.6227ZM2.37749 10.6227C2.6095 10.3909 2.60973 10.015 2.378 9.78297C2.14626 9.55093 1.77032 9.55069 1.53831 9.78249L2.37749 10.6227ZM9.18849 15.032C9.42053 14.8002 9.42077 14.4243 9.18897 14.1922C8.95725 13.9602 8.58137 13.96 8.34933 14.1918L9.18849 15.032ZM9.18849 17.464C9.42053 17.2323 9.42077 16.8564 9.18897 16.6244C8.95725 16.3924 8.58137 16.3921 8.34933 16.6238L9.18849 17.464ZM8.41828 13.6062C8.65016 13.3743 8.65016 12.9983 8.41828 12.7664C8.1864 12.5346 7.81043 12.5346 7.57856 12.7664L8.41828 13.6062ZM5.91414 14.4308C5.68227 14.6627 5.68227 15.0387 5.91414 15.2706C6.14601 15.5024 6.52196 15.5024 6.75383 15.2706L5.91414 14.4308ZM6.22081 11.4113C6.45268 11.1795 6.45268 10.8036 6.22081 10.5717C5.98893 10.3398 5.613 10.3398 5.38112 10.5717L6.22081 11.4113ZM3.70524 12.2476C3.47337 12.4795 3.47337 12.8553 3.70524 13.0872C3.93712 13.3191 4.31306 13.3191 4.54493 13.0872L3.70524 12.2476ZM5.90682 13.9194C6.14126 13.6902 6.14544 13.3143 5.91616 13.0798C5.68688 12.8454 5.31097 12.8412 5.07652 13.0704L5.90682 13.9194ZM3.72311 14.3941C3.48867 14.6234 3.48449 14.9993 3.71377 15.2338C3.94305 15.4682 4.31897 15.4724 4.55341 15.2431L3.72311 14.3941ZM15.823 7.04332L11.796 11.0534L12.6339 11.8948L16.6609 7.88477L15.823 7.04332ZM8.85029 11.0534L7.90444 10.1114L7.06653 10.9529L8.01239 11.8948L8.85029 11.0534ZM7.90444 7.18528L11.9315 3.17525L11.0935 2.33379L7.06653 6.34382L7.90444 7.18528ZM14.3502 2.17782H14.742V0.990322H14.3502V2.17782ZM16.8236 4.24818V4.63833L18.0111 4.63834V4.24818H16.8236ZM14.742 2.17782C15.3892 2.17782 15.8152 2.17907 16.1309 2.22134C16.4299 2.26136 16.5394 2.32814 16.6066 2.39495L17.4445 1.55349C17.1198 1.23016 16.7182 1.10187 16.2886 1.04434C15.8757 0.989071 15.3558 0.990322 14.742 0.990322V2.17782ZM18.0111 4.24818C18.0111 3.6371 18.0123 3.1188 17.9568 2.70711C17.8988 2.27808 17.7695 1.87717 17.4445 1.55349L16.6066 2.39495C16.6733 2.46142 16.7399 2.56956 16.7799 2.866C16.8223 3.17978 16.8236 3.60339 16.8236 4.24818H18.0111ZM7.90444 10.1114C7.44663 9.65559 7.14653 9.35491 6.95353 9.10301C6.77094 8.86471 6.74155 8.74145 6.74155 8.64835H5.55405C5.55405 9.10704 5.7476 9.48166 6.0109 9.82524C6.26379 10.1554 6.63254 10.5207 7.06653 10.9529L7.90444 10.1114ZM8.01239 11.8948C8.44647 12.327 8.81332 12.6942 9.14472 12.9459C9.48988 13.2081 9.86482 13.3999 10.3231 13.3999V12.2124C10.2273 12.2124 10.1023 12.1821 9.86307 12.0003C9.61006 11.8081 9.30812 11.5092 8.85029 11.0534L8.01239 11.8948ZM16.6609 7.88477C17.2063 7.3416 17.6041 6.96047 17.8128 6.45863L16.7164 6.00256C16.6196 6.2351 16.4374 6.43148 15.823 7.04332L16.6609 7.88477ZM16.8236 4.63833C16.8236 5.50365 16.813 5.77029 16.7164 6.00256L17.8128 6.45863C18.0217 5.95653 18.0111 5.40645 18.0111 4.63834L16.8236 4.63833ZM11.9315 3.17525C12.5456 2.5637 12.7432 2.38175 12.9776 2.28506L12.5247 1.18727C12.0216 1.39478 11.6393 1.79032 11.0935 2.33379L11.9315 3.17525ZM14.3502 0.990322C13.5783 0.990322 13.0275 0.979887 12.5247 1.18727L12.9776 2.28506C13.2122 2.18826 13.4817 2.17782 14.3502 2.17782V0.990322ZM8.37735 11.4239L9.79618 10.011L8.95828 9.16951L7.53947 10.5824L8.37735 11.4239ZM9.69762 4.38058L9.26426 4.102L8.62214 5.10091L9.05549 5.37949L9.69762 4.38058ZM9.26426 4.102C8.83723 3.8275 8.4889 3.60308 8.1883 3.44132C7.8803 3.27555 7.58687 3.15528 7.26007 3.10705L7.08667 4.28182C7.22566 4.30234 7.38246 4.35616 7.62556 4.48699C7.87612 4.62185 8.17975 4.81656 8.62214 5.10091L9.26426 4.102ZM4.21644 6.14824C4.60455 5.76177 5.01923 5.349 5.39153 5.00979C5.57751 4.84032 5.74585 4.69576 5.88936 4.58528C6.04206 4.46773 6.1331 4.41525 6.16973 4.40007L5.71511 3.30304C5.5282 3.3805 5.33581 3.51279 5.16498 3.64431C4.98495 3.78289 4.78965 3.95168 4.59175 4.132C4.19624 4.49237 3.76199 4.92494 3.37854 5.30677L4.21644 6.14824ZM7.26007 3.10705C6.73997 3.03028 6.20571 3.09973 5.71511 3.30304L6.16973 4.40007C6.46767 4.2766 6.78522 4.23733 7.08667 4.28182L7.26007 3.10705ZM3.75762 7.14137L4.01841 7.24458L4.4554 6.14041L4.19461 6.0372L3.75762 7.14137ZM5.02287 7.9025L5.68457 8.56143L6.52249 7.71995L5.86079 7.06104L5.02287 7.9025ZM4.01841 7.24458C4.06243 7.26201 4.07941 7.26873 4.09582 7.27549L4.54772 6.17733C4.52217 6.16682 4.49656 6.1567 4.4554 6.14041L4.01841 7.24458ZM5.86079 7.06104C5.82945 7.02984 5.80998 7.01042 5.79015 6.99122L4.96374 7.84397C4.97646 7.8563 4.98939 7.86916 5.02287 7.9025L5.86079 7.06104ZM4.09582 7.27549C4.41891 7.40844 4.71345 7.60141 4.96374 7.84397L5.79015 6.99122C5.43155 6.64369 5.00987 6.36751 4.54772 6.17733L4.09582 7.27549ZM3.37854 5.30677C2.80541 5.87746 3.00817 6.84476 3.75762 7.14137L4.19461 6.0372C4.23746 6.05415 4.25191 6.11292 4.21644 6.14824L3.37854 5.30677ZM13.6092 9.91391L13.8889 10.3455L14.8854 9.69953L14.6056 9.26799L13.6092 9.91391ZM12.8374 14.7258L12.7795 14.7835L13.6174 15.6249L13.6753 15.5673L12.8374 14.7258ZM13.8889 10.3455C14.1746 10.786 14.37 11.0883 14.5053 11.3376C14.6366 11.5795 14.6903 11.735 14.7108 11.8723L15.8853 11.6975C15.8367 11.3709 15.7155 11.0781 15.549 10.7711C15.3865 10.4717 15.161 10.1247 14.8854 9.69953L13.8889 10.3455ZM13.6753 15.5673C14.0587 15.1855 14.4931 14.753 14.8551 14.3591C15.0361 14.1621 15.2057 13.9676 15.3449 13.7882C15.4769 13.6182 15.61 13.4263 15.6881 13.2396L14.5924 12.7816C14.5774 12.8176 14.525 12.9079 14.4069 13.06C14.296 13.2029 14.1508 13.3705 13.9806 13.5557C13.64 13.9264 13.2255 14.3393 12.8374 14.7258L13.6753 15.5673ZM14.7108 11.8723C14.7553 12.171 14.716 12.486 14.5924 12.7816L15.6881 13.2396C15.8926 12.7501 15.9626 12.2168 15.8853 11.6975L14.7108 11.8723ZM11.6256 12.8033L11.2654 12.4879L10.4831 13.3813L10.8432 13.6966L11.6256 12.8033ZM12.9747 14.8295C12.8275 14.4608 12.7367 14.2306 12.6171 14.0127L11.5762 14.5843C11.6528 14.7238 11.7143 14.8752 11.8718 15.2697L12.9747 14.8295ZM10.8154 13.6706C11.1168 13.9708 11.2323 14.0871 11.3306 14.2125L12.2648 13.4794C12.1114 13.2839 11.9352 13.1098 11.6533 12.8291L10.8154 13.6706ZM12.6171 14.0127C12.5144 13.8257 12.3966 13.6473 12.2648 13.4794L11.3306 14.2125C11.4225 14.3296 11.5046 14.454 11.5762 14.5843L12.6171 14.0127ZM13.6878 6.34382C13.397 6.63332 12.9246 6.63332 12.6339 6.34382L11.796 7.18528C12.5501 7.93617 13.7716 7.93617 14.5257 7.18528L13.6878 6.34382ZM12.6339 6.34382C12.3446 6.05569 12.3446 5.5896 12.6339 5.30147L11.796 4.46001C11.0405 5.21228 11.0405 6.43301 11.796 7.18528L12.6339 6.34382ZM12.6339 5.30147C12.9246 5.01196 13.397 5.01196 13.6878 5.30147L14.5257 4.46001C13.7716 3.70912 12.5501 3.70912 11.796 4.46001L12.6339 5.30147ZM13.6878 5.30147C13.9771 5.5896 13.9771 6.05569 13.6878 6.34382L14.5257 7.18528C15.2811 6.43301 15.2811 5.21228 14.5257 4.46001L13.6878 5.30147ZM12.7795 14.7835C12.8114 14.7516 12.8541 14.7446 12.8838 14.7504C12.9135 14.7565 12.9554 14.7811 12.9747 14.8295L11.8718 15.2697C12.1575 15.9854 13.0835 16.1565 13.6174 15.6249L12.7795 14.7835ZM11.796 11.0534C11.4431 11.4048 11.1803 11.6659 10.9552 11.8601C10.7292 12.0551 10.5834 12.1442 10.4756 12.1839L10.8856 13.2984C11.1932 13.1852 11.4673 12.9866 11.7309 12.7593C11.9953 12.5312 12.2921 12.2352 12.6339 11.8948L11.796 11.0534ZM10.4756 12.1839C10.4199 12.2043 10.3721 12.2124 10.3231 12.2124V13.3999C10.519 13.3999 10.7055 13.3645 10.8856 13.2984L10.4756 12.1839ZM11.2939 12.5145L11.1001 12.321L10.261 13.1612L10.4547 13.3547L11.2939 12.5145ZM7.06653 6.34382C6.73282 6.67611 6.44201 6.96528 6.21576 7.22316C5.9906 7.47981 5.79287 7.74523 5.67413 8.04019L6.7757 8.48369C6.81967 8.37443 6.9134 8.22861 7.10841 8.00631C7.30236 7.78524 7.56047 7.52779 7.90444 7.18528L7.06653 6.34382ZM5.67413 8.04019C5.59634 8.23336 5.55405 8.43468 5.55405 8.64835H6.74155C6.74155 8.59705 6.75066 8.54583 6.7757 8.48369L5.67413 8.04019ZM5.68394 8.56079L5.80532 8.682L6.64451 7.84182L6.52312 7.72058L5.68394 8.56079ZM3.97339 9.78249L2.6341 11.1201L3.47327 11.9603L4.81257 10.6227L3.97339 9.78249ZM2.25574 10.7443L2.37749 10.6227L1.53831 9.78249L1.41655 9.90409L2.25574 10.7443ZM2.25574 11.1201C2.15173 11.0162 2.15173 10.8482 2.25574 10.7443L1.41655 9.90409C0.848128 10.4718 0.848128 11.3926 1.41655 11.9603L2.25574 11.1201ZM2.6341 11.1201C2.52969 11.2244 2.36013 11.2244 2.25574 11.1201L1.41655 11.9603C1.98458 12.5277 2.90524 12.5277 3.47327 11.9603L2.6341 11.1201ZM8.34933 14.1918L7.01002 15.5294L7.8492 16.3696L9.18849 15.032L8.34933 14.1918ZM9.06674 17.5856L9.18849 17.464L8.34933 16.6238L8.22757 16.7454L9.06674 17.5856ZM7.01002 17.5856C7.57805 18.153 8.49871 18.153 9.06674 17.5856L8.22757 16.7454C8.12315 16.8497 7.95357 16.8497 7.8492 16.7454L7.01002 17.5856ZM7.01002 15.5294C6.44159 16.0971 6.44159 17.0179 7.01002 17.5856L7.8492 16.7454C7.7452 16.6416 7.7452 16.4735 7.8492 16.3696L7.01002 15.5294ZM7.57856 12.7664L5.91414 14.4308L6.75383 15.2706L8.41828 13.6062L7.57856 12.7664ZM5.38112 10.5717L3.70524 12.2476L4.54493 13.0872L6.22081 11.4113L5.38112 10.5717ZM5.07652 13.0704L3.72311 14.3941L4.55341 15.2431L5.90682 13.9194L5.07652 13.0704Z"
            fill="#060A1F"
        />
    </g>
    <defs>
        <clipPath id="clip0_1476_1700">
            <rect width="19" height="19" fill="white" />
        </clipPath>
    </defs>
</svg>