<svg width="84" height="20" viewBox="0 0 84 20" fill="none" xmlns="http://www.w3.org/2000/svg">
<g clip-path="url(#clip0_2233_1738)">
<path d="M13.8837 0.951666C12.6663 0.361333 11.2186 0 9.84394 0C5.69456 0 3.21252 3.52833 3.47954 6.97733C3.60056 8.53732 4.34614 10.0467 5.57905 11.227C6.02065 11.652 6.51417 12.0163 7.04719 12.3107C6.64391 11.817 6.3775 11.2209 6.27597 10.585C6.00019 8.85166 7.11435 6.30199 9.95977 6.30199C13.02 6.30199 16.3891 9.29099 16.6739 12.9663C16.8482 15.2146 16.0185 17.2386 14.6159 18.6526C17.5168 16.9216 19.4674 13.695 19.4674 9.99999C19.4674 6.00199 17.184 2.552 13.8837 0.951666Z" fill="#161616"/>
<path d="M15.9879 13.0233C15.8669 11.4633 15.1213 9.95398 13.8884 8.77365C13.4468 8.34859 12.9533 7.98432 12.4203 7.68998C12.8235 8.18359 13.0899 8.7797 13.1915 9.41565C13.4672 11.149 12.3531 13.6986 9.50767 13.6986C6.44746 13.6986 3.07838 10.7096 2.79351 7.03398C2.61928 4.78565 3.4489 2.76165 4.85149 1.34766C1.95059 3.07899 0 6.30565 0 10.0006C0 13.9986 2.28348 17.4486 5.58378 19.049C6.80111 19.6393 8.2488 20.0006 9.6235 20.0006C13.7729 20.0006 16.2549 16.4723 15.9879 13.0233Z" fill="#161616"/>
<path d="M27.4416 5H24.3408V15H27.4416C30.8619 15 32.4332 13.086 32.4332 10.0147C32.4332 6.92833 30.8619 5 27.4416 5ZM27.3997 13.8H25.7175V6.18567H27.3997C30.0972 6.18567 31.029 7.64266 31.029 10.014C31.029 12.371 30.0972 13.8 27.3997 13.8Z" fill="#161616"/>
<path d="M36.5416 7.74219C34.4833 7.74219 33.0791 9.24219 33.0791 11.4848C33.0791 13.6988 34.4976 15.1705 36.5274 15.1705C38.1545 15.1705 39.2806 14.1705 39.656 12.8418H38.2794C38.0013 13.5418 37.3897 13.9988 36.5274 13.9988C35.4567 13.9988 34.5115 13.2278 34.4278 11.7848H39.8367C39.8507 11.5278 39.8507 11.3135 39.8507 11.1132C39.8507 9.28485 38.5714 7.74219 36.5416 7.74219ZM34.4561 10.7849C34.6089 9.55652 35.4988 8.91352 36.5277 8.91352C37.6123 8.91352 38.4328 9.62785 38.4883 10.7849H34.4561Z" fill="#161616"/>
<path d="M44.0364 7.74219C41.9784 7.74219 40.5742 9.24219 40.5742 11.4848C40.5742 13.6988 41.9924 15.1705 44.0225 15.1705C45.6493 15.1705 46.7754 14.1705 47.1511 12.8418H45.7745C45.4961 13.5418 44.8845 13.9988 44.0225 13.9988C42.9518 13.9988 42.0063 13.2278 41.923 11.7848H47.3315C47.3455 11.5278 47.3455 11.3135 47.3455 11.1132C47.3455 9.28485 46.0662 7.74219 44.0364 7.74219ZM41.9515 10.7849C42.1046 9.55652 42.9943 8.91352 44.0234 8.91352C45.1081 8.91352 45.9283 9.62785 45.9838 10.7849H41.9515Z" fill="#161616"/>
<path d="M51.9887 7.74219C50.7512 7.74219 49.9725 8.35652 49.5417 9.04219L49.4025 7.91385H48.165V18.1415H49.543V13.8848C50.0157 14.6988 50.8778 15.1705 51.9763 15.1705C54.0064 15.1705 55.397 13.6132 55.397 11.4705C55.397 9.32785 54.0048 7.74219 51.9887 7.74219ZM51.7664 13.9422C50.4732 13.9422 49.5417 12.9422 49.5417 11.4565C49.5417 9.98518 50.4732 8.97085 51.7664 8.97085C53.0733 8.97085 53.9909 9.98518 53.9909 11.4565C53.9909 12.9418 53.0733 13.9418 51.7664 13.9418V13.9422Z" fill="#161616"/>
<path d="M61.1626 11.7567L57.7974 5H56.1846V15H57.5612V7.47133L60.6341 13.5713H61.6908L64.7497 7.47133V15H66.1264V5H64.5132L61.1626 11.7567Z" fill="#161616"/>
<path d="M68.5729 7.91406H67.1963V14.9997H68.5729V7.91406Z" fill="#161616"/>
<path d="M67.8782 4.71484C67.3636 4.71484 66.9746 5.08651 66.9746 5.60084C66.9746 6.11518 67.364 6.50084 67.8782 6.50084C68.4064 6.50084 68.7961 6.11518 68.7961 5.60084C68.7961 5.08651 68.4064 4.71484 67.8782 4.71484Z" fill="#161616"/>
<path d="M73.342 7.74219C72.2713 7.74219 71.4095 8.28519 70.9644 9.15652L70.8671 7.91385H69.6436V14.9995H71.0218V11.3419C71.0218 9.79919 71.842 8.95619 72.9685 8.95619C74.081 8.95619 74.6511 9.65618 74.6511 11.0562V14.9995H76.0138V10.9135C76.0119 8.78519 74.9966 7.74219 73.342 7.74219Z" fill="#161616"/>
<path d="M82.6232 4.68359V8.99792C82.1505 8.18359 81.2885 7.71226 80.1763 7.71226C78.1462 7.71226 76.7695 9.26925 76.7695 11.4123C76.7695 13.5552 78.1462 15.1406 80.1623 15.1406C81.4001 15.1406 82.1784 14.5266 82.6232 13.8406L82.7624 14.9692H83.9999V4.68359H82.6232ZM80.3845 13.9119C79.0916 13.9119 78.1598 12.8976 78.1598 11.4263C78.1598 9.94059 79.0916 8.94059 80.3845 8.94059C81.6914 8.94059 82.6093 9.94059 82.6093 11.4263C82.6093 12.8976 81.6918 13.9119 80.3849 13.9119H80.3845Z" fill="#161616"/>
</g>
<defs>
<clipPath id="clip0_2233_1738">
<rect width="84" height="20" fill="white"/>
</clipPath>
</defs>
</svg>
