<svg width="295" height="63" viewBox="0 0 295 63" fill="none" xmlns="http://www.w3.org/2000/svg">
<rect width="294.915" height="62.9948" rx="31.4974" fill="url(#paint0_linear_254_253)"/>
<path d="M84.9435 37.2575C83.064 37.2575 81.5749 36.737 80.4761 35.696C79.3773 34.6406 78.8279 33.137 78.8279 31.1852V27.5418C78.8279 25.59 79.3773 24.0936 80.4761 23.0527C81.5749 21.9972 83.064 21.4695 84.9435 21.4695C86.8086 21.4695 88.2471 21.9828 89.2592 23.0093C90.2857 24.0213 90.799 25.4165 90.799 27.1948V27.3249H87.9797V27.1081C87.9797 26.2117 87.7267 25.4743 87.2206 24.896C86.7291 24.3177 85.97 24.0286 84.9435 24.0286C83.9315 24.0286 83.1363 24.3394 82.558 24.9611C81.9797 25.5828 81.6905 26.4286 81.6905 27.4984V31.2286C81.6905 32.284 81.9797 33.1298 82.558 33.7659C83.1363 34.3876 83.9315 34.6984 84.9435 34.6984C85.97 34.6984 86.7291 34.4093 87.2206 33.831C87.7267 33.2382 87.9797 32.5008 87.9797 31.6189V31.2286H90.799V31.5322C90.799 33.3105 90.2857 34.7129 89.2592 35.7394C88.2471 36.7514 86.8086 37.2575 84.9435 37.2575ZM92.7845 36.9539V21.7731H95.517V36.9539H92.7845ZM98.1113 36.9539V26.1972H100.844V36.9539H98.1113ZM99.4775 24.9394C98.986 24.9394 98.5667 24.7804 98.2197 24.4623C97.8872 24.1442 97.7209 23.7249 97.7209 23.2045C97.7209 22.684 97.8872 22.2647 98.2197 21.9466C98.5667 21.6286 98.986 21.4695 99.4775 21.4695C99.9836 21.4695 100.403 21.6286 100.735 21.9466C101.068 22.2647 101.234 22.684 101.234 23.2045C101.234 23.7249 101.068 24.1442 100.735 24.4623C100.403 24.7804 99.9836 24.9394 99.4775 24.9394ZM108.491 37.2575C107.45 37.2575 106.503 37.0406 105.65 36.6069C104.812 36.1731 104.147 35.5442 103.655 34.7201C103.163 33.896 102.918 32.8984 102.918 31.7274V31.4237C102.918 30.2527 103.163 29.2551 103.655 28.431C104.147 27.6069 104.812 26.978 105.65 26.5442C106.503 26.1105 107.45 25.8936 108.491 25.8936C109.518 25.8936 110.4 26.0743 111.137 26.4358C111.874 26.7972 112.467 27.296 112.915 27.9322C113.378 28.5539 113.681 29.2623 113.826 30.0575L111.18 30.6213C111.122 30.1876 110.992 29.7972 110.79 29.4502C110.587 29.1033 110.298 28.8286 109.922 28.6261C109.561 28.4237 109.106 28.3225 108.556 28.3225C108.007 28.3225 107.508 28.4454 107.06 28.6912C106.626 28.9225 106.279 29.2767 106.019 29.7539C105.773 30.2165 105.65 30.7876 105.65 31.4671V31.684C105.65 32.3635 105.773 32.9418 106.019 33.4189C106.279 33.8816 106.626 34.2358 107.06 34.4816C107.508 34.7129 108.007 34.8286 108.556 34.8286C109.38 34.8286 110.002 34.6189 110.421 34.1996C110.855 33.7659 111.13 33.2021 111.245 32.5081L113.891 33.137C113.703 33.9033 113.378 34.6045 112.915 35.2406C112.467 35.8623 111.874 36.3539 111.137 36.7153C110.4 37.0767 109.518 37.2575 108.491 37.2575ZM115.711 36.9539V21.7731H118.444V30.1659H118.834L122.391 26.1972H125.948L120.981 31.4021L126.121 36.9539H122.608L118.834 32.6816H118.444V36.9539H115.711ZM130.647 37.2575C129.881 37.2575 129.194 37.1274 128.587 36.8671C127.979 36.5924 127.495 36.2021 127.134 35.696C126.787 35.1755 126.613 34.5466 126.613 33.8093C126.613 33.0719 126.787 32.4575 127.134 31.9659C127.495 31.4599 127.987 31.084 128.608 30.8382C129.244 30.578 129.967 30.4478 130.777 30.4478H133.726V29.8406C133.726 29.3346 133.567 28.9225 133.249 28.6045C132.931 28.2719 132.425 28.1057 131.731 28.1057C131.052 28.1057 130.546 28.2647 130.213 28.5828C129.881 28.8864 129.664 29.284 129.562 29.7755L127.047 28.9298C127.22 28.3804 127.495 27.8816 127.871 27.4334C128.261 26.9707 128.775 26.6021 129.411 26.3274C130.061 26.0382 130.849 25.8936 131.775 25.8936C133.191 25.8936 134.312 26.2478 135.136 26.9563C135.96 27.6647 136.372 28.6912 136.372 30.0358V34.0478C136.372 34.4816 136.575 34.6984 136.979 34.6984H137.847V36.9539H136.025C135.49 36.9539 135.049 36.8237 134.702 36.5635C134.355 36.3033 134.182 35.9563 134.182 35.5225V35.5008H133.77C133.712 35.6743 133.582 35.9057 133.379 36.1948C133.177 36.4695 132.859 36.7153 132.425 36.9322C131.991 37.149 131.399 37.2575 130.647 37.2575ZM131.124 35.0454C131.89 35.0454 132.512 34.8358 132.989 34.4165C133.481 33.9828 133.726 33.4117 133.726 32.7033V32.4864H130.972C130.466 32.4864 130.069 32.5948 129.779 32.8117C129.49 33.0286 129.346 33.3322 129.346 33.7225C129.346 34.1129 129.497 34.431 129.801 34.6767C130.105 34.9225 130.546 35.0454 131.124 35.0454ZM145.874 37.2575C144.905 37.2575 144.16 37.0912 143.64 36.7587C143.119 36.4261 142.736 36.0575 142.49 35.6527H142.1V36.9539H139.411V21.7731H142.144V27.4334H142.534C142.693 27.1731 142.903 26.9274 143.163 26.696C143.437 26.4647 143.792 26.2767 144.225 26.1322C144.674 25.9731 145.223 25.8936 145.874 25.8936C146.741 25.8936 147.544 26.1105 148.281 26.5442C149.018 26.9635 149.611 27.5852 150.059 28.4093C150.507 29.2334 150.731 30.231 150.731 31.4021V31.749C150.731 32.9201 150.507 33.9177 150.059 34.7418C149.611 35.5659 149.018 36.1948 148.281 36.6286C147.544 37.0478 146.741 37.2575 145.874 37.2575ZM145.05 34.8719C145.888 34.8719 146.589 34.6045 147.153 34.0695C147.717 33.5201 147.999 32.7249 147.999 31.684V31.4671C147.999 30.4261 147.717 29.6382 147.153 29.1033C146.604 28.5539 145.903 28.2792 145.05 28.2792C144.211 28.2792 143.51 28.5539 142.946 29.1033C142.382 29.6382 142.1 30.4261 142.1 31.4671V31.684C142.1 32.7249 142.382 33.5201 142.946 34.0695C143.51 34.6045 144.211 34.8719 145.05 34.8719ZM152.807 36.9539V21.7731H155.539V36.9539H152.807ZM163.035 37.2575C161.965 37.2575 161.018 37.0334 160.194 36.5852C159.384 36.1225 158.748 35.4792 158.285 34.6551C157.837 33.8165 157.613 32.8334 157.613 31.7057V31.4454C157.613 30.3177 157.837 29.3418 158.285 28.5177C158.734 27.6792 159.363 27.0358 160.172 26.5876C160.982 26.1249 161.922 25.8936 162.991 25.8936C164.047 25.8936 164.965 26.1322 165.746 26.6093C166.526 27.0719 167.134 27.7225 167.567 28.5611C168.001 29.3852 168.218 30.3466 168.218 31.4454V32.378H160.389C160.418 33.1153 160.693 33.7153 161.213 34.178C161.734 34.6406 162.37 34.8719 163.122 34.8719C163.888 34.8719 164.452 34.7057 164.813 34.3731C165.175 34.0406 165.449 33.6719 165.637 33.2671L167.871 34.4382C167.669 34.8141 167.372 35.2261 166.982 35.6743C166.606 36.1081 166.1 36.484 165.464 36.8021C164.828 37.1057 164.018 37.2575 163.035 37.2575ZM160.411 30.3394H165.442C165.384 29.7177 165.131 29.2189 164.683 28.843C164.249 28.4671 163.678 28.2792 162.97 28.2792C162.232 28.2792 161.647 28.4671 161.213 28.843C160.779 29.2189 160.512 29.7177 160.411 30.3394ZM175.202 36.9539V21.7731H181.448C182.402 21.7731 183.241 21.9683 183.964 22.3587C184.701 22.7346 185.272 23.2695 185.677 23.9635C186.096 24.6575 186.306 25.4816 186.306 26.4358V26.7394C186.306 27.6792 186.089 28.5033 185.655 29.2117C185.236 29.9057 184.658 30.4478 183.92 30.8382C183.197 31.2141 182.373 31.4021 181.448 31.4021H178.065V36.9539H175.202ZM178.065 28.7996H181.166C181.846 28.7996 182.395 28.6117 182.814 28.2358C183.234 27.8599 183.443 27.3466 183.443 26.696V26.4792C183.443 25.8286 183.234 25.3153 182.814 24.9394C182.395 24.5635 181.846 24.3755 181.166 24.3755H178.065V28.7996ZM187.944 36.9539V26.1972H190.633V27.4117H191.023C191.182 26.978 191.442 26.6599 191.804 26.4575C192.18 26.2551 192.613 26.1539 193.105 26.1539H194.406V28.5828H193.062C192.368 28.5828 191.797 28.7707 191.348 29.1466C190.9 29.5081 190.676 30.0719 190.676 30.8382V36.9539H187.944ZM200.845 37.2575C199.775 37.2575 198.814 37.0406 197.961 36.6069C197.108 36.1731 196.435 35.5442 195.944 34.7201C195.452 33.896 195.207 32.9057 195.207 31.749V31.4021C195.207 30.2454 195.452 29.2551 195.944 28.431C196.435 27.6069 197.108 26.978 197.961 26.5442C198.814 26.1105 199.775 25.8936 200.845 25.8936C201.915 25.8936 202.876 26.1105 203.729 26.5442C204.582 26.978 205.255 27.6069 205.746 28.431C206.238 29.2551 206.484 30.2454 206.484 31.4021V31.749C206.484 32.9057 206.238 33.896 205.746 34.7201C205.255 35.5442 204.582 36.1731 203.729 36.6069C202.876 37.0406 201.915 37.2575 200.845 37.2575ZM200.845 34.8286C201.684 34.8286 202.378 34.5611 202.927 34.0261C203.476 33.4767 203.751 32.696 203.751 31.684V31.4671C203.751 30.4551 203.476 29.6816 202.927 29.1466C202.392 28.5972 201.698 28.3225 200.845 28.3225C200.007 28.3225 199.313 28.5972 198.763 29.1466C198.214 29.6816 197.939 30.4551 197.939 31.4671V31.684C197.939 32.696 198.214 33.4767 198.763 34.0261C199.313 34.5611 200.007 34.8286 200.845 34.8286ZM212.333 36.9539C211.624 36.9539 211.046 36.737 210.598 36.3033C210.164 35.8551 209.947 35.2623 209.947 34.5249V28.4527H207.258V26.1972H209.947V22.8575H212.68V26.1972H215.629V28.4527H212.68V34.0478C212.68 34.4816 212.882 34.6984 213.287 34.6984H215.369V36.9539H212.333ZM222.406 37.2575C221.336 37.2575 220.374 37.0406 219.521 36.6069C218.668 36.1731 217.996 35.5442 217.504 34.7201C217.013 33.896 216.767 32.9057 216.767 31.749V31.4021C216.767 30.2454 217.013 29.2551 217.504 28.431C217.996 27.6069 218.668 26.978 219.521 26.5442C220.374 26.1105 221.336 25.8936 222.406 25.8936C223.476 25.8936 224.437 26.1105 225.29 26.5442C226.143 26.978 226.815 27.6069 227.307 28.431C227.798 29.2551 228.044 30.2454 228.044 31.4021V31.749C228.044 32.9057 227.798 33.896 227.307 34.7201C226.815 35.5442 226.143 36.1731 225.29 36.6069C224.437 37.0406 223.476 37.2575 222.406 37.2575ZM222.406 34.8286C223.244 34.8286 223.938 34.5611 224.488 34.0261C225.037 33.4767 225.312 32.696 225.312 31.684V31.4671C225.312 30.4551 225.037 29.6816 224.488 29.1466C223.953 28.5972 223.259 28.3225 222.406 28.3225C221.567 28.3225 220.873 28.5972 220.324 29.1466C219.774 29.6816 219.5 30.4551 219.5 31.4671V31.684C219.5 32.696 219.774 33.4767 220.324 34.0261C220.873 34.5611 221.567 34.8286 222.406 34.8286ZM233.893 36.9539C233.185 36.9539 232.606 36.737 232.158 36.3033C231.725 35.8551 231.508 35.2623 231.508 34.5249V28.4527H228.818V26.1972H231.508V22.8575H234.24V26.1972H237.19V28.4527H234.24V34.0478C234.24 34.4816 234.443 34.6984 234.847 34.6984H236.929V36.9539H233.893ZM240.4 41.2912V38.9057H246.256C246.661 38.9057 246.863 38.6888 246.863 38.2551V35.5442H246.473C246.357 35.79 246.176 36.0358 245.931 36.2816C245.685 36.5274 245.352 36.7298 244.933 36.8888C244.514 37.0478 243.979 37.1274 243.328 37.1274C242.49 37.1274 241.752 36.9394 241.116 36.5635C240.494 36.1731 240.01 35.6382 239.663 34.9587C239.316 34.2792 239.143 33.4984 239.143 32.6165V26.1972H241.875V32.3996C241.875 33.2093 242.07 33.8165 242.461 34.2213C242.865 34.6261 243.437 34.8286 244.174 34.8286C245.012 34.8286 245.663 34.5539 246.126 34.0045C246.588 33.4406 246.82 32.6599 246.82 31.6623V26.1972H249.552V38.8623C249.552 39.5996 249.335 40.1852 248.902 40.6189C248.468 41.0671 247.89 41.2912 247.167 41.2912H240.4ZM252.159 41.2912V26.1972H254.848V27.4984H255.239C255.484 27.0792 255.868 26.7105 256.388 26.3924C256.909 26.0599 257.653 25.8936 258.622 25.8936C259.489 25.8936 260.292 26.1105 261.029 26.5442C261.766 26.9635 262.359 27.5852 262.807 28.4093C263.256 29.2334 263.48 30.231 263.48 31.4021V31.749C263.48 32.9201 263.256 33.9177 262.807 34.7418C262.359 35.5659 261.766 36.1948 261.029 36.6286C260.292 37.0478 259.489 37.2575 258.622 37.2575C257.971 37.2575 257.422 37.178 256.974 37.0189C256.54 36.8743 256.186 36.6864 255.911 36.4551C255.651 36.2093 255.441 35.9635 255.282 35.7177H254.892V41.2912H252.159ZM257.798 34.8719C258.651 34.8719 259.352 34.6045 259.901 34.0695C260.465 33.5201 260.747 32.7249 260.747 31.684V31.4671C260.747 30.4261 260.465 29.6382 259.901 29.1033C259.337 28.5539 258.636 28.2792 257.798 28.2792C256.959 28.2792 256.258 28.5539 255.694 29.1033C255.13 29.6382 254.848 30.4261 254.848 31.4671V31.684C254.848 32.7249 255.13 33.5201 255.694 34.0695C256.258 34.6045 256.959 34.8719 257.798 34.8719ZM270.456 37.2575C269.386 37.2575 268.439 37.0334 267.615 36.5852C266.806 36.1225 266.169 35.4792 265.707 34.6551C265.259 33.8165 265.035 32.8334 265.035 31.7057V31.4454C265.035 30.3177 265.259 29.3418 265.707 28.5177C266.155 27.6792 266.784 27.0358 267.594 26.5876C268.403 26.1249 269.343 25.8936 270.413 25.8936C271.468 25.8936 272.386 26.1322 273.167 26.6093C273.948 27.0719 274.555 27.7225 274.989 28.5611C275.422 29.3852 275.639 30.3466 275.639 31.4454V32.378H267.81C267.839 33.1153 268.114 33.7153 268.635 34.178C269.155 34.6406 269.791 34.8719 270.543 34.8719C271.309 34.8719 271.873 34.7057 272.235 34.3731C272.596 34.0406 272.871 33.6719 273.059 33.2671L275.292 34.4382C275.09 34.8141 274.794 35.2261 274.403 35.6743C274.027 36.1081 273.521 36.484 272.885 36.8021C272.249 37.1057 271.439 37.2575 270.456 37.2575ZM267.832 30.3394H272.863C272.806 29.7177 272.553 29.2189 272.104 28.843C271.671 28.4671 271.1 28.2792 270.391 28.2792C269.654 28.2792 269.068 28.4671 268.635 28.843C268.201 29.2189 267.933 29.7177 267.832 30.3394Z" fill="white"/>
<circle cx="33.5628" cy="31.4975" r="24.2685" fill="white"/>
<g clip-path="url(#clip0_254_253)">
<path d="M43.9682 21.6058C43.9163 20.6526 43.1582 19.8946 42.2049 19.8426C40.2816 19.7375 36.5179 19.8398 32.9189 21.7012C31.0843 22.6502 29.1439 24.2592 27.5954 26.1155C27.5764 26.1384 27.5578 26.1614 27.5389 26.1843L24.0247 26.4558C23.4462 26.5005 22.931 26.8037 22.6111 27.2876L20.2136 30.9139C19.9709 31.2808 19.9324 31.7401 20.1103 32.1424C20.2883 32.5447 20.6541 32.825 21.0888 32.8924L24.0495 33.351C24.0391 33.4085 24.0286 33.466 24.019 33.5236C23.9204 34.1132 24.1157 34.7194 24.5416 35.1452L28.6656 39.2693C29.0187 39.6223 29.4958 39.817 29.9846 39.817C30.0853 39.817 30.1865 39.8087 30.2873 39.7918C30.3448 39.7822 30.4023 39.7717 30.4599 39.7613L30.9184 42.722C30.9858 43.1567 31.2662 43.5226 31.6684 43.7005C31.8358 43.7746 32.0129 43.8111 32.1892 43.8111C32.4368 43.8111 32.6827 43.739 32.8969 43.5973L36.5232 41.1998C37.0072 40.8798 37.3103 40.3646 37.3549 39.7862L37.6264 36.272C37.6493 36.2531 37.6724 36.2345 37.6952 36.2155C39.5516 34.667 41.1606 32.7266 42.1096 30.8919C43.9711 27.2929 44.0732 23.5291 43.9682 21.6058ZM35.7478 40.0268L32.279 42.3202L31.8321 39.4348C33.2981 39.0037 34.7484 38.3134 36.13 37.3885L35.9532 39.6778C35.9422 39.8206 35.8673 39.9479 35.7478 40.0268ZM29.6598 38.275L25.5358 34.151C25.4305 34.0457 25.3819 33.8978 25.4057 33.7554C25.5284 33.0222 25.7189 32.3243 25.9547 31.6668L32.1426 37.8548C31.353 38.1376 30.6457 38.3063 30.0554 38.4051C29.9127 38.4288 29.7651 38.3803 29.6598 38.275ZM24.133 27.8577L26.4222 27.6808C25.4973 29.0625 24.807 30.5127 24.3759 31.9787L21.4905 31.5319L23.784 28.063C23.863 27.9435 23.9902 27.8687 24.133 27.8577ZM36.7947 35.1357C35.6589 36.083 34.5565 36.7682 33.5403 37.264L26.5465 30.2703C27.196 28.9437 27.9887 27.8391 28.6751 27.0162C30.1081 25.2982 31.8904 23.8162 33.565 22.9501C36.868 21.2416 40.348 21.1496 42.1284 21.2465C42.3641 21.2594 42.5515 21.4468 42.5643 21.6825C42.6614 23.4629 42.5692 26.9429 40.8607 30.2459C39.9946 31.9204 38.5126 33.7027 36.7947 35.1357Z" fill="url(#paint1_linear_254_253)"/>
<path d="M36.4376 30.8863C37.3376 30.8862 38.2379 30.5436 38.9231 29.8585C39.587 29.1946 39.9526 28.3119 39.9526 27.373C39.9526 26.4341 39.587 25.5514 38.9231 24.8875C37.5526 23.5169 35.3226 23.517 33.9522 24.8875C33.2882 25.5514 32.9226 26.4341 32.9226 27.373C32.9226 28.3119 33.2883 29.1946 33.9522 29.8585C34.6375 30.5438 35.5373 30.8864 36.4376 30.8863ZM34.9463 25.8817C35.3574 25.4705 35.8975 25.2649 36.4375 25.2649C36.9777 25.2649 37.5177 25.4705 37.9288 25.8817C38.3272 26.28 38.5465 26.8096 38.5465 27.3729C38.5465 27.9362 38.3272 28.4659 37.9288 28.8642C37.1066 29.6865 35.7685 29.6865 34.9462 28.8642C34.5479 28.4659 34.3285 27.9363 34.3285 27.373C34.3285 26.8097 34.548 26.28 34.9463 25.8817Z" fill="url(#paint2_linear_254_253)"/>
<path d="M20.7172 39.5895C20.8971 39.5895 21.077 39.5209 21.2142 39.3836L23.5095 37.0883C23.7841 36.8138 23.7841 36.3687 23.5095 36.0941C23.235 35.8195 22.7899 35.8195 22.5153 36.0941L20.2201 38.3894C19.9455 38.6639 19.9455 39.109 20.2201 39.3836C20.3573 39.5209 20.5372 39.5895 20.7172 39.5895Z" fill="url(#paint3_linear_254_253)"/>
<path d="M25.6131 38.1976C25.3386 37.9231 24.8934 37.9231 24.6189 38.1976L20.206 42.6105C19.9315 42.8851 19.9315 43.3302 20.206 43.6047C20.3433 43.742 20.5232 43.8106 20.7031 43.8106C20.8831 43.8106 21.063 43.742 21.2002 43.6047L25.613 39.1918C25.8877 38.9173 25.8877 38.4722 25.6131 38.1976Z" fill="url(#paint4_linear_254_253)"/>
<path d="M26.7223 40.3011L24.427 42.5964C24.1524 42.871 24.1524 43.3161 24.427 43.5906C24.5643 43.7279 24.7442 43.7966 24.9241 43.7966C25.104 43.7966 25.2839 43.728 25.4212 43.5906L27.7164 41.2953C27.991 41.0208 27.991 40.5757 27.7164 40.3011C27.4419 40.0266 26.9968 40.0266 26.7223 40.3011Z" fill="url(#paint5_linear_254_253)"/>
</g>
<defs>
<linearGradient id="paint0_linear_254_253" x1="435.5" y1="113.314" x2="-21.3683" y2="24.8664" gradientUnits="userSpaceOnUse">
<stop stop-color="#80E5FF"/>
<stop offset="1" stop-color="#545C9E"/>
</linearGradient>
<linearGradient id="paint1_linear_254_253" x1="19.2212" y1="19.7249" x2="44.4222" y2="23.241" gradientUnits="userSpaceOnUse">
<stop stop-color="#0B1E54"/>
<stop offset="1" stop-color="#4FABFF"/>
</linearGradient>
<linearGradient id="paint2_linear_254_253" x1="32.6945" y1="23.8334" x2="40.0772" y2="24.8639" gradientUnits="userSpaceOnUse">
<stop stop-color="#0B1E54"/>
<stop offset="1" stop-color="#4FABFF"/>
</linearGradient>
<linearGradient id="paint3_linear_254_253" x1="19.8941" y1="35.8744" x2="23.7811" y2="36.4167" gradientUnits="userSpaceOnUse">
<stop stop-color="#0B1E54"/>
<stop offset="1" stop-color="#4FABFF"/>
</linearGradient>
<linearGradient id="paint4_linear_254_253" x1="19.8113" y1="37.97" x2="25.9223" y2="38.8226" gradientUnits="userSpaceOnUse">
<stop stop-color="#0B1E54"/>
<stop offset="1" stop-color="#4FABFF"/>
</linearGradient>
<linearGradient id="paint5_linear_254_253" x1="24.101" y1="40.0814" x2="27.988" y2="40.6237" gradientUnits="userSpaceOnUse">
<stop stop-color="#0B1E54"/>
<stop offset="1" stop-color="#4FABFF"/>
</linearGradient>
<clipPath id="clip0_254_253">
<rect width="23.9966" height="23.9966" fill="white" transform="translate(20 19.8142)"/>
</clipPath>
</defs>
</svg>
