<svg width="303" height="63" viewBox="0 0 303 63" fill="none" xmlns="http://www.w3.org/2000/svg">
<rect width="302.434" height="62.9948" rx="31.4974" fill="url(#paint0_linear_254_271)"/>
<path d="M78.884 38.5232V23.3425H88.4261V25.9449H81.7466V29.6099H87.9056V32.2123H81.7466V38.5232H78.884ZM94.9381 38.8268C93.8682 38.8268 92.9212 38.6027 92.0971 38.1545C91.2875 37.6919 90.6513 37.0485 90.1887 36.2244C89.7405 35.3858 89.5164 34.4027 89.5164 33.275V33.0148C89.5164 31.887 89.7405 30.9111 90.1887 30.087C90.6369 29.2485 91.2658 28.6051 92.0754 28.1569C92.8851 27.6943 93.8248 27.463 94.8947 27.463C95.9501 27.463 96.8682 27.7015 97.6489 28.1786C98.4297 28.6413 99.0369 29.2919 99.4706 30.1304C99.9043 30.9545 100.121 31.916 100.121 33.0148V33.9473H92.2923C92.3212 34.6846 92.5959 35.2846 93.1164 35.7473C93.6369 36.2099 94.273 36.4413 95.0248 36.4413C95.7911 36.4413 96.355 36.275 96.7164 35.9425C97.0778 35.6099 97.3525 35.2413 97.5405 34.8364L99.7742 36.0075C99.5718 36.3834 99.2754 36.7955 98.8851 37.2437C98.5092 37.6774 98.0031 38.0533 97.367 38.3714C96.7309 38.675 95.9212 38.8268 94.9381 38.8268ZM92.314 31.9087H97.3453C97.2875 31.287 97.0345 30.7883 96.5863 30.4123C96.1525 30.0364 95.5815 29.8485 94.873 29.8485C94.1357 29.8485 93.5501 30.0364 93.1164 30.4123C92.6827 30.7883 92.4152 31.287 92.314 31.9087ZM105.459 38.8268C104.693 38.8268 104.006 38.6967 103.399 38.4364C102.792 38.1617 102.308 37.7714 101.946 37.2654C101.599 36.7449 101.426 36.116 101.426 35.3786C101.426 34.6413 101.599 34.0268 101.946 33.5352C102.308 33.0292 102.799 32.6533 103.421 32.4075C104.057 32.1473 104.78 32.0172 105.589 32.0172H108.539V31.4099C108.539 30.9039 108.38 30.4919 108.062 30.1738C107.744 29.8413 107.238 29.675 106.544 29.675C105.864 29.675 105.358 29.834 105.026 30.1521C104.693 30.4557 104.476 30.8533 104.375 31.3449L101.859 30.4991C102.033 29.9497 102.308 29.4509 102.683 29.0027C103.074 28.5401 103.587 28.1714 104.223 27.8967C104.874 27.6075 105.662 27.463 106.587 27.463C108.004 27.463 109.124 27.8172 109.949 28.5256C110.773 29.234 111.185 30.2605 111.185 31.6051V35.6172C111.185 36.0509 111.387 36.2678 111.792 36.2678H112.659V38.5232H110.838C110.303 38.5232 109.862 38.3931 109.515 38.1328C109.168 37.8726 108.994 37.5256 108.994 37.0919V37.0702H108.582C108.524 37.2437 108.394 37.475 108.192 37.7642C107.989 38.0389 107.671 38.2846 107.238 38.5015C106.804 38.7184 106.211 38.8268 105.459 38.8268ZM105.936 36.6148C106.703 36.6148 107.324 36.4051 107.802 35.9858C108.293 35.5521 108.539 34.981 108.539 34.2726V34.0557H105.785C105.279 34.0557 104.881 34.1642 104.592 34.381C104.303 34.5979 104.158 34.9015 104.158 35.2919C104.158 35.6822 104.31 36.0003 104.614 36.2461C104.917 36.4919 105.358 36.6148 105.936 36.6148ZM117.56 38.5232C116.852 38.5232 116.274 38.3063 115.825 37.8726C115.392 37.4244 115.175 36.8316 115.175 36.0943V30.022H112.486V27.7666H115.175V24.4268H117.907V27.7666H120.857V30.022H117.907V35.6172C117.907 36.0509 118.11 36.2678 118.515 36.2678H120.597V38.5232H117.56ZM126.995 38.6967C126.157 38.6967 125.419 38.5087 124.783 38.1328C124.162 37.7425 123.677 37.2075 123.33 36.528C122.983 35.8485 122.81 35.0678 122.81 34.1858V27.7666H125.542V33.969C125.542 34.7786 125.737 35.3858 126.128 35.7907C126.533 36.1955 127.104 36.3979 127.841 36.3979C128.68 36.3979 129.33 36.1232 129.793 35.5738C130.256 35.0099 130.487 34.2292 130.487 33.2316V27.7666H133.219V38.5232H130.53V37.1136H130.14C129.966 37.475 129.641 37.8292 129.164 38.1762C128.687 38.5232 127.964 38.6967 126.995 38.6967ZM135.826 38.5232V27.7666H138.516V28.981H138.906C139.065 28.5473 139.325 28.2292 139.687 28.0268C140.063 27.8244 140.496 27.7232 140.988 27.7232H142.289V30.1521H140.944C140.251 30.1521 139.679 30.3401 139.231 30.716C138.783 31.0774 138.559 31.6413 138.559 32.4075V38.5232H135.826ZM148.511 38.8268C147.441 38.8268 146.494 38.6027 145.67 38.1545C144.861 37.6919 144.224 37.0485 143.762 36.2244C143.314 35.3858 143.089 34.4027 143.089 33.275V33.0148C143.089 31.887 143.314 30.9111 143.762 30.087C144.21 29.2485 144.839 28.6051 145.648 28.1569C146.458 27.6943 147.398 27.463 148.468 27.463C149.523 27.463 150.441 27.7015 151.222 28.1786C152.003 28.6413 152.61 29.2919 153.044 30.1304C153.477 30.9545 153.694 31.916 153.694 33.0148V33.9473H145.865C145.894 34.6846 146.169 35.2846 146.689 35.7473C147.21 36.2099 147.846 36.4413 148.598 36.4413C149.364 36.4413 149.928 36.275 150.289 35.9425C150.651 35.6099 150.926 35.2413 151.114 34.8364L153.347 36.0075C153.145 36.3834 152.848 36.7955 152.458 37.2437C152.082 37.6774 151.576 38.0533 150.94 38.3714C150.304 38.675 149.494 38.8268 148.511 38.8268ZM145.887 31.9087H150.918C150.861 31.287 150.608 30.7883 150.159 30.4123C149.726 30.0364 149.155 29.8485 148.446 29.8485C147.709 29.8485 147.123 30.0364 146.689 30.4123C146.256 30.7883 145.988 31.287 145.887 31.9087ZM160.245 38.5232V36.0075H162.24V25.8581H160.245V23.3425H168.052C168.977 23.3425 169.78 23.5015 170.459 23.8196C171.153 24.1232 171.688 24.5642 172.064 25.1425C172.454 25.7063 172.65 26.3858 172.65 27.181V27.3979C172.65 28.0919 172.52 28.663 172.259 29.1111C171.999 29.5449 171.688 29.8846 171.327 30.1304C170.98 30.3617 170.647 30.528 170.329 30.6292V31.0196C170.647 31.1063 170.994 31.2726 171.37 31.5184C171.746 31.7497 172.064 32.0895 172.324 32.5377C172.599 32.9858 172.736 33.5714 172.736 34.2943V34.5111C172.736 35.3497 172.541 36.0726 172.151 36.6798C171.761 37.2726 171.218 37.728 170.524 38.0461C169.845 38.3642 169.05 38.5232 168.139 38.5232H160.245ZM165.103 35.9208H167.792C168.414 35.9208 168.912 35.769 169.288 35.4654C169.679 35.1617 169.874 34.728 169.874 34.1642V33.9473C169.874 33.3834 169.686 32.9497 169.31 32.6461C168.934 32.3425 168.428 32.1907 167.792 32.1907H165.103V35.9208ZM165.103 29.5883H167.748C168.341 29.5883 168.826 29.4364 169.201 29.1328C169.592 28.8292 169.787 28.4099 169.787 27.875V27.6581C169.787 27.1087 169.599 26.6895 169.223 26.4003C168.847 26.0967 168.356 25.9449 167.748 25.9449H165.103V29.5883ZM174.733 38.5232V27.7666H177.422V28.981H177.812C177.972 28.5473 178.232 28.2292 178.593 28.0268C178.969 27.8244 179.403 27.7232 179.894 27.7232H181.196V30.1521H179.851C179.157 30.1521 178.586 30.3401 178.138 30.716C177.69 31.0774 177.465 31.6413 177.465 32.4075V38.5232H174.733ZM187.418 38.8268C186.348 38.8268 185.401 38.6027 184.577 38.1545C183.767 37.6919 183.131 37.0485 182.668 36.2244C182.22 35.3858 181.996 34.4027 181.996 33.275V33.0148C181.996 31.887 182.22 30.9111 182.668 30.087C183.116 29.2485 183.745 28.6051 184.555 28.1569C185.365 27.6943 186.304 27.463 187.374 27.463C188.43 27.463 189.348 27.7015 190.129 28.1786C190.909 28.6413 191.516 29.2919 191.95 30.1304C192.384 30.9545 192.601 31.916 192.601 33.0148V33.9473H184.772C184.801 34.6846 185.075 35.2846 185.596 35.7473C186.116 36.2099 186.753 36.4413 187.504 36.4413C188.271 36.4413 188.835 36.275 189.196 35.9425C189.557 35.6099 189.832 35.2413 190.02 34.8364L192.254 36.0075C192.051 36.3834 191.755 36.7955 191.365 37.2437C190.989 37.6774 190.483 38.0533 189.847 38.3714C189.21 38.675 188.401 38.8268 187.418 38.8268ZM184.794 31.9087H189.825C189.767 31.287 189.514 30.7883 189.066 30.4123C188.632 30.0364 188.061 29.8485 187.353 29.8485C186.615 29.8485 186.03 30.0364 185.596 30.4123C185.162 30.7883 184.895 31.287 184.794 31.9087ZM197.939 38.8268C197.173 38.8268 196.486 38.6967 195.879 38.4364C195.271 38.1617 194.787 37.7714 194.426 37.2654C194.079 36.7449 193.905 36.116 193.905 35.3786C193.905 34.6413 194.079 34.0268 194.426 33.5352C194.787 33.0292 195.279 32.6533 195.9 32.4075C196.537 32.1473 197.259 32.0172 198.069 32.0172H201.018V31.4099C201.018 30.9039 200.859 30.4919 200.541 30.1738C200.223 29.8413 199.717 29.675 199.023 29.675C198.344 29.675 197.838 29.834 197.505 30.1521C197.173 30.4557 196.956 30.8533 196.855 31.3449L194.339 30.4991C194.512 29.9497 194.787 29.4509 195.163 29.0027C195.553 28.5401 196.067 28.1714 196.703 27.8967C197.353 27.6075 198.141 27.463 199.067 27.463C200.484 27.463 201.604 27.8172 202.428 28.5256C203.252 29.234 203.664 30.2605 203.664 31.6051V35.6172C203.664 36.0509 203.867 36.2678 204.271 36.2678H205.139V38.5232H203.317C202.782 38.5232 202.341 38.3931 201.994 38.1328C201.647 37.8726 201.474 37.5256 201.474 37.0919V37.0702H201.062C201.004 37.2437 200.874 37.475 200.671 37.7642C200.469 38.0389 200.151 38.2846 199.717 38.5015C199.284 38.7184 198.691 38.8268 197.939 38.8268ZM198.416 36.6148C199.182 36.6148 199.804 36.4051 200.281 35.9858C200.773 35.5521 201.018 34.981 201.018 34.2726V34.0557H198.264C197.758 34.0557 197.361 34.1642 197.071 34.381C196.782 34.5979 196.638 34.9015 196.638 35.2919C196.638 35.6822 196.79 36.0003 197.093 36.2461C197.397 36.4919 197.838 36.6148 198.416 36.6148ZM206.703 38.5232V23.3425H209.436V31.7352H209.826L213.383 27.7666H216.939L211.973 32.9714L217.113 38.5232H213.599L209.826 34.2509H209.436V38.5232H206.703ZM222.191 38.8268C221.338 38.8268 220.536 38.6172 219.784 38.1979C219.047 37.7642 218.454 37.1352 218.006 36.3111C217.558 35.487 217.334 34.4895 217.334 33.3184V32.9714C217.334 31.8003 217.558 30.8027 218.006 29.9786C218.454 29.1545 219.047 28.5328 219.784 28.1136C220.521 27.6798 221.324 27.463 222.191 27.463C222.842 27.463 223.384 27.5425 223.818 27.7015C224.266 27.8461 224.627 28.034 224.902 28.2654C225.177 28.4967 225.387 28.7425 225.531 29.0027H225.921V23.3425H228.654V38.5232H225.965V37.222H225.574C225.329 37.6268 224.946 37.9955 224.425 38.328C223.919 38.6605 223.174 38.8268 222.191 38.8268ZM223.015 36.4413C223.854 36.4413 224.555 36.1738 225.119 35.6389C225.683 35.0895 225.965 34.2943 225.965 33.2533V33.0364C225.965 31.9955 225.683 31.2075 225.119 30.6726C224.57 30.1232 223.868 29.8485 223.015 29.8485C222.177 29.8485 221.476 30.1232 220.912 30.6726C220.348 31.2075 220.066 31.9955 220.066 33.0364V33.2533C220.066 34.2943 220.348 35.0895 220.912 35.6389C221.476 36.1738 222.177 36.4413 223.015 36.4413ZM236.368 38.8268C235.298 38.8268 234.337 38.6099 233.484 38.1762C232.631 37.7425 231.958 37.1136 231.467 36.2895C230.975 35.4654 230.729 34.475 230.729 33.3184V32.9714C230.729 31.8148 230.975 30.8244 231.467 30.0003C231.958 29.1762 232.631 28.5473 233.484 28.1136C234.337 27.6798 235.298 27.463 236.368 27.463C237.438 27.463 238.399 27.6798 239.252 28.1136C240.105 28.5473 240.778 29.1762 241.269 30.0003C241.761 30.8244 242.006 31.8148 242.006 32.9714V33.3184C242.006 34.475 241.761 35.4654 241.269 36.2895C240.778 37.1136 240.105 37.7425 239.252 38.1762C238.399 38.6099 237.438 38.8268 236.368 38.8268ZM236.368 36.3979C237.206 36.3979 237.9 36.1304 238.45 35.5955C238.999 35.0461 239.274 34.2654 239.274 33.2533V33.0364C239.274 32.0244 238.999 31.2509 238.45 30.716C237.915 30.1666 237.221 29.8919 236.368 29.8919C235.529 29.8919 234.835 30.1666 234.286 30.716C233.737 31.2509 233.462 32.0244 233.462 33.0364V33.2533C233.462 34.2654 233.737 35.0461 234.286 35.5955C234.835 36.1304 235.529 36.3979 236.368 36.3979ZM244.92 38.5232L243.402 27.7666H246.113L247.067 36.6798H247.457L248.845 27.7666H253.226L254.614 36.6798H255.004L255.959 27.7666H258.669L257.151 38.5232H252.619L251.231 29.6099H250.841L249.453 38.5232H244.92ZM260.625 38.5232V27.7666H263.314V29.1762H263.705C263.878 28.8003 264.203 28.4461 264.681 28.1136C265.158 27.7666 265.881 27.5931 266.849 27.5931C267.688 27.5931 268.418 27.7883 269.04 28.1786C269.676 28.5545 270.167 29.0822 270.514 29.7617C270.861 30.4268 271.035 31.2075 271.035 32.1039V38.5232H268.302V32.3208C268.302 31.5111 268.1 30.9039 267.695 30.4991C267.305 30.0943 266.741 29.8919 266.003 29.8919C265.165 29.8919 264.514 30.1738 264.052 30.7377C263.589 31.287 263.358 32.0605 263.358 33.0581V38.5232H260.625Z" fill="white"/>
<circle cx="33.5629" cy="31.4975" r="24.2685" fill="white"/>
<path d="M41 30.3318H39C36.58 30.3318 35.25 29.0018 35.25 26.5818V24.5818C35.25 22.1618 36.58 20.8318 39 20.8318H41C43.42 20.8318 44.75 22.1618 44.75 24.5818V26.5818C44.75 29.0018 43.42 30.3318 41 30.3318ZM39 22.3318C37.42 22.3318 36.75 23.0018 36.75 24.5818V26.5818C36.75 28.1618 37.42 28.8318 39 28.8318H41C42.58 28.8318 43.25 28.1618 43.25 26.5818V24.5818C43.25 23.0018 42.58 22.3318 41 22.3318H39Z" fill="url(#paint1_linear_254_271)"/>
<path d="M29 42.3318H27C24.58 42.3318 23.25 41.0018 23.25 38.5818V36.5818C23.25 34.1618 24.58 32.8318 27 32.8318H29C31.42 32.8318 32.75 34.1618 32.75 36.5818V38.5818C32.75 41.0018 31.42 42.3318 29 42.3318ZM27 34.3318C25.42 34.3318 24.75 35.0018 24.75 36.5818V38.5818C24.75 40.1618 25.42 40.8318 27 40.8318H29C30.58 40.8318 31.25 40.1618 31.25 38.5818V36.5818C31.25 35.0018 30.58 34.3318 29 34.3318H27Z" fill="url(#paint2_linear_254_271)"/>
<path d="M28 30.3318C25.38 30.3318 23.25 28.2018 23.25 25.5818C23.25 22.9618 25.38 20.8318 28 20.8318C30.62 20.8318 32.75 22.9618 32.75 25.5818C32.75 28.2018 30.62 30.3318 28 30.3318ZM28 22.3318C26.21 22.3318 24.75 23.7918 24.75 25.5818C24.75 27.3718 26.21 28.8318 28 28.8318C29.79 28.8318 31.25 27.3718 31.25 25.5818C31.25 23.7918 29.79 22.3318 28 22.3318Z" fill="url(#paint3_linear_254_271)"/>
<path d="M40 42.3318C37.38 42.3318 35.25 40.2018 35.25 37.5818C35.25 34.9618 37.38 32.8318 40 32.8318C42.62 32.8318 44.75 34.9618 44.75 37.5818C44.75 40.2018 42.62 42.3318 40 42.3318ZM40 34.3318C38.21 34.3318 36.75 35.7918 36.75 37.5818C36.75 39.3718 38.21 40.8318 40 40.8318C41.79 40.8318 43.25 39.3718 43.25 37.5818C43.25 35.7918 41.79 34.3318 40 34.3318Z" fill="url(#paint4_linear_254_271)"/>
<defs>
<linearGradient id="paint0_linear_254_271" x1="446.602" y1="113.314" x2="-21.0407" y2="20.4725" gradientUnits="userSpaceOnUse">
<stop stop-color="#80E5FF"/>
<stop offset="1" stop-color="#545C9E"/>
</linearGradient>
<linearGradient id="paint1_linear_254_271" x1="34.9418" y1="20.7963" x2="44.9186" y2="22.1883" gradientUnits="userSpaceOnUse">
<stop stop-color="#0B1E54"/>
<stop offset="1" stop-color="#4FABFF"/>
</linearGradient>
<linearGradient id="paint2_linear_254_271" x1="22.9418" y1="32.7963" x2="32.9186" y2="34.1883" gradientUnits="userSpaceOnUse">
<stop stop-color="#0B1E54"/>
<stop offset="1" stop-color="#4FABFF"/>
</linearGradient>
<linearGradient id="paint3_linear_254_271" x1="22.9418" y1="20.7963" x2="32.9186" y2="22.1883" gradientUnits="userSpaceOnUse">
<stop stop-color="#0B1E54"/>
<stop offset="1" stop-color="#4FABFF"/>
</linearGradient>
<linearGradient id="paint4_linear_254_271" x1="34.9418" y1="32.7963" x2="44.9186" y2="34.1883" gradientUnits="userSpaceOnUse">
<stop stop-color="#0B1E54"/>
<stop offset="1" stop-color="#4FABFF"/>
</linearGradient>
</defs>
</svg>
