<svg width="380" height="63" viewBox="0 0 380 63" fill="none" xmlns="http://www.w3.org/2000/svg">
<rect width="379.434" height="62.9948" rx="31.4974" fill="url(#paint0_linear_254_259)"/>
<path d="M84.1322 38.8268C83.0912 38.8268 82.1442 38.5955 81.2912 38.1328C80.4526 37.6557 79.7803 36.969 79.2743 36.0726C78.7828 35.1617 78.537 34.0557 78.537 32.7545V29.1111C78.537 27.1593 79.0864 25.663 80.1852 24.622C81.284 23.5666 82.7731 23.0389 84.6526 23.0389C86.5177 23.0389 87.9563 23.5377 88.9683 24.5352C89.9948 25.5184 90.5081 26.8557 90.5081 28.5473V28.634H87.6888V28.4605C87.6888 27.9256 87.5731 27.4413 87.3418 27.0075C87.1249 26.5738 86.7924 26.234 86.3442 25.9883C85.896 25.728 85.3322 25.5979 84.6526 25.5979C83.6406 25.5979 82.8454 25.9087 82.2671 26.5304C81.6888 27.1521 81.3996 27.9979 81.3996 29.0678V32.7979C81.3996 33.8533 81.6888 34.7063 82.2671 35.3569C82.8454 35.9931 83.655 36.3111 84.696 36.3111C85.737 36.3111 86.496 36.0364 86.9731 35.487C87.4502 34.9377 87.6888 34.2437 87.6888 33.4051V33.1883H84.0888V30.7593H90.5081V38.5232H87.8623V37.0702H87.4719C87.3707 37.316 87.2044 37.5762 86.9731 37.8509C86.7563 38.1256 86.4237 38.3569 85.9755 38.5449C85.5273 38.7328 84.9129 38.8268 84.1322 38.8268ZM96.2357 38.8268C95.4695 38.8268 94.7827 38.6967 94.1755 38.4364C93.5683 38.1617 93.0839 37.7714 92.7225 37.2654C92.3755 36.7449 92.202 36.116 92.202 35.3786C92.202 34.6413 92.3755 34.0268 92.7225 33.5352C93.0839 33.0292 93.5755 32.6533 94.1972 32.4075C94.8333 32.1473 95.5562 32.0172 96.3659 32.0172H99.3152V31.4099C99.3152 30.9039 99.1562 30.4919 98.8381 30.1738C98.5201 29.8413 98.014 29.675 97.3201 29.675C96.6406 29.675 96.1345 29.834 95.802 30.1521C95.4695 30.4557 95.2526 30.8533 95.1514 31.3449L92.6357 30.4991C92.8092 29.9497 93.0839 29.4509 93.4598 29.0027C93.8502 28.5401 94.3634 28.1714 94.9996 27.8967C95.6502 27.6075 96.4381 27.463 97.3634 27.463C98.7803 27.463 99.9008 27.8172 100.725 28.5256C101.549 29.234 101.961 30.2605 101.961 31.6051V35.6172C101.961 36.0509 102.163 36.2678 102.568 36.2678H103.436V38.5232H101.614C101.079 38.5232 100.638 38.3931 100.291 38.1328C99.9442 37.8726 99.7707 37.5256 99.7707 37.0919V37.0702H99.3586C99.3008 37.2437 99.1707 37.475 98.9683 37.7642C98.7659 38.0389 98.4478 38.2846 98.014 38.5015C97.5803 38.7184 96.9875 38.8268 96.2357 38.8268ZM96.7128 36.6148C97.4791 36.6148 98.1008 36.4051 98.5779 35.9858C99.0695 35.5521 99.3152 34.981 99.3152 34.2726V34.0557H96.561C96.055 34.0557 95.6574 34.1642 95.3683 34.381C95.0791 34.5979 94.9345 34.9015 94.9345 35.2919C94.9345 35.6822 95.0863 36.0003 95.3899 36.2461C95.6936 36.4919 96.1345 36.6148 96.7128 36.6148ZM105 38.5232V27.7666H107.689V29.1762H108.079C108.253 28.8003 108.578 28.4461 109.055 28.1136C109.532 27.7666 110.255 27.5931 111.224 27.5931C112.063 27.5931 112.793 27.7883 113.414 28.1786C114.05 28.5545 114.542 29.0822 114.889 29.7617C115.236 30.4268 115.41 31.2075 115.41 32.1039V38.5232H112.677V32.3208C112.677 31.5111 112.475 30.9039 112.07 30.4991C111.679 30.0943 111.116 29.8919 110.378 29.8919C109.54 29.8919 108.889 30.1738 108.426 30.7377C107.964 31.287 107.732 32.0605 107.732 33.0581V38.5232H105ZM121.754 38.5232C121.045 38.5232 120.467 38.3063 120.019 37.8726C119.585 37.4244 119.368 36.8316 119.368 36.0943V30.022H116.679V27.7666H119.368V24.4268H122.101V27.7666H125.05V30.022H122.101V35.6172C122.101 36.0509 122.303 36.2678 122.708 36.2678H124.79V38.5232H121.754ZM128.394 38.5232C127.685 38.5232 127.107 38.3063 126.659 37.8726C126.225 37.4244 126.008 36.8316 126.008 36.0943V30.022H123.319V27.7666H126.008V24.4268H128.741V27.7666H131.69V30.022H128.741V35.6172C128.741 36.0509 128.943 36.2678 129.348 36.2678H131.43V38.5232H128.394ZM144.484 38.8268C142.605 38.8268 141.116 38.3063 140.017 37.2654C138.918 36.2099 138.369 34.7063 138.369 32.7545V29.1111C138.369 27.1593 138.918 25.663 140.017 24.622C141.116 23.5666 142.605 23.0389 144.484 23.0389C146.349 23.0389 147.788 23.5521 148.8 24.5786C149.827 25.5907 150.34 26.9858 150.34 28.7642V28.8943H147.52V28.6774C147.52 27.781 147.267 27.0437 146.761 26.4654C146.27 25.887 145.511 25.5979 144.484 25.5979C143.472 25.5979 142.677 25.9087 142.099 26.5304C141.52 27.1521 141.231 27.9979 141.231 29.0678V32.7979C141.231 33.8533 141.52 34.6991 142.099 35.3352C142.677 35.9569 143.472 36.2678 144.484 36.2678C145.511 36.2678 146.27 35.9786 146.761 35.4003C147.267 34.8075 147.52 34.0702 147.52 33.1883V32.7979H150.34V33.1015C150.34 34.8798 149.827 36.2822 148.8 37.3087C147.788 38.3208 146.349 38.8268 144.484 38.8268ZM152.325 38.5232V23.3425H155.058V29.0895H155.448C155.564 28.8581 155.745 28.6268 155.99 28.3955C156.236 28.1642 156.561 27.9762 156.966 27.8316C157.386 27.6726 157.913 27.5931 158.549 27.5931C159.388 27.5931 160.118 27.7883 160.74 28.1786C161.376 28.5545 161.867 29.0822 162.214 29.7617C162.561 30.4268 162.735 31.2075 162.735 32.1039V38.5232H160.002V32.3208C160.002 31.5111 159.8 30.9039 159.395 30.4991C159.005 30.0943 158.441 29.8919 157.704 29.8919C156.865 29.8919 156.214 30.1738 155.752 30.7377C155.289 31.287 155.058 32.0605 155.058 33.0581V38.5232H152.325ZM168.595 38.8268C167.829 38.8268 167.142 38.6967 166.535 38.4364C165.927 38.1617 165.443 37.7714 165.082 37.2654C164.735 36.7449 164.561 36.116 164.561 35.3786C164.561 34.6413 164.735 34.0268 165.082 33.5352C165.443 33.0292 165.935 32.6533 166.556 32.4075C167.193 32.1473 167.915 32.0172 168.725 32.0172H171.674V31.4099C171.674 30.9039 171.515 30.4919 171.197 30.1738C170.879 29.8413 170.373 29.675 169.679 29.675C169 29.675 168.494 29.834 168.161 30.1521C167.829 30.4557 167.612 30.8533 167.511 31.3449L164.995 30.4991C165.168 29.9497 165.443 29.4509 165.819 29.0027C166.209 28.5401 166.723 28.1714 167.359 27.8967C168.009 27.6075 168.797 27.463 169.723 27.463C171.139 27.463 172.26 27.8172 173.084 28.5256C173.908 29.234 174.32 30.2605 174.32 31.6051V35.6172C174.32 36.0509 174.523 36.2678 174.927 36.2678H175.795V38.5232H173.973C173.438 38.5232 172.997 38.3931 172.65 38.1328C172.303 37.8726 172.13 37.5256 172.13 37.0919V37.0702H171.718C171.66 37.2437 171.53 37.475 171.327 37.7642C171.125 38.0389 170.807 38.2846 170.373 38.5015C169.939 38.7184 169.347 38.8268 168.595 38.8268ZM169.072 36.6148C169.838 36.6148 170.46 36.4051 170.937 35.9858C171.429 35.5521 171.674 34.981 171.674 34.2726V34.0557H168.92C168.414 34.0557 168.017 34.1642 167.727 34.381C167.438 34.5979 167.294 34.9015 167.294 35.2919C167.294 35.6822 167.446 36.0003 167.749 36.2461C168.053 36.4919 168.494 36.6148 169.072 36.6148ZM177.359 38.5232V27.7666H180.048V28.981H180.439C180.598 28.5473 180.858 28.2292 181.219 28.0268C181.595 27.8244 182.029 27.7232 182.521 27.7232H183.822V30.1521H182.477C181.783 30.1521 181.212 30.3401 180.764 30.716C180.316 31.0774 180.092 31.6413 180.092 32.4075V38.5232H177.359ZM189.644 38.5232C188.936 38.5232 188.358 38.3063 187.909 37.8726C187.476 37.4244 187.259 36.8316 187.259 36.0943V30.022H184.57V27.7666H187.259V24.4268H189.991V27.7666H192.941V30.022H189.991V35.6172C189.991 36.0509 190.194 36.2678 190.598 36.2678H192.68V38.5232H189.644ZM203.978 35.4654V32.169H200.725V29.6967H203.978V26.4003H206.537V29.6967H209.79V32.169H206.537V35.4654H203.978ZM217.62 38.5232V36.0075H219.615V25.8581H217.62V23.3425H223.866C225.904 23.3425 227.451 23.863 228.507 24.9039C229.576 25.9304 230.111 27.463 230.111 29.5015V32.3642C230.111 34.4027 229.576 35.9425 228.507 36.9834C227.451 38.0099 225.904 38.5232 223.866 38.5232H217.62ZM222.478 35.9208H223.909C225.066 35.9208 225.911 35.6172 226.446 35.0099C226.981 34.4027 227.249 33.5497 227.249 32.4509V29.4148C227.249 28.3015 226.981 27.4485 226.446 26.8557C225.911 26.2485 225.066 25.9449 223.909 25.9449H222.478V35.9208ZM237.052 38.8268C235.982 38.8268 235.035 38.6027 234.211 38.1545C233.401 37.6919 232.765 37.0485 232.302 36.2244C231.854 35.3858 231.63 34.4027 231.63 33.275V33.0148C231.63 31.887 231.854 30.9111 232.302 30.087C232.75 29.2485 233.379 28.6051 234.189 28.1569C234.998 27.6943 235.938 27.463 237.008 27.463C238.064 27.463 238.982 27.7015 239.762 28.1786C240.543 28.6413 241.15 29.2919 241.584 30.1304C242.018 30.9545 242.235 31.916 242.235 33.0148V33.9473H234.406C234.435 34.6846 234.709 35.2846 235.23 35.7473C235.75 36.2099 236.386 36.4413 237.138 36.4413C237.905 36.4413 238.468 36.275 238.83 35.9425C239.191 35.6099 239.466 35.2413 239.654 34.8364L241.888 36.0075C241.685 36.3834 241.389 36.7955 240.998 37.2437C240.623 37.6774 240.117 38.0533 239.48 38.3714C238.844 38.675 238.035 38.8268 237.052 38.8268ZM234.427 31.9087H239.459C239.401 31.287 239.148 30.7883 238.7 30.4123C238.266 30.0364 237.695 29.8485 236.986 29.8485C236.249 29.8485 235.664 30.0364 235.23 30.4123C234.796 30.7883 234.529 31.287 234.427 31.9087ZM246.171 38.5232L242.744 27.7666H245.65L248.144 36.528H248.535L251.029 27.7666H253.935L250.508 38.5232H246.171ZM263.205 38.5232V25.9449H258.781V23.3425H270.492V25.9449H266.068V38.5232H263.205ZM271.84 38.5232V27.7666H274.573V38.5232H271.84ZM273.207 26.5087C272.715 26.5087 272.296 26.3497 271.949 26.0316C271.616 25.7136 271.45 25.2943 271.45 24.7738C271.45 24.2533 271.616 23.834 271.949 23.516C272.296 23.1979 272.715 23.0389 273.207 23.0389C273.713 23.0389 274.132 23.1979 274.465 23.516C274.797 23.834 274.963 24.2533 274.963 24.7738C274.963 25.2943 274.797 25.7136 274.465 26.0316C274.132 26.3497 273.713 26.5087 273.207 26.5087ZM277.167 38.5232V27.7666H279.856V28.9377H280.247C280.435 28.5762 280.746 28.2654 281.179 28.0051C281.613 27.7304 282.184 27.5931 282.893 27.5931C283.659 27.5931 284.273 27.7449 284.736 28.0485C285.199 28.3377 285.553 28.7208 285.799 29.1979H286.189C286.435 28.7352 286.782 28.3521 287.23 28.0485C287.678 27.7449 288.314 27.5931 289.138 27.5931C289.803 27.5931 290.403 27.7377 290.938 28.0268C291.488 28.3015 291.921 28.728 292.24 29.3063C292.572 29.8702 292.738 30.5858 292.738 31.4533V38.5232H290.006V31.6485C290.006 31.0557 289.854 30.6148 289.55 30.3256C289.247 30.022 288.82 29.8702 288.271 29.8702C287.649 29.8702 287.165 30.0726 286.818 30.4774C286.485 30.8678 286.319 31.4316 286.319 32.169V38.5232H283.587V31.6485C283.587 31.0557 283.435 30.6148 283.131 30.3256C282.827 30.022 282.401 29.8702 281.852 29.8702C281.23 29.8702 280.746 30.0726 280.399 30.4774C280.066 30.8678 279.9 31.4316 279.9 32.169V38.5232H277.167ZM300.145 38.8268C299.075 38.8268 298.128 38.6027 297.304 38.1545C296.494 37.6919 295.858 37.0485 295.395 36.2244C294.947 35.3858 294.723 34.4027 294.723 33.275V33.0148C294.723 31.887 294.947 30.9111 295.395 30.087C295.843 29.2485 296.472 28.6051 297.282 28.1569C298.092 27.6943 299.031 27.463 300.101 27.463C301.157 27.463 302.075 27.7015 302.856 28.1786C303.636 28.6413 304.243 29.2919 304.677 30.1304C305.111 30.9545 305.328 31.916 305.328 33.0148V33.9473H297.499C297.528 34.6846 297.803 35.2846 298.323 35.7473C298.843 36.2099 299.48 36.4413 300.231 36.4413C300.998 36.4413 301.562 36.275 301.923 35.9425C302.284 35.6099 302.559 35.2413 302.747 34.8364L304.981 36.0075C304.778 36.3834 304.482 36.7955 304.092 37.2437C303.716 37.6774 303.21 38.0533 302.574 38.3714C301.937 38.675 301.128 38.8268 300.145 38.8268ZM297.521 31.9087H302.552C302.494 31.287 302.241 30.7883 301.793 30.4123C301.359 30.0364 300.788 29.8485 300.08 29.8485C299.342 29.8485 298.757 30.0364 298.323 30.4123C297.889 30.7883 297.622 31.287 297.521 31.9087ZM307.326 38.5232V23.3425H310.059V38.5232H307.326ZM312.653 38.5232V27.7666H315.386V38.5232H312.653ZM314.019 26.5087C313.528 26.5087 313.108 26.3497 312.761 26.0316C312.429 25.7136 312.263 25.2943 312.263 24.7738C312.263 24.2533 312.429 23.834 312.761 23.516C313.108 23.1979 313.528 23.0389 314.019 23.0389C314.525 23.0389 314.945 23.1979 315.277 23.516C315.61 23.834 315.776 24.2533 315.776 24.7738C315.776 25.2943 315.61 25.7136 315.277 26.0316C314.945 26.3497 314.525 26.5087 314.019 26.5087ZM317.98 38.5232V27.7666H320.669V29.1762H321.059C321.233 28.8003 321.558 28.4461 322.035 28.1136C322.512 27.7666 323.235 27.5931 324.204 27.5931C325.042 27.5931 325.773 27.7883 326.394 28.1786C327.03 28.5545 327.522 29.0822 327.869 29.7617C328.216 30.4268 328.389 31.2075 328.389 32.1039V38.5232H325.657V32.3208C325.657 31.5111 325.455 30.9039 325.05 30.4991C324.659 30.0943 324.095 29.8919 323.358 29.8919C322.52 29.8919 321.869 30.1738 321.406 30.7377C320.944 31.287 320.712 32.0605 320.712 33.0581V38.5232H317.98ZM335.811 38.8268C334.741 38.8268 333.794 38.6027 332.97 38.1545C332.16 37.6919 331.524 37.0485 331.062 36.2244C330.613 35.3858 330.389 34.4027 330.389 33.275V33.0148C330.389 31.887 330.613 30.9111 331.062 30.087C331.51 29.2485 332.139 28.6051 332.948 28.1569C333.758 27.6943 334.698 27.463 335.768 27.463C336.823 27.463 337.741 27.7015 338.522 28.1786C339.302 28.6413 339.91 29.2919 340.343 30.1304C340.777 30.9545 340.994 31.916 340.994 33.0148V33.9473H333.165C333.194 34.6846 333.469 35.2846 333.989 35.7473C334.51 36.2099 335.146 36.4413 335.898 36.4413C336.664 36.4413 337.228 36.275 337.589 35.9425C337.951 35.6099 338.225 35.2413 338.413 34.8364L340.647 36.0075C340.445 36.3834 340.148 36.7955 339.758 37.2437C339.382 37.6774 338.876 38.0533 338.24 38.3714C337.604 38.675 336.794 38.8268 335.811 38.8268ZM333.187 31.9087H338.218C338.16 31.287 337.907 30.7883 337.459 30.4123C337.025 30.0364 336.454 29.8485 335.746 29.8485C335.008 29.8485 334.423 30.0364 333.989 30.4123C333.555 30.7883 333.288 31.287 333.187 31.9087Z" fill="white"/>
<circle cx="33.5627" cy="31.4975" r="24.2685" fill="white"/>
<path d="M45.735 22.9808C45.3802 22.6251 44.8053 22.6242 44.4492 22.9784L37.5465 29.8532L35.5517 27.8584C35.1965 27.5035 34.6214 27.5032 34.2662 27.8584L26.1753 35.9493C25.8201 36.3041 25.8201 36.8799 26.1753 37.2347C26.3526 37.4123 26.5853 37.5011 26.8181 37.5011C27.0505 37.5011 27.2835 37.4123 27.4608 37.2347L34.909 29.7869L36.9026 31.7802C37.2574 32.135 37.8311 32.1354 38.1868 31.7817L45.7323 24.2666C46.088 23.9123 46.0892 23.3366 45.735 22.9808Z" fill="url(#paint1_linear_254_259)"/>
<path d="M45.0606 40.2888H23.8182V21.1979C23.8182 20.6958 23.4112 20.2888 22.9091 20.2888C22.407 20.2888 22 20.6958 22 21.1979V41.1979C22 41.7 22.407 42.107 22.9091 42.107H45.0606C45.5627 42.107 45.9697 41.7 45.9697 41.1979C45.9697 40.6958 45.5627 40.2888 45.0606 40.2888Z" fill="url(#paint2_linear_254_259)"/>
<path d="M45.0908 22.6829H38.2726C37.7705 22.6829 37.3635 23.0898 37.3635 23.592C37.3635 24.0941 37.7705 24.501 38.2726 24.501H44.1817V30.4104C44.1817 30.9122 44.5887 31.3195 45.0908 31.3195C45.5929 31.3195 45.9999 30.9122 45.9999 30.4101V23.592C45.9999 23.0898 45.5929 22.6829 45.0908 22.6829Z" fill="url(#paint3_linear_254_259)"/>
<defs>
<linearGradient id="paint0_linear_254_259" x1="560.308" y1="113.314" x2="-13.8989" y2="-29.708" gradientUnits="userSpaceOnUse">
<stop stop-color="#80E5FF"/>
<stop offset="1" stop-color="#545C9E"/>
</linearGradient>
<linearGradient id="paint1_linear_254_259" x1="25.2571" y1="22.6582" x2="46.021" y2="26.5942" gradientUnits="userSpaceOnUse">
<stop stop-color="#0B1E54"/>
<stop offset="1" stop-color="#4FABFF"/>
</linearGradient>
<linearGradient id="paint2_linear_254_259" x1="21.2224" y1="20.2074" x2="46.2959" y2="24.0507" gradientUnits="userSpaceOnUse">
<stop stop-color="#0B1E54"/>
<stop offset="1" stop-color="#4FABFF"/>
</linearGradient>
<linearGradient id="paint3_linear_254_259" x1="37.0833" y1="22.6506" x2="46.1531" y2="23.916" gradientUnits="userSpaceOnUse">
<stop stop-color="#0B1E54"/>
<stop offset="1" stop-color="#4FABFF"/>
</linearGradient>
</defs>
</svg>
