<svg width="304" height="63" viewBox="0 0 304 63" fill="none" xmlns="http://www.w3.org/2000/svg">
<rect width="303.434" height="62.9948" rx="31.4974" fill="url(#paint0_linear_254_277)"/>
<path d="M83.0478 38.5232V25.381H82.6575L80.6189 30.1955H77.7129L80.8141 23.3425H85.8237V38.5232H83.0478ZM93.851 38.8268C92.0583 38.8268 90.6197 38.3352 89.5354 37.3521C88.451 36.3545 87.9089 34.8509 87.9089 32.8413V29.0244C87.9089 27.0726 88.451 25.5907 89.5354 24.5786C90.6197 23.5521 92.0583 23.0389 93.851 23.0389C95.6583 23.0389 97.0968 23.5521 98.1667 24.5786C99.251 25.5907 99.7932 27.0726 99.7932 29.0244V32.8413C99.7932 34.8509 99.251 36.3545 98.1667 37.3521C97.0968 38.3352 95.6583 38.8268 93.851 38.8268ZM93.851 36.3545C94.9354 36.3545 95.7306 36.0581 96.2366 35.4654C96.7571 34.8726 97.0173 34.0268 97.0173 32.928V28.8943C97.0173 27.781 96.7281 26.9425 96.1498 26.3786C95.586 25.8003 94.8197 25.5111 93.851 25.5111C92.8534 25.5111 92.0727 25.8075 91.5089 26.4003C90.9595 26.9931 90.6848 27.8244 90.6848 28.8943V32.928C90.6848 34.0702 90.945 34.9304 91.4655 35.5087C92.0004 36.0726 92.7956 36.3545 93.851 36.3545ZM101.928 34.2292V31.7569H108.347V34.2292H101.928ZM116.082 38.8268C114.911 38.8268 113.877 38.6172 112.98 38.1979C112.084 37.7786 111.383 37.1786 110.877 36.3979C110.371 35.6172 110.118 34.6774 110.118 33.5786V32.9714H112.937V33.5786C112.937 34.4895 113.219 35.1762 113.783 35.6389C114.347 36.087 115.113 36.3111 116.082 36.3111C117.065 36.3111 117.795 36.116 118.272 35.7256C118.764 35.3352 119.009 34.8364 119.009 34.2292C119.009 33.8099 118.886 33.4702 118.641 33.2099C118.409 32.9497 118.062 32.7401 117.6 32.581C117.152 32.4075 116.602 32.2485 115.952 32.1039L115.453 31.9955C114.412 31.7642 113.515 31.475 112.764 31.128C112.026 30.7666 111.455 30.2967 111.05 29.7184C110.66 29.1401 110.465 28.3883 110.465 27.463C110.465 26.5377 110.682 25.7497 111.115 25.0991C111.564 24.434 112.185 23.928 112.98 23.581C113.79 23.2196 114.737 23.0389 115.821 23.0389C116.906 23.0389 117.867 23.2268 118.706 23.6027C119.559 23.9642 120.224 24.5136 120.701 25.2509C121.192 25.9738 121.438 26.8846 121.438 27.9834V28.634H118.619V27.9834C118.619 27.4051 118.503 26.9425 118.272 26.5955C118.055 26.234 117.737 25.9738 117.318 25.8148C116.899 25.6413 116.4 25.5545 115.821 25.5545C114.954 25.5545 114.311 25.7208 113.891 26.0533C113.486 26.3714 113.284 26.8123 113.284 27.3762C113.284 27.7521 113.378 28.0702 113.566 28.3304C113.768 28.5907 114.065 28.8075 114.455 28.981C114.846 29.1545 115.344 29.3063 115.952 29.4364L116.45 29.5449C117.535 29.7762 118.474 30.0726 119.27 30.434C120.079 30.7955 120.708 31.2726 121.156 31.8654C121.605 32.4581 121.829 33.2172 121.829 34.1425C121.829 35.0678 121.59 35.8846 121.113 36.5931C120.65 37.287 119.985 37.8364 119.118 38.2413C118.265 38.6316 117.253 38.8268 116.082 38.8268ZM123.617 38.5232V23.3425H126.349V38.5232H123.617ZM128.943 38.5232V27.7666H131.676V38.5232H128.943ZM130.31 26.5087C129.818 26.5087 129.399 26.3497 129.052 26.0316C128.719 25.7136 128.553 25.2943 128.553 24.7738C128.553 24.2533 128.719 23.834 129.052 23.516C129.399 23.1979 129.818 23.0389 130.31 23.0389C130.816 23.0389 131.235 23.1979 131.568 23.516C131.9 23.834 132.066 24.2533 132.066 24.7738C132.066 25.2943 131.9 25.7136 131.568 26.0316C131.235 26.3497 130.816 26.5087 130.31 26.5087ZM138.608 38.8268C137.755 38.8268 136.952 38.6172 136.2 38.1979C135.463 37.7642 134.87 37.1352 134.422 36.3111C133.974 35.487 133.75 34.4895 133.75 33.3184V32.9714C133.75 31.8003 133.974 30.8027 134.422 29.9786C134.87 29.1545 135.463 28.5328 136.2 28.1136C136.938 27.6798 137.74 27.463 138.608 27.463C139.258 27.463 139.8 27.5425 140.234 27.7015C140.682 27.8461 141.044 28.034 141.318 28.2654C141.593 28.4967 141.803 28.7425 141.947 29.0027H142.338V23.3425H145.07V38.5232H142.381V37.222H141.991C141.745 37.6268 141.362 37.9955 140.841 38.328C140.335 38.6605 139.591 38.8268 138.608 38.8268ZM139.432 36.4413C140.27 36.4413 140.971 36.1738 141.535 35.6389C142.099 35.0895 142.381 34.2943 142.381 33.2533V33.0364C142.381 31.9955 142.099 31.2075 141.535 30.6726C140.986 30.1232 140.285 29.8485 139.432 29.8485C138.593 29.8485 137.892 30.1232 137.328 30.6726C136.764 31.2075 136.482 31.9955 136.482 33.0364V33.2533C136.482 34.2943 136.764 35.0895 137.328 35.6389C137.892 36.1738 138.593 36.4413 139.432 36.4413ZM152.567 38.8268C151.497 38.8268 150.55 38.6027 149.726 38.1545C148.917 37.6919 148.28 37.0485 147.818 36.2244C147.37 35.3858 147.146 34.4027 147.146 33.275V33.0148C147.146 31.887 147.37 30.9111 147.818 30.087C148.266 29.2485 148.895 28.6051 149.705 28.1569C150.514 27.6943 151.454 27.463 152.524 27.463C153.579 27.463 154.497 27.7015 155.278 28.1786C156.059 28.6413 156.666 29.2919 157.1 30.1304C157.533 30.9545 157.75 31.916 157.75 33.0148V33.9473H149.921C149.95 34.6846 150.225 35.2846 150.746 35.7473C151.266 36.2099 151.902 36.4413 152.654 36.4413C153.42 36.4413 153.984 36.275 154.346 35.9425C154.707 35.6099 154.982 35.2413 155.17 34.8364L157.403 36.0075C157.201 36.3834 156.905 36.7955 156.514 37.2437C156.138 37.6774 155.632 38.0533 154.996 38.3714C154.36 38.675 153.55 38.8268 152.567 38.8268ZM149.943 31.9087H154.974C154.917 31.287 154.664 30.7883 154.215 30.4123C153.782 30.0364 153.211 29.8485 152.502 29.8485C151.765 29.8485 151.179 30.0364 150.746 30.4123C150.312 30.7883 150.044 31.287 149.943 31.9087ZM164.735 38.5232V23.3425H170.98C171.935 23.3425 172.773 23.5377 173.496 23.928C174.233 24.3039 174.805 24.8389 175.209 25.5328C175.629 26.2268 175.838 27.0509 175.838 28.0051V28.3087C175.838 29.2485 175.621 30.0726 175.188 30.781C174.768 31.475 174.19 32.0172 173.453 32.4075C172.73 32.7834 171.906 32.9714 170.98 32.9714H167.597V38.5232H164.735ZM167.597 30.369H170.699C171.378 30.369 171.927 30.181 172.347 29.8051C172.766 29.4292 172.976 28.916 172.976 28.2654V28.0485C172.976 27.3979 172.766 26.8846 172.347 26.5087C171.927 26.1328 171.378 25.9449 170.699 25.9449H167.597V30.369ZM177.476 38.5232V27.7666H180.209V38.5232H177.476ZM178.842 26.5087C178.351 26.5087 177.931 26.3497 177.584 26.0316C177.252 25.7136 177.086 25.2943 177.086 24.7738C177.086 24.2533 177.252 23.834 177.584 23.516C177.931 23.1979 178.351 23.0389 178.842 23.0389C179.348 23.0389 179.768 23.1979 180.1 23.516C180.433 23.834 180.599 24.2533 180.599 24.7738C180.599 25.2943 180.433 25.7136 180.1 26.0316C179.768 26.3497 179.348 26.5087 178.842 26.5087ZM186.923 38.5232C186.215 38.5232 185.637 38.3063 185.188 37.8726C184.755 37.4244 184.538 36.8316 184.538 36.0943V30.022H181.849V27.7666H184.538V24.4268H187.27V27.7666H190.22V30.022H187.27V35.6172C187.27 36.0509 187.473 36.2678 187.877 36.2678H189.959V38.5232H186.923ZM196.931 38.8268C195.89 38.8268 194.943 38.6099 194.09 38.1762C193.252 37.7425 192.587 37.1136 192.095 36.2895C191.603 35.4654 191.358 34.4678 191.358 33.2967V32.9931C191.358 31.822 191.603 30.8244 192.095 30.0003C192.587 29.1762 193.252 28.5473 194.09 28.1136C194.943 27.6798 195.89 27.463 196.931 27.463C197.958 27.463 198.84 27.6437 199.577 28.0051C200.314 28.3666 200.907 28.8654 201.355 29.5015C201.818 30.1232 202.122 30.8316 202.266 31.6268L199.62 32.1907C199.563 31.7569 199.432 31.3666 199.23 31.0196C199.028 30.6726 198.738 30.3979 198.363 30.1955C198.001 29.9931 197.546 29.8919 196.996 29.8919C196.447 29.8919 195.948 30.0148 195.5 30.2605C195.066 30.4919 194.719 30.8461 194.459 31.3232C194.213 31.7858 194.09 32.3569 194.09 33.0364V33.2533C194.09 33.9328 194.213 34.5111 194.459 34.9883C194.719 35.4509 195.066 35.8051 195.5 36.0509C195.948 36.2822 196.447 36.3979 196.996 36.3979C197.82 36.3979 198.442 36.1883 198.861 35.769C199.295 35.3352 199.57 34.7714 199.685 34.0774L202.331 34.7063C202.143 35.4726 201.818 36.1738 201.355 36.8099C200.907 37.4316 200.314 37.9232 199.577 38.2846C198.84 38.6461 197.958 38.8268 196.931 38.8268ZM204.152 38.5232V23.3425H206.884V29.0895H207.274C207.39 28.8581 207.571 28.6268 207.817 28.3955C208.062 28.1642 208.388 27.9762 208.792 27.8316C209.212 27.6726 209.739 27.5931 210.376 27.5931C211.214 27.5931 211.944 27.7883 212.566 28.1786C213.202 28.5545 213.694 29.0822 214.041 29.7617C214.388 30.4268 214.561 31.2075 214.561 32.1039V38.5232H211.829V32.3208C211.829 31.5111 211.626 30.9039 211.221 30.4991C210.831 30.0943 210.267 29.8919 209.53 29.8919C208.691 29.8919 208.041 30.1738 207.578 30.7377C207.115 31.287 206.884 32.0605 206.884 33.0581V38.5232H204.152ZM221.634 38.5232V36.0075H223.629V25.8581H221.634V23.3425H227.879C229.918 23.3425 231.465 23.863 232.52 24.9039C233.59 25.9304 234.125 27.463 234.125 29.5015V32.3642C234.125 34.4027 233.59 35.9425 232.52 36.9834C231.465 38.0099 229.918 38.5232 227.879 38.5232H221.634ZM226.491 35.9208H227.923C229.079 35.9208 229.925 35.6172 230.46 35.0099C230.995 34.4027 231.262 33.5497 231.262 32.4509V29.4148C231.262 28.3015 230.995 27.4485 230.46 26.8557C229.925 26.2485 229.079 25.9449 227.923 25.9449H226.491V35.9208ZM241.065 38.8268C239.995 38.8268 239.048 38.6027 238.224 38.1545C237.415 37.6919 236.778 37.0485 236.316 36.2244C235.868 35.3858 235.644 34.4027 235.644 33.275V33.0148C235.644 31.887 235.868 30.9111 236.316 30.087C236.764 29.2485 237.393 28.6051 238.203 28.1569C239.012 27.6943 239.952 27.463 241.022 27.463C242.077 27.463 242.995 27.7015 243.776 28.1786C244.557 28.6413 245.164 29.2919 245.598 30.1304C246.032 30.9545 246.248 31.916 246.248 33.0148V33.9473H238.419C238.448 34.6846 238.723 35.2846 239.244 35.7473C239.764 36.2099 240.4 36.4413 241.152 36.4413C241.918 36.4413 242.482 36.275 242.844 35.9425C243.205 35.6099 243.48 35.2413 243.668 34.8364L245.901 36.0075C245.699 36.3834 245.403 36.7955 245.012 37.2437C244.636 37.6774 244.13 38.0533 243.494 38.3714C242.858 38.675 242.048 38.8268 241.065 38.8268ZM238.441 31.9087H243.472C243.415 31.287 243.162 30.7883 242.713 30.4123C242.28 30.0364 241.709 29.8485 241 29.8485C240.263 29.8485 239.677 30.0364 239.244 30.4123C238.81 30.7883 238.542 31.287 238.441 31.9087ZM253.3 38.8268C252.259 38.8268 251.312 38.6099 250.459 38.1762C249.62 37.7425 248.955 37.1136 248.464 36.2895C247.972 35.4654 247.726 34.4678 247.726 33.2967V32.9931C247.726 31.822 247.972 30.8244 248.464 30.0003C248.955 29.1762 249.62 28.5473 250.459 28.1136C251.312 27.6798 252.259 27.463 253.3 27.463C254.326 27.463 255.208 27.6437 255.946 28.0051C256.683 28.3666 257.276 28.8654 257.724 29.5015C258.187 30.1232 258.49 30.8316 258.635 31.6268L255.989 32.1907C255.931 31.7569 255.801 31.3666 255.599 31.0196C255.396 30.6726 255.107 30.3979 254.731 30.1955C254.37 29.9931 253.914 29.8919 253.365 29.8919C252.815 29.8919 252.317 30.0148 251.868 30.2605C251.435 30.4919 251.088 30.8461 250.828 31.3232C250.582 31.7858 250.459 32.3569 250.459 33.0364V33.2533C250.459 33.9328 250.582 34.5111 250.828 34.9883C251.088 35.4509 251.435 35.8051 251.868 36.0509C252.317 36.2822 252.815 36.3979 253.365 36.3979C254.189 36.3979 254.811 36.1883 255.23 35.769C255.664 35.3352 255.938 34.7714 256.054 34.0774L258.7 34.7063C258.512 35.4726 258.187 36.1738 257.724 36.8099C257.276 37.4316 256.683 37.9232 255.946 38.2846C255.208 38.6461 254.326 38.8268 253.3 38.8268ZM260.52 38.5232V23.3425H263.253V31.7352H263.643L267.2 27.7666H270.756L265.79 32.9714L270.93 38.5232H267.417L263.643 34.2509H263.253V38.5232H260.52Z" fill="white"/>
<circle cx="33.5627" cy="31.4975" r="24.2685" fill="white"/>
<g clip-path="url(#clip0_254_277)">
<path d="M43.75 25.9656H43V25.2156C43 23.9729 41.9927 22.9656 40.75 22.9656H40V22.2156C40 20.9729 38.9927 19.9656 37.75 19.9656H24.25C23.0073 19.9656 22 20.9729 22 22.2156V35.7156C22 36.9582 23.0073 37.9656 24.25 37.9656H25V38.7156C25 39.9582 26.0073 40.9656 27.25 40.9656H28V41.7156C28 42.9582 29.0073 43.9656 30.25 43.9656H43.75C44.9927 43.9656 46 42.9582 46 41.7156V28.2156C46 26.9729 44.9927 25.9656 43.75 25.9656ZM24.25 36.4656C23.8358 36.4656 23.5 36.1298 23.5 35.7156V22.2156C23.5 21.8013 23.8358 21.4656 24.25 21.4656H37.75C38.1642 21.4656 38.5 21.8013 38.5 22.2156V35.7156C38.5 36.1298 38.1642 36.4656 37.75 36.4656H24.25ZM27.25 39.4656C26.8358 39.4656 26.5 39.1298 26.5 38.7156V37.9656H37.75C38.9927 37.9656 40 36.9582 40 35.7156V24.4656H40.75C41.1642 24.4656 41.5 24.8013 41.5 25.2156V38.7156C41.5 39.1298 41.1642 39.4656 40.75 39.4656H27.25ZM44.5 41.7156C44.5 42.1298 44.1642 42.4656 43.75 42.4656H30.25C29.8358 42.4656 29.5 42.1298 29.5 41.7156V40.9656H40.75C41.9927 40.9656 43 39.9582 43 38.7156V27.4656H43.75C44.1642 27.4656 44.5 27.8013 44.5 28.2156V41.7156Z" fill="url(#paint1_linear_254_277)"/>
</g>
<defs>
<linearGradient id="paint0_linear_254_277" x1="448.079" y1="113.314" x2="-20.9925" y2="19.8808" gradientUnits="userSpaceOnUse">
<stop stop-color="#80E5FF"/>
<stop offset="1" stop-color="#545C9E"/>
</linearGradient>
<linearGradient id="paint1_linear_254_277" x1="21.2214" y1="19.876" x2="46.4259" y2="23.3926" gradientUnits="userSpaceOnUse">
<stop stop-color="#0B1E54"/>
<stop offset="1" stop-color="#4FABFF"/>
</linearGradient>
<clipPath id="clip0_254_277">
<rect width="24" height="24" fill="white" transform="translate(22 19.9656)"/>
</clipPath>
</defs>
</svg>
