<svg width="383" height="2176" viewBox="0 0 383 2176" fill="none" xmlns="http://www.w3.org/2000/svg">
<path d="M354.004 0C369.526 0 382.11 12.5833 382.11 28.1055V2147.89C382.11 2163.42 369.526 2176 354.004 2176H28.1055C12.5832 2176 0 2163.42 0 2147.89V28.1055C0.000205898 12.5834 12.5833 2.81413e-05 28.1055 0H354.004ZM31.1055 72.0625C15.5832 72.0626 3 84.6457 3 100.168V2135.18C3 2150.7 15.5832 2163.28 31.1055 2163.28H350.895C366.417 2163.28 379 2150.7 379 2135.18V100.168C379 84.6457 366.417 72.0626 350.895 72.0625H31.1055Z" fill="white" fill-opacity="0.85"/>
<circle cx="163" cy="34" r="8" fill="url(#paint0_linear_229_292)"/>
<circle cx="191" cy="34" r="8" fill="url(#paint1_linear_229_292)"/>
<circle cx="219" cy="34" r="8" fill="url(#paint2_linear_229_292)"/>
<defs>
<linearGradient id="paint0_linear_229_292" x1="154.481" y1="25.9403" x2="171.284" y2="28.2847" gradientUnits="userSpaceOnUse">
<stop stop-color="#0B1E54"/>
<stop offset="1" stop-color="#4FABFF"/>
</linearGradient>
<linearGradient id="paint1_linear_229_292" x1="182.481" y1="25.9403" x2="199.284" y2="28.2847" gradientUnits="userSpaceOnUse">
<stop stop-color="#0B1E54"/>
<stop offset="1" stop-color="#4FABFF"/>
</linearGradient>
<linearGradient id="paint2_linear_229_292" x1="210.481" y1="25.9403" x2="227.284" y2="28.2847" gradientUnits="userSpaceOnUse">
<stop stop-color="#0B1E54"/>
<stop offset="1" stop-color="#4FABFF"/>
</linearGradient>
</defs>
</svg>
