<svg width="49" height="49" viewBox="0 0 49 49" fill="none" xmlns="http://www.w3.org/2000/svg">
<circle cx="24.5627" cy="24.4975" r="24.2685" fill="white"/>
<path d="M36.735 15.9808C36.3802 15.6251 35.8053 15.6242 35.4492 15.9784L28.5465 22.8532L26.5517 20.8584C26.1965 20.5035 25.6214 20.5032 25.2662 20.8584L17.1753 28.9493C16.8201 29.3041 16.8201 29.8799 17.1753 30.2347C17.3526 30.4123 17.5853 30.5011 17.8181 30.5011C18.0505 30.5011 18.2835 30.4123 18.4608 30.2347L25.909 22.7869L27.9026 24.7802C28.2574 25.135 28.8311 25.1354 29.1868 24.7817L36.7323 17.2666C37.088 16.9123 37.0892 16.3366 36.735 15.9808Z" fill="url(#paint0_linear_254_262)"/>
<path d="M36.0606 33.2888H14.8182V14.1979C14.8182 13.6958 14.4112 13.2888 13.9091 13.2888C13.407 13.2888 13 13.6958 13 14.1979V34.1979C13 34.7 13.407 35.107 13.9091 35.107H36.0606C36.5627 35.107 36.9697 34.7 36.9697 34.1979C36.9697 33.6958 36.5627 33.2888 36.0606 33.2888Z" fill="url(#paint1_linear_254_262)"/>
<path d="M36.0908 15.6829H29.2726C28.7705 15.6829 28.3635 16.0898 28.3635 16.592C28.3635 17.0941 28.7705 17.501 29.2726 17.501H35.1817V23.4104C35.1817 23.9122 35.5887 24.3195 36.0908 24.3195C36.5929 24.3195 36.9999 23.9122 36.9999 23.4101V16.592C36.9999 16.0898 36.5929 15.6829 36.0908 15.6829Z" fill="url(#paint2_linear_254_262)"/>
<defs>
<linearGradient id="paint0_linear_254_262" x1="16.2571" y1="15.6582" x2="37.021" y2="19.5942" gradientUnits="userSpaceOnUse">
<stop stop-color="#0B1E54"/>
<stop offset="1" stop-color="#4FABFF"/>
</linearGradient>
<linearGradient id="paint1_linear_254_262" x1="12.2224" y1="13.2074" x2="37.2959" y2="17.0507" gradientUnits="userSpaceOnUse">
<stop stop-color="#0B1E54"/>
<stop offset="1" stop-color="#4FABFF"/>
</linearGradient>
<linearGradient id="paint2_linear_254_262" x1="28.0833" y1="15.6506" x2="37.1531" y2="16.916" gradientUnits="userSpaceOnUse">
<stop stop-color="#0B1E54"/>
<stop offset="1" stop-color="#4FABFF"/>
</linearGradient>
</defs>
</svg>
