<svg width="49" height="49" viewBox="0 0 49 49" fill="none" xmlns="http://www.w3.org/2000/svg">
<circle cx="24.5628" cy="24.4975" r="24.2685" fill="white"/>
<g clip-path="url(#clip0_254_256)">
<path d="M34.9682 14.6058C34.9163 13.6526 34.1582 12.8946 33.2049 12.8426C31.2816 12.7375 27.5179 12.8398 23.9189 14.7012C22.0843 15.6502 20.1439 17.2592 18.5954 19.1155C18.5764 19.1384 18.5578 19.1614 18.5389 19.1843L15.0247 19.4558C14.4462 19.5005 13.931 19.8037 13.6111 20.2876L11.2136 23.9139C10.9709 24.2808 10.9324 24.7401 11.1103 25.1424C11.2883 25.5447 11.6541 25.825 12.0888 25.8924L15.0495 26.351C15.0391 26.4085 15.0286 26.466 15.019 26.5236C14.9204 27.1132 15.1157 27.7194 15.5416 28.1452L19.6656 32.2693C20.0187 32.6223 20.4958 32.817 20.9846 32.817C21.0853 32.817 21.1865 32.8087 21.2873 32.7918C21.3448 32.7822 21.4023 32.7717 21.4599 32.7613L21.9184 35.722C21.9858 36.1567 22.2662 36.5226 22.6684 36.7005C22.8358 36.7746 23.0129 36.8111 23.1892 36.8111C23.4368 36.8111 23.6827 36.739 23.8969 36.5973L27.5232 34.1998C28.0072 33.8798 28.3103 33.3646 28.3549 32.7862L28.6264 29.272C28.6493 29.2531 28.6724 29.2345 28.6952 29.2155C30.5516 27.667 32.1606 25.7266 33.1096 23.8919C34.9711 20.2929 35.0732 16.5291 34.9682 14.6058ZM26.7478 33.0268L23.279 35.3202L22.8321 32.4348C24.2981 32.0037 25.7484 31.3134 27.13 30.3885L26.9532 32.6778C26.9422 32.8206 26.8673 32.9479 26.7478 33.0268ZM20.6598 31.275L16.5358 27.151C16.4305 27.0457 16.3819 26.8978 16.4057 26.7554C16.5284 26.0222 16.7189 25.3243 16.9547 24.6668L23.1426 30.8548C22.353 31.1376 21.6457 31.3063 21.0554 31.4051C20.9127 31.4288 20.7651 31.3803 20.6598 31.275ZM15.133 20.8577L17.4222 20.6808C16.4973 22.0625 15.807 23.5127 15.3759 24.9787L12.4905 24.5319L14.784 21.063C14.863 20.9435 14.9902 20.8687 15.133 20.8577ZM27.7947 28.1357C26.6589 29.083 25.5565 29.7682 24.5403 30.264L17.5465 23.2703C18.196 21.9437 18.9887 20.8391 19.6751 20.0162C21.1081 18.2982 22.8904 16.8162 24.565 15.9501C27.868 14.2416 31.348 14.1496 33.1284 14.2465C33.3641 14.2594 33.5515 14.4468 33.5643 14.6825C33.6614 16.4629 33.5692 19.9429 31.8607 23.2459C30.9946 24.9204 29.5126 26.7027 27.7947 28.1357Z" fill="url(#paint0_linear_254_256)"/>
<path d="M27.4376 23.8863C28.3376 23.8862 29.2379 23.5436 29.9231 22.8585C30.587 22.1946 30.9526 21.3119 30.9526 20.373C30.9526 19.4341 30.587 18.5514 29.9231 17.8875C28.5526 16.5169 26.3226 16.517 24.9522 17.8875C24.2882 18.5514 23.9226 19.4341 23.9226 20.373C23.9226 21.3119 24.2883 22.1946 24.9522 22.8585C25.6375 23.5438 26.5373 23.8864 27.4376 23.8863ZM25.9463 18.8817C26.3574 18.4705 26.8975 18.2649 27.4375 18.2649C27.9777 18.2649 28.5177 18.4705 28.9288 18.8817C29.3272 19.28 29.5465 19.8096 29.5465 20.3729C29.5465 20.9362 29.3272 21.4659 28.9288 21.8642C28.1066 22.6865 26.7685 22.6865 25.9462 21.8642C25.5479 21.4659 25.3285 20.9363 25.3285 20.373C25.3285 19.8097 25.548 19.28 25.9463 18.8817Z" fill="url(#paint1_linear_254_256)"/>
<path d="M11.7172 32.5895C11.8971 32.5895 12.077 32.5209 12.2142 32.3836L14.5095 30.0883C14.7841 29.8138 14.7841 29.3687 14.5095 29.0941C14.235 28.8195 13.7899 28.8195 13.5153 29.0941L11.2201 31.3894C10.9455 31.6639 10.9455 32.109 11.2201 32.3836C11.3573 32.5209 11.5372 32.5895 11.7172 32.5895Z" fill="url(#paint2_linear_254_256)"/>
<path d="M16.6131 31.1976C16.3386 30.9231 15.8934 30.9231 15.6189 31.1976L11.206 35.6105C10.9315 35.8851 10.9315 36.3302 11.206 36.6047C11.3433 36.742 11.5232 36.8106 11.7031 36.8106C11.8831 36.8106 12.063 36.742 12.2002 36.6047L16.613 32.1918C16.8877 31.9173 16.8877 31.4722 16.6131 31.1976Z" fill="url(#paint3_linear_254_256)"/>
<path d="M17.7223 33.3011L15.427 35.5964C15.1524 35.871 15.1524 36.3161 15.427 36.5906C15.5643 36.7279 15.7442 36.7966 15.9241 36.7966C16.104 36.7966 16.2839 36.728 16.4212 36.5906L18.7164 34.2953C18.991 34.0208 18.991 33.5757 18.7164 33.3011C18.4419 33.0266 17.9968 33.0266 17.7223 33.3011Z" fill="url(#paint4_linear_254_256)"/>
</g>
<defs>
<linearGradient id="paint0_linear_254_256" x1="10.2212" y1="12.7249" x2="35.4222" y2="16.241" gradientUnits="userSpaceOnUse">
<stop stop-color="#0B1E54"/>
<stop offset="1" stop-color="#4FABFF"/>
</linearGradient>
<linearGradient id="paint1_linear_254_256" x1="23.6945" y1="16.8334" x2="31.0772" y2="17.8639" gradientUnits="userSpaceOnUse">
<stop stop-color="#0B1E54"/>
<stop offset="1" stop-color="#4FABFF"/>
</linearGradient>
<linearGradient id="paint2_linear_254_256" x1="10.8941" y1="28.8744" x2="14.7811" y2="29.4167" gradientUnits="userSpaceOnUse">
<stop stop-color="#0B1E54"/>
<stop offset="1" stop-color="#4FABFF"/>
</linearGradient>
<linearGradient id="paint3_linear_254_256" x1="10.8113" y1="30.97" x2="16.9223" y2="31.8226" gradientUnits="userSpaceOnUse">
<stop stop-color="#0B1E54"/>
<stop offset="1" stop-color="#4FABFF"/>
</linearGradient>
<linearGradient id="paint4_linear_254_256" x1="15.101" y1="33.0814" x2="18.988" y2="33.6237" gradientUnits="userSpaceOnUse">
<stop stop-color="#0B1E54"/>
<stop offset="1" stop-color="#4FABFF"/>
</linearGradient>
<clipPath id="clip0_254_256">
<rect width="23.9966" height="23.9966" fill="white" transform="translate(11 12.8142)"/>
</clipPath>
</defs>
</svg>
