<svg width="49" height="49" viewBox="0 0 49 49" fill="none" xmlns="http://www.w3.org/2000/svg">
<circle cx="24.5629" cy="24.4975" r="24.2685" fill="white"/>
<path d="M32 23.3318H30C27.58 23.3318 26.25 22.0018 26.25 19.5818V17.5818C26.25 15.1618 27.58 13.8318 30 13.8318H32C34.42 13.8318 35.75 15.1618 35.75 17.5818V19.5818C35.75 22.0018 34.42 23.3318 32 23.3318ZM30 15.3318C28.42 15.3318 27.75 16.0018 27.75 17.5818V19.5818C27.75 21.1618 28.42 21.8318 30 21.8318H32C33.58 21.8318 34.25 21.1618 34.25 19.5818V17.5818C34.25 16.0018 33.58 15.3318 32 15.3318H30Z" fill="url(#paint0_linear_254_274)"/>
<path d="M20 35.3318H18C15.58 35.3318 14.25 34.0018 14.25 31.5818V29.5818C14.25 27.1618 15.58 25.8318 18 25.8318H20C22.42 25.8318 23.75 27.1618 23.75 29.5818V31.5818C23.75 34.0018 22.42 35.3318 20 35.3318ZM18 27.3318C16.42 27.3318 15.75 28.0018 15.75 29.5818V31.5818C15.75 33.1618 16.42 33.8318 18 33.8318H20C21.58 33.8318 22.25 33.1618 22.25 31.5818V29.5818C22.25 28.0018 21.58 27.3318 20 27.3318H18Z" fill="url(#paint1_linear_254_274)"/>
<path d="M19 23.3318C16.38 23.3318 14.25 21.2018 14.25 18.5818C14.25 15.9618 16.38 13.8318 19 13.8318C21.62 13.8318 23.75 15.9618 23.75 18.5818C23.75 21.2018 21.62 23.3318 19 23.3318ZM19 15.3318C17.21 15.3318 15.75 16.7918 15.75 18.5818C15.75 20.3718 17.21 21.8318 19 21.8318C20.79 21.8318 22.25 20.3718 22.25 18.5818C22.25 16.7918 20.79 15.3318 19 15.3318Z" fill="url(#paint2_linear_254_274)"/>
<path d="M31 35.3318C28.38 35.3318 26.25 33.2018 26.25 30.5818C26.25 27.9618 28.38 25.8318 31 25.8318C33.62 25.8318 35.75 27.9618 35.75 30.5818C35.75 33.2018 33.62 35.3318 31 35.3318ZM31 27.3318C29.21 27.3318 27.75 28.7918 27.75 30.5818C27.75 32.3718 29.21 33.8318 31 33.8318C32.79 33.8318 34.25 32.3718 34.25 30.5818C34.25 28.7918 32.79 27.3318 31 27.3318Z" fill="url(#paint3_linear_254_274)"/>
<defs>
<linearGradient id="paint0_linear_254_274" x1="25.9418" y1="13.7963" x2="35.9186" y2="15.1883" gradientUnits="userSpaceOnUse">
<stop stop-color="#0B1E54"/>
<stop offset="1" stop-color="#4FABFF"/>
</linearGradient>
<linearGradient id="paint1_linear_254_274" x1="13.9418" y1="25.7963" x2="23.9186" y2="27.1883" gradientUnits="userSpaceOnUse">
<stop stop-color="#0B1E54"/>
<stop offset="1" stop-color="#4FABFF"/>
</linearGradient>
<linearGradient id="paint2_linear_254_274" x1="13.9418" y1="13.7963" x2="23.9186" y2="15.1883" gradientUnits="userSpaceOnUse">
<stop stop-color="#0B1E54"/>
<stop offset="1" stop-color="#4FABFF"/>
</linearGradient>
<linearGradient id="paint3_linear_254_274" x1="25.9418" y1="25.7963" x2="35.9186" y2="27.1883" gradientUnits="userSpaceOnUse">
<stop stop-color="#0B1E54"/>
<stop offset="1" stop-color="#4FABFF"/>
</linearGradient>
</defs>
</svg>
