<svg width="35" height="46" viewBox="0 0 35 46" fill="none" xmlns="http://www.w3.org/2000/svg">
<path d="M23.7143 43V32.664C23.7143 31.4178 23.1422 30.2392 22.1595 29.4605L18.5357 26.5897M18.5357 26.5897L21.6429 13.2564M18.5357 26.5897L15.4286 24.5385M21.6429 13.2564L17.5 12.2308M21.6429 13.2564L25.874 19.9602C26.4786 20.9184 27.4557 21.5871 28.5745 21.8088L32 22.4872M15.4286 24.5385L17.5 12.2308M15.4286 24.5385L14.1859 31.3065C13.7439 33.7138 11.286 35.2051 8.91946 34.5022L3 32.7436M17.5 12.2308L11.5044 15.1994C10.1009 15.8944 9.21429 17.3149 9.21429 18.8689V22.4872M24.75 5.05128C24.75 6.18416 23.8226 7.10256 22.6786 7.10256C21.5345 7.10256 20.6071 6.18416 20.6071 5.05128C20.6071 3.9184 21.5345 3 22.6786 3C23.8226 3 24.75 3.9184 24.75 5.05128Z" stroke="#002699" stroke-width="5" stroke-linecap="round" stroke-linejoin="round"/>
</svg>
