<svg width="57" height="57" viewBox="0 0 57 57" fill="none" xmlns="http://www.w3.org/2000/svg">
<g clip-path="url(#clip0_1637_1151)">
<path d="M53.0076 39.8962L52.7752 39.1989C52.5427 38.734 52.4265 38.2691 52.1941 37.9205C51.9616 37.4556 51.8454 36.9907 51.613 36.6421C51.3806 36.1772 51.1481 35.7123 50.9157 35.2474L50.7995 35.1312C46.9642 26.7635 43.0128 18.7444 39.0613 11.0739L38.9451 10.7252C38.4802 9.91171 38.0154 9.09817 37.6667 8.16842L37.4343 7.93598C36.9694 7.00623 36.3883 6.07648 35.5748 5.14673C33.8315 2.93857 31.1584 1.66016 28.3692 1.66016C25.5799 1.66016 23.0231 2.82235 21.1636 5.03051C20.3501 6.07648 19.769 7.12245 19.1879 8.0522C18.723 8.86573 18.3744 9.79549 17.9095 10.609L17.7933 10.9577C13.2607 19.6741 9.30927 27.577 5.93892 35.015L5.8227 35.1312C5.59026 35.5961 5.35783 36.061 5.24161 36.5259C5.00917 36.9907 4.89295 37.3394 4.66051 37.8043C4.42807 38.3854 4.07942 39.0827 3.84698 39.78C3.14966 41.8719 2.91723 43.8477 3.14966 45.8234C3.73076 50.0073 6.52002 53.4938 10.4715 55.1209C11.8661 55.702 13.3769 56.0507 15.004 56.0507C15.4689 56.0507 16.05 55.9344 16.5148 55.9344C18.3744 55.702 20.3501 55.1209 22.0934 54.0749C24.1853 52.9127 26.161 51.2857 28.4854 48.8451C30.6936 51.1695 32.7855 52.7965 34.8775 54.0749C36.6207 55.1209 38.4802 55.702 40.456 55.9344C40.8046 55.9344 41.3857 56.0507 41.9668 56.0507C43.5939 56.0507 45.2209 55.702 46.4994 55.1209C50.3346 53.6101 53.1238 50.0073 53.8212 45.8234C53.9374 44.0801 53.7049 42.1044 53.0076 39.8962ZM23.3718 29.7852C23.488 29.0878 23.7204 28.3905 24.0691 27.8094C24.9988 26.4148 26.5097 25.7175 28.253 25.7175C30.1125 25.7175 31.6233 26.531 32.4369 27.8094C32.9017 28.3905 33.1342 29.0878 33.2504 29.7852C33.3666 30.7149 33.3666 31.7609 33.1342 32.8069C32.5531 35.3637 30.926 38.5016 28.253 41.9882C25.6962 38.6178 23.9529 35.4799 23.3718 32.8069C23.2556 31.6447 23.2556 30.7149 23.3718 29.7852ZM37.6667 33.969C38.0154 32.342 38.1316 30.8311 37.8991 29.2041C37.6667 27.8094 37.2018 26.4148 36.3883 25.3688C34.645 22.812 31.7395 21.3012 28.3692 21.3012C25.1151 21.3012 22.2096 22.812 20.3501 25.3688C19.5365 26.531 19.0717 27.8094 18.8392 29.2041C18.6068 30.7149 18.723 32.342 19.0717 33.969C19.8852 37.4556 21.9771 41.4071 25.3475 45.7072C23.3718 47.9153 21.5123 49.4262 19.769 50.4721C18.4906 51.1695 17.2122 51.6343 15.9338 51.7506C14.6553 51.8668 13.3769 51.7506 12.0985 51.2857C9.65793 50.2397 7.91464 48.0315 7.56599 45.4747C7.44977 43.9639 7.56599 42.8017 8.14708 41.4071C8.2633 41.0584 8.37952 40.7097 8.61196 40.3611C8.72818 40.1287 8.72818 40.0124 8.8444 39.78C9.19305 38.9665 9.65793 38.0367 10.0066 37.107V36.9907C13.958 28.623 17.9095 20.4876 21.7447 13.0496L21.8609 12.701C22.0934 12.3523 22.3258 11.8874 22.5582 11.4226C22.7907 10.9577 23.0231 10.609 23.2556 10.1441C23.7204 9.21439 24.1853 8.51708 24.6502 7.93598C25.6961 6.77379 26.9746 6.1927 28.4854 6.1927C29.9963 6.1927 31.2747 6.77379 32.3206 7.93598C32.7855 8.51708 33.2504 9.21439 33.7153 10.1441C33.9477 10.4928 34.1801 10.9577 34.2964 11.4226C34.5288 11.8874 34.7612 12.2361 34.8775 12.5847L34.9937 12.9334C39.0613 20.8363 42.8966 28.8554 46.6156 36.7583L46.7318 36.9907C46.9642 37.4556 47.0805 37.8043 47.3129 38.2691C47.5453 38.734 47.7778 39.1989 47.894 39.5476C48.0102 39.78 48.0102 39.8962 48.1264 40.1287C48.3589 40.4773 48.4751 40.826 48.5913 41.1746C49.0562 42.5692 49.1724 43.8477 48.94 45.0099C48.5913 47.5667 46.848 49.7748 44.4074 50.8208C43.2452 51.2857 41.9668 51.5181 40.6884 51.2857C39.41 51.1695 38.1316 50.7046 36.8532 50.0073C35.1099 49.0775 33.3666 47.5667 31.2747 45.2423C34.7612 41.4071 36.8532 37.4556 37.6667 33.969Z" fill="#FF5A5F"/>
</g>
<defs>
<clipPath id="clip0_1637_1151">
<rect width="55.7851" height="55.7851" fill="white" transform="translate(0.476562 0.962891)"/>
</clipPath>
</defs>
</svg>
