<svg width="110" height="21" viewBox="0 0 110 21" fill="none" xmlns="http://www.w3.org/2000/svg">
<g clip-path="url(#clip0_147_665)">
<path d="M75.8447 11.0022C74.3136 11.0022 72.7849 10.9926 71.2539 11.0093C70.9392 11.0093 70.8492 10.9259 70.8516 10.6087C70.8634 8.15931 70.8634 5.70996 70.8516 3.2606C70.8516 2.9434 70.9652 2.88855 71.2468 2.88855C74.3231 2.8957 77.397 2.89332 80.4733 2.8957C80.6082 2.8957 80.7454 2.90286 80.8756 2.92671C81.1241 2.97202 81.214 3.15567 81.2234 3.38701C81.2329 3.61596 81.1785 3.82345 80.93 3.88546C80.7596 3.92839 80.5751 3.93793 80.3976 3.93793C77.7117 3.94032 75.0259 3.94509 72.3424 3.93316C72.0088 3.93316 71.8644 3.98802 71.8904 4.36723C71.9259 4.92531 71.9188 5.48577 71.8904 6.04385C71.8762 6.37536 71.9969 6.43976 72.2998 6.43737C74.9549 6.42545 77.61 6.43022 80.2651 6.43022C80.4449 6.43022 80.6248 6.43499 80.8022 6.45884C81.0862 6.49461 81.2187 6.67348 81.2211 6.95491C81.2211 7.24349 81.072 7.40805 80.7951 7.44859C80.6484 7.47006 80.497 7.4629 80.3455 7.4629C77.6762 7.4629 75.0046 7.46767 72.3353 7.45575C71.9946 7.45575 71.8644 7.52968 71.8881 7.89697C71.9212 8.43835 71.9212 8.98689 71.8881 9.52828C71.8668 9.88602 71.9946 9.94803 72.3164 9.94565C74.9715 9.93372 77.6265 9.93611 80.2816 9.93849C80.4615 9.93849 80.6413 9.94565 80.8188 9.97188C81.1028 10.0148 81.2305 10.208 81.2211 10.4846C81.2116 10.7351 81.1028 10.9259 80.833 10.9616C80.6697 10.9831 80.5064 10.9974 80.3408 10.9998H75.8447V11.0022Z" fill="white"/>
<path d="M40.7797 10.0316H48.2244C48.4208 10.0316 48.6148 10.0268 48.7994 10.1031C49.0076 10.1914 49.0786 10.3655 49.0715 10.5777C49.0644 10.7924 48.9793 10.9689 48.7568 11.0166C48.5817 11.0547 48.4019 11.069 48.222 11.069C45.044 11.069 41.8659 11.0738 38.6879 11.069C38.5128 11.069 38.2809 11.1644 38.1933 10.8878C38.1034 10.6064 38.3637 10.5611 38.4962 10.4585C41.1513 8.43844 43.8111 6.42792 46.4709 4.41501C46.6034 4.31484 46.7312 4.21467 46.8732 4.10497C46.7407 3.92132 46.5608 4.00003 46.4141 4.00003C44.1495 3.99287 41.8872 3.99526 39.6226 3.99526C39.4569 3.99526 39.2937 3.9881 39.128 3.97856C38.844 3.95948 38.7423 3.76392 38.7281 3.51827C38.7139 3.25115 38.818 3.03889 39.1043 2.98404C39.2345 2.9578 39.3718 2.96019 39.5066 2.96019C42.7154 2.96019 45.9243 2.96019 49.1307 2.96257C49.2916 2.96257 49.5022 2.86479 49.5969 3.11044C49.7034 3.37994 49.4738 3.4491 49.3318 3.55881C46.5868 5.63611 43.8418 7.70864 41.0968 9.78356C41.0259 9.83603 40.9572 9.89327 40.7797 10.0364V10.0316Z" fill="white"/>
<path d="M34.9583 9.41142V3.88547C34.9583 3.71852 34.963 3.55396 34.9796 3.38701C35.0033 3.11989 35.1642 2.96249 35.4221 2.96726C35.6872 2.97203 35.9333 3.0555 35.9759 3.38462C35.9901 3.50387 35.9972 3.62551 35.9972 3.74714C35.9972 6.07486 35.9972 8.40258 35.9901 10.7327C35.9901 10.9116 36.0965 11.1357 35.8575 11.2621C35.6233 11.3862 35.4955 11.1882 35.3488 11.0785C32.6464 9.04175 29.9487 7.00261 27.2486 4.96347C27.1777 4.90861 27.109 4.84422 27.0309 4.80129C26.9316 4.74644 26.8558 4.59618 26.7257 4.66535C26.6003 4.73213 26.6547 4.87999 26.6547 4.99209C26.65 6.79035 26.6476 8.59099 26.6523 10.3893C26.6523 10.7446 26.579 11.038 26.1554 11.0451C25.7815 11.0523 25.6229 10.8305 25.6229 10.4656C25.6253 9.64991 25.6229 8.83187 25.6229 8.01622C25.6229 6.42783 25.6206 4.84183 25.6277 3.25345C25.6277 3.07696 25.533 2.85516 25.7862 2.7383C26.0158 2.63098 26.1175 2.82654 26.2477 2.92433C28.9832 4.9897 31.7164 7.05985 34.4495 9.12761C34.5868 9.23255 34.7051 9.38041 34.9583 9.41142Z" fill="white"/>
<path d="M101.184 7.58696C99.9537 7.58696 98.7232 7.60842 97.495 7.57503C97.0738 7.56311 97.0028 7.7062 97.0147 8.08303C97.0407 8.86768 97.0194 9.65472 97.0241 10.4418C97.0241 10.8138 96.9508 11.1143 96.4964 11.1167C96.0634 11.1167 95.9829 10.8257 95.9829 10.4775V3.67562C95.9829 3.30357 96.1225 3.04599 96.5201 3.04361C96.946 3.04122 97.0241 3.3465 97.0218 3.69709C97.0218 4.52944 97.0336 5.3594 97.0147 6.19175C97.0076 6.49464 97.1069 6.56619 97.3956 6.56381C99.9016 6.55427 102.405 6.5495 104.911 6.56619C105.264 6.56619 105.34 6.44694 105.33 6.12259C105.311 5.32124 105.321 4.5199 105.325 3.71855C105.328 3.22486 105.482 3.02691 105.848 3.03884C106.303 3.05076 106.367 3.36558 106.367 3.73047V10.4418C106.367 10.7971 106.312 11.1262 105.844 11.1215C105.389 11.1167 105.321 10.809 105.323 10.4394C105.325 9.62371 105.309 8.80567 105.33 7.99001C105.337 7.66566 105.228 7.5798 104.918 7.58457C103.674 7.59888 102.429 7.59173 101.184 7.59173V7.58696Z" fill="white"/>
<path d="M88.7513 10.1412C90.3036 10.1579 91.5223 9.75488 92.5185 8.76036C92.7079 8.57194 92.9137 8.42885 93.1977 8.54571C93.5858 8.7055 93.6307 9.05371 93.2947 9.42099C92.573 10.2128 91.6761 10.7089 90.6491 10.9569C88.6211 11.4434 86.6996 11.224 85.0408 9.86936C83.0057 8.20705 83.053 5.61936 85.0976 3.97136C87.3788 2.13255 91.2904 2.34004 93.2308 4.40065C93.4769 4.66061 93.6923 4.93011 93.3539 5.24731C93.0439 5.53828 92.767 5.38802 92.4972 5.12329C90.7461 3.39897 87.5255 3.27972 85.6418 4.85618C84.2315 6.03673 84.2267 7.85646 85.6395 9.03463C86.5931 9.82882 87.703 10.1699 88.7513 10.1436V10.1412Z" fill="white"/>
<path d="M23.2235 5.92229C23.2235 6.54238 23.2022 7.16247 23.2282 7.78018C23.2874 9.13722 22.6816 10.1413 21.47 10.6087C19.0421 11.5413 16.5858 11.5961 14.2123 10.3846C13.3154 9.92664 12.8682 9.11337 12.8611 8.09022C12.8493 6.59485 12.8587 5.09948 12.854 3.60411C12.854 3.26545 12.9392 2.99118 13.3296 2.96733C13.6917 2.94586 13.8763 3.17005 13.8786 3.63035C13.8834 5.00408 13.9094 6.38021 13.8715 7.75394C13.8432 8.7604 14.3046 9.38526 15.1825 9.74777C16.4675 10.2796 17.8139 10.2677 19.1651 10.158C19.823 10.1055 20.4666 9.96719 21.0653 9.66668C21.7989 9.29701 22.213 8.74132 22.2012 7.88035C22.1846 6.4446 22.1917 5.01124 22.2012 3.57549C22.2036 3.06034 22.542 2.83377 22.9561 3.03888C23.1809 3.15097 23.2211 3.34654 23.2187 3.56834V5.92468H23.2235V5.92229Z" fill="white"/>
<path d="M63.4924 0.00280785H109.308C109.601 0.00280785 109.895 0.0123477 109.98 0.560889C110.07 1.13328 109.854 1.52203 109.412 1.5268C108.191 1.53872 65.6292 1.54826 64.4105 1.51964C64.0674 1.5101 63.9585 1.62458 63.9609 2.15881C63.9798 5.02792 63.9704 7.89703 63.9727 10.7685C63.9727 11.0809 63.9775 11.3981 63.8118 11.6343C63.5184 12.0469 63.0593 11.8489 62.9647 11.2622C62.9268 11.0309 62.9315 10.7804 62.9315 10.5396C62.9315 7.7587 62.9173 4.97545 62.9386 2.19459C62.9434 1.62458 62.8274 1.50772 62.4606 1.51964C61.2703 1.55542 60.08 1.53634 58.8898 1.53157C58.6295 1.53157 58.3668 1.50772 58.2721 1.04265C58.1562 0.46072 58.3455 0.0505071 58.7927 0.0218875C59.363 -0.0162718 59.9381 0.00757777 60.5084 0.00519281H63.4924V0.00280785Z" fill="#586DE1"/>
<path d="M30.583 20.9857C29.8707 20.9452 29.2389 20.7401 28.8082 20.1128C28.6686 19.9101 28.5716 19.705 28.8177 19.5261C29.0567 19.3544 29.2247 19.488 29.3833 19.6835C29.8849 20.3012 30.7226 20.4825 31.2929 20.1104C31.868 19.7336 31.868 18.9514 31.2929 18.5769C31.0113 18.3909 30.699 18.3098 30.3653 18.2693C29.892 18.212 29.4826 18.0045 29.1632 17.6444C28.7443 17.1698 28.7207 16.6332 28.9928 16.0894C29.2839 15.5099 29.821 15.2571 30.4268 15.2499C31.035 15.2404 31.6124 15.4049 32.0431 15.8962C32.2182 16.0942 32.327 16.3303 32.1259 16.5402C31.894 16.7834 31.6952 16.5902 31.5272 16.4018C31.106 15.9296 30.609 15.8318 30.0269 16.0679C29.4637 16.2945 29.3596 16.8669 29.8092 17.2819C30.1665 17.611 30.6422 17.5872 31.0634 17.7231C31.7023 17.9306 32.2584 18.2216 32.3909 18.9657C32.5187 19.6835 32.2324 20.3656 31.6526 20.7162C31.3261 20.9142 30.9616 20.9977 30.5783 20.9857H30.583Z" fill="#586DE1"/>
<path d="M52.9146 7.01934V10.4155C52.9146 10.759 52.8175 11.0213 52.4342 11.0452C52.1478 11.0618 51.9325 10.9521 51.9017 10.6278C51.8899 10.4918 51.8828 10.3583 51.8828 10.2223V3.5683C51.8828 3.21771 52.0248 2.96252 52.3987 2.97206C52.7584 2.9816 52.9146 3.22487 52.9146 3.58023V7.02172V7.01934Z" fill="white"/>
<path d="M64.4817 18.8964C64.4652 18.0545 63.928 17.5298 63.095 17.5489C62.3615 17.5656 61.8763 18.1237 61.8929 18.9298C61.9095 19.7741 62.4111 20.2773 63.2228 20.2678C63.9848 20.2582 64.4959 19.7002 64.4817 18.8964ZM63.1589 20.9666C62.0136 20.9594 61.1593 20.0603 61.1451 18.844C61.1333 17.7707 62.0893 16.8358 63.1991 16.8406C64.2877 16.8454 65.2035 17.7755 65.2177 18.8893C65.2319 20.0364 64.3042 20.9737 63.1589 20.9666Z" fill="#586DE1"/>
<path d="M68.0407 18.875C68.0407 18.3908 68.0336 17.9067 68.0454 17.4249C68.0478 17.258 68.0076 17.0863 68.2229 16.9622C68.4477 16.8311 68.5637 16.9622 68.6914 17.0743C68.8003 17.1697 68.85 17.1554 68.9872 17.0886C70.2391 16.4709 71.6352 17.0529 71.7393 18.7295C71.7748 19.2852 71.7583 19.8456 71.7535 20.4061C71.7512 20.6565 71.7062 20.9284 71.382 20.9213C71.0839 20.9141 70.9939 20.6637 70.9892 20.4061C70.9774 19.817 70.9916 19.2279 70.9774 18.6389C70.9608 17.9711 70.5159 17.5465 69.8699 17.5585C69.1671 17.5704 68.7648 17.9711 68.7601 18.6746C68.7553 19.2184 68.7601 19.7622 68.7601 20.3059C68.7601 20.5969 68.7814 20.9284 68.3602 20.9117C67.9744 20.8974 68.0525 20.5754 68.0478 20.3298C68.0407 19.8456 68.0478 19.3639 68.0478 18.8797H68.0454L68.0407 18.875Z" fill="#586DE1"/>
<path d="M35.8082 18.9156C35.8201 19.7479 36.3525 20.2798 37.1594 20.2679C37.9119 20.2583 38.4515 19.674 38.442 18.8822C38.4325 18.1119 37.8622 17.5418 37.105 17.5466C36.3478 17.5514 35.7988 18.1309 35.8106 18.9156H35.8082ZM35.103 18.9728C35.0581 17.8161 35.91 16.8955 37.0695 16.8574C37.938 16.8287 39.107 17.4679 39.1259 18.887C39.1401 19.9864 38.3095 20.919 37.2209 20.969C36.3075 21.012 35.0581 20.306 35.1007 18.9752H35.103V18.9728Z" fill="#586DE1"/>
<path d="M49.5116 18.9394C49.5116 19.4522 49.5068 19.9649 49.5116 20.4801C49.5116 20.659 49.4761 20.7973 49.301 20.8855C49.1306 20.9714 48.9933 20.8975 48.8963 20.7949C48.7685 20.6613 48.6904 20.678 48.5271 20.7544C47.1665 21.3959 45.846 20.5707 45.7987 19.0539C45.7821 18.4958 45.7987 17.9377 45.7869 17.3796C45.7798 17.0911 45.9194 16.9503 46.1844 16.9503C46.4353 16.9503 46.5512 17.103 46.5512 17.3629C46.5512 17.9807 46.537 18.6007 46.5678 19.2184C46.5985 19.8576 46.9156 20.1796 47.5262 20.2583C48.0728 20.3275 48.6478 20.0198 48.7591 19.5237C48.8348 19.1922 48.7945 18.8345 48.8016 18.4886C48.8087 18.0975 48.8158 17.704 48.8064 17.3129C48.8016 17.0457 48.9294 16.905 49.1779 16.917C49.3956 16.9265 49.5139 17.0601 49.5092 17.3081C49.495 17.8519 49.5045 18.3956 49.5045 18.9394H49.5116Z" fill="#586DE1"/>
<path d="M76.1338 20.9786C75.554 20.9953 75.1068 20.7925 74.7116 20.4563C74.5317 20.3036 74.4442 20.1176 74.6145 19.9149C74.7849 19.7098 74.9624 19.7599 75.1446 19.9316C75.5019 20.2679 75.9468 20.3227 76.4012 20.2488C76.6354 20.2106 76.9194 20.1367 76.9336 19.8052C76.9478 19.4689 76.7017 19.395 76.4414 19.3282C76.1669 19.259 75.8971 19.1755 75.625 19.0968C74.9577 18.9037 74.6098 18.5316 74.6122 18.0141C74.6169 17.4918 75.0878 16.9766 75.7054 16.8669C76.3609 16.75 76.9478 16.9122 77.4045 17.4226C77.5276 17.5585 77.6885 17.6945 77.4802 17.9163C77.2909 18.119 77.1395 18.1071 76.9454 17.9425C76.6709 17.7088 76.3964 17.4846 75.9918 17.5419C75.7054 17.5824 75.4357 17.6539 75.3931 17.9664C75.3458 18.3098 75.6179 18.4124 75.9019 18.472C76.2805 18.5531 76.6709 18.5936 77.0211 18.782C77.3785 18.9728 77.6695 19.2304 77.6837 19.6621C77.7003 20.1558 77.4518 20.5493 77.0235 20.7544C76.7396 20.8903 76.4296 21.0549 76.1338 20.9762V20.9786Z" fill="#586DE1"/>
<path d="M52.7654 18.8249C52.7654 18.6294 52.7583 18.4314 52.7654 18.2359C52.7796 17.9306 52.7891 17.6539 52.3465 17.6968C52.1856 17.7135 52.0673 17.5848 52.0649 17.4083C52.0649 17.2008 52.1856 17.0314 52.3797 17.0386C52.763 17.0529 52.7772 16.8406 52.7512 16.5568C52.7394 16.4233 52.7512 16.285 52.763 16.1514C52.7796 15.9153 52.8861 15.7364 53.1369 15.7412C53.3641 15.746 53.4682 15.9129 53.4753 16.1371C53.4753 16.1967 53.4895 16.2587 53.48 16.3183C53.4067 16.8287 53.5416 17.1173 54.1355 17.0338C54.3461 17.0052 54.5496 17.1292 54.5378 17.4059C54.5236 17.6635 54.3367 17.7112 54.1261 17.7135C54.0054 17.7135 53.8871 17.7231 53.7664 17.7135C53.5558 17.7016 53.4658 17.7899 53.4777 18.0045C53.5084 18.5435 53.4422 19.0849 53.5534 19.6263C53.622 19.9721 53.7782 20.1104 54.0977 20.1653C54.3745 20.213 54.8005 20.2106 54.6845 20.6494C54.5804 21.0406 54.1947 20.969 53.8871 20.8855C53.1629 20.69 52.8056 20.2225 52.7725 19.4522C52.763 19.2423 52.7725 19.03 52.7725 18.8178H52.7654V18.8249Z" fill="#586DE1"/>
<path d="M41.814 17.754V15.8055C41.814 15.5384 41.9016 15.3619 42.1903 15.35C42.5239 15.3357 42.5334 15.5718 42.5334 15.8103C42.5334 17.0338 42.5405 18.2596 42.5334 19.4831C42.5334 19.8838 42.6067 20.2034 43.0895 20.2535C43.2788 20.2725 43.3853 20.4228 43.3498 20.6088C43.3096 20.8235 43.1534 20.9308 42.9262 20.9379C42.3299 20.9546 41.8448 20.4252 41.8187 19.7073C41.8069 19.3758 41.8187 19.0419 41.8187 18.7104V17.7588L41.814 17.754Z" fill="#586DE1"/>
<path d="M58.2344 18.7296C58.2391 19.3329 58.2604 19.934 58.18 20.535C58.1516 20.7544 58.0901 20.9404 57.8463 20.9261C57.612 20.9118 57.4701 20.752 57.4701 20.5016C57.4701 19.4307 57.4701 18.3599 57.4653 17.2914C57.4653 17.0362 57.6239 16.9146 57.8179 16.9098C58.0262 16.9051 58.232 17.0076 58.232 17.2819C58.2344 17.7636 58.232 18.2478 58.232 18.7296H58.2344Z" fill="#586DE1"/>
<path d="M57.844 15.5337C58.1138 15.5456 58.3173 15.6792 58.3078 15.9582C58.2984 16.2182 58.1304 16.378 57.8322 16.3684C57.5672 16.3589 57.4181 16.273 57.4133 15.9773C57.4062 15.6649 57.5482 15.5337 57.844 15.5361V15.5337Z" fill="#586DE1"/>
<path d="M14.2496 18.2759H26.4031C26.7258 18.2759 27.0485 18.2833 27.1432 18.6705C27.2421 19.075 27.0055 19.3512 26.5171 19.3537C25.1724 19.3611 16.6054 19.3685 15.2608 19.3487C14.8821 19.3438 13.5138 19.3389 13.1094 19.3487C11.797 19.3734 2.12413 19.3611 0.811752 19.3561C0.52346 19.3561 0.235168 19.3389 0.131899 19.0108C0.00281316 18.599 0.213654 18.3079 0.706332 18.2882C1.3367 18.2611 10.3297 18.2783 10.9601 18.2759H14.2496Z" fill="#586DE1"/>
<path d="M109.885 14.4652V18.9513C109.885 19.2447 109.878 19.538 109.507 19.6263C109.119 19.7169 108.854 19.5023 108.851 19.0563C108.844 17.8328 108.837 16.6093 108.856 15.3858C108.861 15.04 108.866 13.795 108.856 13.4301C108.832 12.2377 108.844 11.0428 108.849 9.85032C108.849 9.58798 108.866 9.32563 109.18 9.23262C109.575 9.11576 109.855 9.30655 109.874 9.75493C109.9 10.3273 109.883 10.9021 109.885 11.4769V14.4676V14.4652Z" fill="#586DE1"/>
<path d="M95.6184 18.6795H108.986C109.341 18.6795 109.696 18.6866 109.8 19.061C109.909 19.4522 109.649 19.7193 109.111 19.7217C107.633 19.7288 98.2096 19.736 96.7306 19.7169C96.3141 19.7121 94.8091 19.7074 94.3642 19.7169C92.9207 19.7408 82.2815 19.7288 80.838 19.7241C80.5209 19.7241 80.2038 19.7074 80.0902 19.3902C79.9482 18.9919 80.1801 18.7105 80.722 18.6914C81.4154 18.6651 91.3068 18.6818 92.0002 18.6795H95.6184Z" fill="#586DE1"/>
<path d="M37.6515 20.0317C38.3049 20.0317 38.8346 19.4978 38.8346 18.8392C38.8346 18.1806 38.3049 17.6467 37.6515 17.6467C36.998 17.6467 36.4683 18.1806 36.4683 18.8392C36.4683 19.4978 36.998 20.0317 37.6515 20.0317Z" fill="#586DE1"/>
<path d="M63.6817 20.0317C64.3352 20.0317 64.8649 19.4978 64.8649 18.8392C64.8649 18.1806 64.3352 17.6467 63.6817 17.6467C63.0283 17.6467 62.4985 18.1806 62.4985 18.8392C62.4985 19.4978 63.0283 20.0317 63.6817 20.0317Z" fill="#586DE1"/>
<path d="M10.8793 7.6825C10.8793 8.30974 10.8817 8.93699 10.8793 9.56423C10.8699 11.0715 10.2286 11.9874 8.7851 12.5335C7.20199 13.1345 5.55736 13.1226 3.90562 12.9509C2.96854 12.8531 2.07878 12.5884 1.29551 12.0446C0.576126 11.5461 0.185674 10.864 0.133613 9.99829C0.114682 9.67632 0.133613 9.36628 0.564295 9.31858C0.983144 9.27327 1.16062 9.49507 1.18192 9.88143C1.21978 10.6398 1.67649 11.1049 2.32252 11.4364C2.92594 11.7441 3.58143 11.8753 4.24875 11.9373C5.49583 12.0565 6.73581 12.047 7.9545 11.7131C9.35066 11.3315 9.83577 10.6947 9.83104 9.27565C9.82867 7.97585 9.82867 3.51359 9.83104 2.21378C9.83104 1.7201 10.0014 1.48637 10.3587 1.51261C10.8036 1.546 10.8912 1.8465 10.8864 2.22571C10.8746 2.99128 10.8817 6.91693 10.8817 7.68011L10.8793 7.6825Z" fill="#586DE1"/>
<path d="M5.53381 1.36708C7.07432 1.36708 8.61484 1.36708 10.1577 1.36708C10.4606 1.36708 10.7635 1.37423 10.8534 1.76298C10.9457 2.16842 10.7256 2.44508 10.2666 2.44985C9.00529 2.457 7.74401 2.46654 6.4851 2.44508C6.13014 2.43792 4.84756 2.43554 4.46894 2.44508C3.24079 2.47131 2.01027 2.457 0.779754 2.45223C0.509987 2.45223 0.24022 2.43554 0.143198 2.10403C0.0225128 1.69143 0.218922 1.39808 0.682733 1.379C1.27196 1.35277 1.86592 1.36946 2.45752 1.36708C3.48453 1.36708 4.51154 1.36708 5.53854 1.36708H5.53381Z" fill="#586DE1"/>
<path d="M1.17956 4.39833C1.17956 5.25454 1.17956 6.11312 1.17956 6.96932C1.17956 7.13865 1.17246 7.3056 0.786742 7.35569C0.384457 7.40815 0.109957 7.28414 0.105225 7.02895C0.0981255 6.32777 0.0886601 5.62659 0.109957 4.92541C0.117057 4.72746 0.119423 4.01436 0.109957 3.80448C0.0839273 3.12 0.0981254 2.4379 0.102858 1.75341C0.102858 1.60316 0.119423 1.45291 0.44835 1.39806C0.857734 1.33128 1.1488 1.44098 1.16773 1.69856C1.19376 2.02768 1.1772 2.35681 1.17956 2.68593C1.17956 3.25832 1.17956 3.82833 1.17956 4.40072V4.39833Z" fill="#586DE1"/>
<path d="M2.24436 6.38508C2.24909 6.7476 2.481 6.97894 2.83122 6.97417C3.15778 6.9694 3.39442 6.71659 3.38969 6.37077C3.38496 6.03688 3.13649 5.78646 2.80756 5.78884C2.47863 5.78884 2.23963 6.04403 2.24436 6.38508ZM1.93673 6.41132C1.9178 5.90809 2.28696 5.50742 2.79336 5.49072C3.17198 5.4788 3.67839 5.75784 3.68785 6.37316C3.69495 6.85015 3.3329 7.25798 2.85962 7.27944C2.46207 7.29852 1.9178 6.99086 1.93673 6.41132Z" fill="#586DE1"/>
<path d="M3.04663 6.87163C3.33154 6.87163 3.5625 6.63885 3.5625 6.35171C3.5625 6.06456 3.33154 5.83179 3.04663 5.83179C2.76173 5.83179 2.53076 6.06456 2.53076 6.35171C2.53076 6.63885 2.76173 6.87163 3.04663 6.87163Z" fill="#586DE1"/>
<path d="M8.01145 6.38508C8.01618 6.7476 8.24809 6.97894 8.59831 6.97417C8.92487 6.9694 9.16151 6.71659 9.15678 6.37077C9.15205 6.03688 8.90358 5.78646 8.57465 5.78884C8.24572 5.78884 8.00672 6.04403 8.01145 6.38508ZM7.70382 6.41132C7.68489 5.90809 8.05405 5.50742 8.56045 5.49072C8.93907 5.4788 9.44548 5.75784 9.45494 6.37316C9.46204 6.85015 9.09999 7.25798 8.62671 7.27944C8.22916 7.29852 7.68489 6.99086 7.70382 6.41132Z" fill="#586DE1"/>
<path d="M8.81372 6.90496C9.09863 6.90496 9.32959 6.67218 9.32959 6.38503C9.32959 6.09789 9.09863 5.86511 8.81372 5.86511C8.52881 5.86511 8.29785 6.09789 8.29785 6.38503C8.29785 6.67218 8.52881 6.90496 8.81372 6.90496Z" fill="#586DE1"/>
</g>
<defs>
<clipPath id="clip0_147_665">
<rect width="110" height="21" fill="white"/>
</clipPath>
</defs>
</svg>
