<svg width="383" height="1540" viewBox="0 0 383 1540" fill="none" xmlns="http://www.w3.org/2000/svg">
<path d="M354.004 0C369.526 0 382.11 12.5833 382.11 28.1055V1511.89C382.11 1527.42 369.526 1540 354.004 1540H28.1055C12.5832 1540 0 1527.42 0 1511.89V28.1055C0.000183794 12.5833 12.5833 2.81412e-05 28.1055 0H354.004ZM31.1055 51C15.5833 51.0001 3.00008 63.5833 3 79.1055V1502.89C3.00007 1518.42 15.5833 1531 31.1055 1531H350.895C366.417 1531 379 1518.42 379 1502.89V79.1055C379 63.5833 366.417 51.0001 350.895 51H31.1055Z" fill="white" fill-opacity="0.85"/>
<ellipse cx="50.7622" cy="26.2023" rx="14.7622" ry="15.2023" fill="url(#paint0_linear_0_1)"/>
<path d="M57.3352 20.853H44.4985V24.704H45.1404V31.7642C45.1404 32.1047 45.2756 32.4312 45.5163 32.6719C45.7571 32.9126 46.0836 33.0479 46.424 33.0479H55.4097C55.7502 33.0479 56.0767 32.9126 56.3174 32.6719C56.5581 32.4312 56.6934 32.1047 56.6934 31.7642V24.704H57.3352V20.853ZM45.7822 22.1367H56.0516V23.4204H45.7822V22.1367ZM55.4097 31.7642H46.424V24.704H55.4097V31.7642ZM48.9914 25.9877H52.8424C52.8424 26.3282 52.7071 26.6547 52.4664 26.8954C52.2257 27.1361 51.8992 27.2714 51.5587 27.2714H50.275C49.9346 27.2714 49.6081 27.1361 49.3674 26.8954C49.1266 26.6547 48.9914 26.3282 48.9914 25.9877Z" fill="white"/>
<path d="M85.4726 22.6877C87.3596 20.1743 91.2684 19.4432 94.0501 21.173C96.7972 22.8803 97.8074 26.1645 96.6816 29.2453C95.6194 32.1548 92.8203 33.3069 90.8031 31.8435C90.0476 31.2954 89.7543 30.6079 89.6131 29.4918L89.5451 28.8583L89.5162 28.6029C89.4372 28.0034 89.3166 27.7351 89.0637 27.5939C88.7203 27.4026 88.4912 27.3981 88.04 27.5727L87.8147 27.6664L87.6998 27.7165C87.049 27.9989 86.6164 28.0984 86.0689 27.9835L85.9405 27.9533L85.8353 27.9232C84.0452 27.3686 83.7801 24.9405 85.4726 22.6877ZM86.1042 26.9983L86.1831 27.022L86.2691 27.0413C86.5509 27.0971 86.7916 27.0509 87.1915 26.8859L87.5778 26.721C88.3493 26.4046 88.8519 26.3744 89.5329 26.7531C90.1214 27.0817 90.3512 27.5862 90.468 28.4604L90.502 28.755L90.5373 29.0964L90.5675 29.3673C90.6779 30.2408 90.8788 30.7087 91.3685 31.0643C92.8287 32.1233 94.9204 31.2626 95.7779 28.9148C96.7509 26.2499 95.8896 23.4502 93.5418 21.99C91.183 20.5241 87.8301 21.1518 86.2422 23.2654C84.9104 25.0387 85.074 26.6542 86.1042 26.9983ZM93.3088 25.7185C93.2785 25.6158 93.269 25.5081 93.2809 25.4017C93.2929 25.2953 93.326 25.1923 93.3784 25.0989C93.4307 25.0055 93.5012 24.9236 93.5858 24.8579C93.6703 24.7921 93.7671 24.744 93.8705 24.7163C93.9739 24.6886 94.0819 24.6818 94.1879 24.6965C94.294 24.7111 94.396 24.7468 94.4881 24.8015C94.5801 24.8562 94.6603 24.9288 94.7238 25.0149C94.7874 25.1011 94.8331 25.1991 94.8582 25.3032C94.9072 25.5066 94.8748 25.7212 94.7679 25.9011C94.661 26.081 94.4881 26.212 94.2859 26.2662C94.0838 26.3203 93.8685 26.2934 93.6859 26.1911C93.5034 26.0888 93.3681 25.9192 93.3088 25.7185ZM93.6258 27.9572C93.5986 27.8554 93.5916 27.7492 93.6054 27.6448C93.6191 27.5403 93.6533 27.4396 93.706 27.3483C93.7587 27.2571 93.8289 27.1771 93.9124 27.113C93.996 27.0488 94.0915 27.0018 94.1932 26.9745C94.295 26.9473 94.4012 26.9403 94.5056 26.9541C94.6101 26.9678 94.7108 27.002 94.8021 27.0547C94.8933 27.1074 94.9733 27.1775 95.0374 27.2611C95.1016 27.3447 95.1486 27.4401 95.1759 27.5419C95.2309 27.7475 95.2021 27.9665 95.0957 28.1507C94.9893 28.335 94.814 28.4695 94.6085 28.5246C94.4029 28.5796 94.1839 28.5508 93.9997 28.4444C93.8154 28.338 93.6809 28.1627 93.6258 27.9572ZM92.0392 23.791C91.9842 23.5855 92.013 23.3665 92.1194 23.1822C92.2258 22.9979 92.4011 22.8634 92.6066 22.8084C92.8122 22.7533 93.0312 22.7821 93.2154 22.8886C93.3997 22.995 93.5342 23.1702 93.5893 23.3758C93.6165 23.4775 93.6235 23.5837 93.6097 23.6881C93.596 23.7926 93.5618 23.8933 93.5091 23.9846C93.4564 24.0758 93.3863 24.1558 93.3027 24.22C93.2191 24.2841 93.1237 24.3311 93.0219 24.3584C92.8163 24.4135 92.5973 24.3846 92.413 24.2782C92.3218 24.2255 92.2418 24.1554 92.1777 24.0718C92.1135 23.9882 92.0665 23.8928 92.0392 23.791ZM92.0213 29.5663C91.9909 29.4636 91.9815 29.3559 91.9934 29.2495C92.0054 29.1431 92.0385 29.0401 92.0909 28.9467C92.1432 28.8533 92.2137 28.7714 92.2982 28.7057C92.3828 28.6399 92.4796 28.5918 92.583 28.5641C92.6864 28.5364 92.7943 28.5296 92.9004 28.5443C93.0065 28.5589 93.1085 28.5946 93.2006 28.6493C93.2926 28.704 93.3728 28.7766 93.4363 28.8627C93.4999 28.9489 93.5456 29.0469 93.5707 29.151C93.6197 29.3544 93.5873 29.569 93.4804 29.7489C93.3735 29.9288 93.2005 30.0598 92.9984 30.114C92.7963 30.1681 92.581 30.1412 92.3984 30.0389C92.2159 29.9365 92.0805 29.767 92.0213 29.5663ZM89.7768 23.1672C89.7485 23.0651 89.7408 22.9584 89.754 22.8533C89.7672 22.7482 89.801 22.6467 89.8537 22.5547C89.9063 22.4628 89.9766 22.3822 90.0605 22.3175C90.1444 22.2529 90.2403 22.2055 90.3427 22.1782C90.445 22.1508 90.5518 22.144 90.6568 22.158C90.7618 22.1721 90.8629 22.2069 90.9544 22.2603C91.0459 22.3137 91.1259 22.3847 91.1898 22.4692C91.2538 22.5537 91.3003 22.65 91.3268 22.7525C91.3797 22.9574 91.3496 23.1749 91.2429 23.3576C91.1363 23.5404 90.9617 23.6736 90.7573 23.7282C90.5529 23.7829 90.3352 23.7546 90.1515 23.6496C89.9679 23.5445 89.8332 23.3711 89.7768 23.1672Z" fill="black"/>
<path d="M135.575 27.053C135.472 26.9359 135.415 26.7853 135.415 26.6294C135.415 26.4735 135.472 26.3229 135.575 26.2058L136.396 25.2816C136.487 25.1806 136.543 25.0535 136.557 24.9186C136.571 24.7837 136.541 24.6479 136.473 24.5306L135.189 22.3099C135.122 22.1928 135.019 22.0999 134.896 22.0446C134.773 21.9893 134.635 21.9743 134.503 22.0018L133.296 22.2457C133.143 22.2774 132.983 22.2518 132.847 22.1738C132.711 22.0958 132.608 21.9707 132.558 21.8221L132.166 20.6475C132.123 20.52 132.041 20.4093 131.932 20.331C131.822 20.2527 131.691 20.2107 131.557 20.2111H128.989C128.849 20.2038 128.711 20.2425 128.595 20.3213C128.479 20.4001 128.392 20.5147 128.348 20.6475L127.988 21.8221C127.938 21.9707 127.835 22.0958 127.699 22.1738C127.563 22.2518 127.404 22.2774 127.25 22.2457L126.011 22.0018C125.886 21.9841 125.758 22.0039 125.644 22.0587C125.529 22.1135 125.434 22.2009 125.369 22.3099L124.086 24.5306C124.016 24.6466 123.984 24.7816 123.996 24.9165C124.008 25.0514 124.061 25.1792 124.15 25.2816L124.965 26.2058C125.068 26.3229 125.125 26.4735 125.125 26.6294C125.125 26.7853 125.068 26.9359 124.965 27.053L124.15 27.9773C124.061 28.0797 124.008 28.2075 123.996 28.3423C123.984 28.4772 124.016 28.6123 124.086 28.7282L125.369 30.949C125.437 31.0661 125.54 31.1589 125.663 31.2142C125.786 31.2696 125.924 31.2845 126.056 31.257L127.263 31.0132C127.416 30.9814 127.576 31.007 127.712 31.085C127.848 31.1631 127.951 31.2882 128.001 31.4368L128.392 32.6113C128.437 32.7442 128.524 32.8587 128.64 32.9376C128.756 33.0164 128.894 33.0551 129.034 33.0478H131.602C131.736 33.0481 131.867 33.0062 131.977 32.9278C132.086 32.8495 132.168 32.7388 132.211 32.6113L132.603 31.4368C132.653 31.2882 132.756 31.1631 132.892 31.085C133.028 31.007 133.187 30.9814 133.341 31.0132L134.548 31.257C134.68 31.2845 134.818 31.2696 134.941 31.2142C135.064 31.1589 135.167 31.0661 135.234 30.949L136.518 28.7282C136.586 28.611 136.615 28.4751 136.602 28.3402C136.588 28.2053 136.532 28.0783 136.441 27.9773L135.575 27.053ZM134.618 27.9131L135.132 28.4907L134.31 29.9156L133.553 29.7616C133.091 29.6671 132.61 29.7456 132.201 29.9822C131.793 30.2189 131.486 30.5971 131.338 31.0452L131.095 31.7641H129.451L129.22 31.0324C129.073 30.5843 128.766 30.206 128.357 29.9694C127.949 29.7328 127.468 29.6542 127.006 29.7487L126.249 29.9028L125.414 28.4843L125.928 27.9067C126.244 27.5536 126.418 27.0966 126.418 26.623C126.418 26.1494 126.244 25.6924 125.928 25.3393L125.414 24.7617L126.236 23.3496L126.993 23.5037C127.455 23.5982 127.936 23.5197 128.345 23.283C128.753 23.0464 129.06 22.6681 129.208 22.22L129.451 21.4947H131.095L131.338 22.2264C131.486 22.6745 131.793 23.0528 132.201 23.2894C132.61 23.5261 133.091 23.6046 133.553 23.5101L134.31 23.3561L135.132 24.7809L134.618 25.3586C134.306 25.7108 134.134 26.1652 134.134 26.6358C134.134 27.1065 134.306 27.5609 134.618 27.9131ZM130.273 24.0621C129.765 24.0621 129.269 24.2127 128.847 24.4948C128.424 24.7769 128.095 25.1778 127.901 25.6469C127.707 26.1161 127.656 26.6323 127.755 27.1303C127.854 27.6283 128.099 28.0858 128.458 28.4448C128.817 28.8039 129.274 29.0484 129.772 29.1474C130.27 29.2465 130.786 29.1956 131.255 29.0013C131.725 28.807 132.126 28.478 132.408 28.0558C132.69 27.6336 132.84 27.1372 132.84 26.6294C132.84 25.9485 132.57 25.2955 132.088 24.814C131.607 24.3326 130.954 24.0621 130.273 24.0621ZM130.273 27.9131C130.019 27.9131 129.771 27.8378 129.56 27.6968C129.349 27.5557 129.184 27.3552 129.087 27.1207C128.99 26.8861 128.964 26.628 129.014 26.379C129.064 26.13 129.186 25.9013 129.365 25.7217C129.545 25.5422 129.774 25.4199 130.023 25.3704C130.272 25.3209 130.53 25.3463 130.764 25.4435C130.999 25.5406 131.199 25.7052 131.34 25.9163C131.481 26.1274 131.557 26.3755 131.557 26.6294C131.557 26.9699 131.421 27.2964 131.181 27.5371C130.94 27.7778 130.613 27.9131 130.273 27.9131Z" fill="black"/>
<g clip-path="url(#clip0_0_1)">
<path d="M176.315 20.9494C176.15 20.8423 175.961 20.7775 175.764 20.7607C175.568 20.7439 175.37 20.7757 175.189 20.8531L169.249 23.1926C169.108 23.2503 168.958 23.2797 168.806 23.2792H165.003C164.684 23.2792 164.378 23.406 164.152 23.6317C163.926 23.8574 163.8 24.1635 163.8 24.4827V24.5789H162.596V27.4672H163.8V27.5923C163.807 27.9065 163.937 28.2052 164.162 28.4247C164.387 28.6442 164.689 28.767 165.003 28.7669L166.447 31.8285C166.545 32.0346 166.699 32.209 166.891 32.3316C167.084 32.4543 167.307 32.5201 167.535 32.5216H168.142C168.459 32.5191 168.763 32.3912 168.986 32.1658C169.21 31.9404 169.335 31.6357 169.335 31.3182V28.8824L175.189 31.2219C175.333 31.2786 175.487 31.3079 175.641 31.3086C175.882 31.3041 176.116 31.2306 176.315 31.0968C176.474 30.9898 176.604 30.8468 176.696 30.6793C176.789 30.5119 176.839 30.325 176.845 30.134V21.941C176.844 21.7451 176.795 21.5524 176.703 21.3796C176.611 21.2067 176.478 21.0591 176.315 20.9494ZM168.132 24.4827V27.5923H165.003V24.4827H168.132ZM168.132 31.3182H167.525L166.341 28.7669H168.132V31.3182ZM169.692 27.7368C169.577 27.6784 169.458 27.6301 169.335 27.5923V24.4153C169.457 24.39 169.576 24.3546 169.692 24.3094L175.641 21.941V30.1051L169.692 27.7368ZM176.874 24.8196V27.2265C177.193 27.2265 177.499 27.0997 177.725 26.874C177.95 26.6483 178.077 26.3422 178.077 26.0231C178.077 25.7039 177.95 25.3978 177.725 25.1721C177.499 24.9464 177.193 24.8196 176.874 24.8196Z" fill="black"/>
</g>
<circle cx="305.981" cy="25.9812" r="4.98121" fill="#E3E3E3"/>
<circle cx="323.415" cy="25.9812" r="4.98121" fill="#E3E3E3"/>
<circle cx="340.85" cy="25.9812" r="4.98121" fill="#E3E3E3"/>
<defs>
<linearGradient id="paint0_linear_0_1" x1="35.0421" y1="10.8866" x2="66.0821" y2="15.092" gradientUnits="userSpaceOnUse">
<stop stop-color="#0B1E54"/>
<stop offset="1" stop-color="#4FABFF"/>
</linearGradient>
<clipPath id="clip0_0_1">
<rect width="15.404" height="15.404" fill="white" transform="translate(162.596 18.9275)"/>
</clipPath>
</defs>
</svg>
